<?xml version="1.0" standalone="no"?>
<!DOCTYPE svg PUBLIC "-//W3C//DTD SVG 1.1//EN" "http://www.w3.org/Graphics/SVG/1.1/DTD/svg11.dtd" >
<svg>
<metadata>
Created by FontForge 20120731 at Fri May 30 00:25:26 2014
 By World Wide Web Server
Copyright (c) 2013 by Jan Tonellato. All rights reserved.
</metadata>
<defs>
<font id="Novecentosanswide-Medium" horiz-adv-x="668" >
  <font-face 
    font-family="Novecento sans wide UltraLight"
    font-weight="600"
    font-stretch="expanded"
    units-per-em="1000"
    panose-1="0 0 7 5 0 0 0 0 0 0"
    ascent="821"
    descent="-179"
    x-height="560"
    cap-height="700"
    bbox="-70 -217 1147 944"
    underline-thickness="99"
    underline-position="-63"
    stemh="100"
    stemv="107"
    unicode-range="U+0020-F8FF"
  />
<missing-glyph horiz-adv-x="644" 
d="M70 85v530c0 53 36 85 85 85h334c49 0 85 -32 85 -85v-530c0 -55 -36 -85 -85 -85h-334c-49 0 -85 30 -85 85zM167 22h310c49 0 74 20 74 76v504c0 56 -27 76 -84 76h-290c-63 0 -84 -20 -84 -76v-504c0 -56 27 -76 74 -76zM388 353l121 -120l-67 -66l-120 119l-120 -119
l-67 66l121 120l-121 120l67 66l120 -119l120 119l67 -66z" />
    <glyph glyph-name=".notdef" horiz-adv-x="644" 
d="M70 85v530c0 53 36 85 85 85h334c49 0 85 -32 85 -85v-530c0 -55 -36 -85 -85 -85h-334c-49 0 -85 30 -85 85zM167 22h310c49 0 74 20 74 76v504c0 56 -27 76 -84 76h-290c-63 0 -84 -20 -84 -76v-504c0 -56 27 -76 74 -76zM388 353l121 -120l-67 -66l-120 119l-120 -119
l-67 66l121 120l-121 120l67 66l120 -119l120 119l67 -66z" />
    <glyph glyph-name="A" unicode="A" horiz-adv-x="740" 
d="M537 163h-335l-66 -163h-116l289 700h123l288 -700h-118zM497 263l-68 169c-25 62 -57 142 -58 143h-3c-1 -1 -34 -81 -59 -143l-67 -169h255z" />
    <glyph glyph-name="Aacute" unicode="&#xc1;" horiz-adv-x="740" 
d="M409 754h-101l107 168l88 -29zM537 163h-335l-66 -163h-116l289 700h123l288 -700h-118zM497 263l-68 169c-25 62 -57 142 -58 143h-3c-1 -1 -34 -81 -59 -143l-67 -169h255z" />
    <glyph glyph-name="Abreve" unicode="&#x102;" horiz-adv-x="740" 
d="M369 743c-96 0 -161 54 -165 138h82c3 -37 30 -67 83 -67c54 0 81 32 83 67h82c-4 -83 -68 -138 -165 -138zM537 163h-335l-66 -163h-116l289 700h123l288 -700h-118zM497 263l-68 169c-25 62 -57 142 -58 143h-3c-1 -1 -34 -81 -59 -143l-67 -169h255z" />
    <glyph glyph-name="Acircumflex" unicode="&#xc2;" horiz-adv-x="740" 
d="M262 750l-50 60l155 122l155 -123l-50 -59l-105 84zM537 163h-335l-66 -163h-116l289 700h123l288 -700h-118zM497 263l-68 169c-25 62 -57 142 -58 143h-3c-1 -1 -34 -81 -59 -143l-67 -169h255z" />
    <glyph glyph-name="Adieresis" unicode="&#xc4;" horiz-adv-x="740" 
d="M271 771c-31 0 -55 25 -55 56c0 30 25 55 56 55c30 0 54 -25 54 -55c0 -31 -24 -56 -55 -56zM468 771c-31 0 -55 25 -55 56c0 30 24 55 55 55s56 -25 56 -55c0 -31 -25 -56 -56 -56zM537 163h-335l-66 -163h-116l289 700h123l288 -700h-118zM497 263l-68 169
c-25 62 -57 142 -58 143h-3c-1 -1 -34 -81 -59 -143l-67 -169h255z" />
    <glyph glyph-name="Agrave" unicode="&#xc0;" horiz-adv-x="740" 
d="M327 754l-94 139l88 29l106 -168h-100zM537 163h-335l-66 -163h-116l289 700h123l288 -700h-118zM497 263l-68 169c-25 62 -57 142 -58 143h-3c-1 -1 -34 -81 -59 -143l-67 -169h255z" />
    <glyph glyph-name="Amacron" unicode="&#x100;" horiz-adv-x="740" 
d="M522 769h-305v92h305v-92zM537 163h-335l-66 -163h-116l289 700h123l288 -700h-118zM497 263l-68 169c-25 62 -57 142 -58 143h-3c-1 -1 -34 -81 -59 -143l-67 -169h255z" />
    <glyph glyph-name="Aogonek" unicode="&#x104;" horiz-adv-x="740" 
d="M527 -50c0 -31 32 -41 71 -41c36 0 74 5 99 16v-81c-25 -10 -64 -18 -107 -18c-75 0 -153 32 -153 120c0 49 29 110 136 127l-36 90h-335l-66 -163h-116l289 700h123l288 -700h-60c-102 0 -133 -20 -133 -50zM497 263l-68 169c-25 62 -57 142 -58 143h-3
c-1 -1 -34 -81 -59 -143l-67 -169h255z" />
    <glyph glyph-name="Aring" unicode="&#xc5;" horiz-adv-x="740" 
d="M370 736c-68 0 -115 39 -115 103s47 104 115 104c67 0 114 -40 114 -104s-47 -103 -114 -103zM370 881c-27 0 -45 -16 -45 -42c0 -25 18 -42 45 -42s45 17 45 42c0 26 -18 42 -45 42zM537 163h-335l-66 -163h-116l289 700h123l288 -700h-118zM497 263l-68 169
c-25 62 -57 142 -58 143h-3c-1 -1 -34 -81 -59 -143l-67 -169h255z" />
    <glyph glyph-name="Atilde" unicode="&#xc3;" horiz-adv-x="740" 
d="M294 806c-37 0 -65 -16 -77 -28l-19 79c9 11 36 34 86 34c60 0 94 -32 156 -32c36 0 60 14 75 26l19 -80c-8 -10 -38 -32 -86 -32c-59 0 -95 33 -154 33zM537 163h-335l-66 -163h-116l289 700h123l288 -700h-118zM497 263l-68 169c-25 62 -57 142 -58 143h-3
c-1 -1 -34 -81 -59 -143l-67 -169h255z" />
    <glyph glyph-name="AE" unicode="&#xc6;" horiz-adv-x="993" 
d="M945 98v-98h-484v167h-257l-67 -167h-117l289 700h633v-98h-373v-192h291v-94h-291v-218h376zM461 261v341h-81l-138 -341h219z" />
    <glyph glyph-name="B" unicode="B" horiz-adv-x="626" 
d="M446 377v-4c66 -13 148 -65 148 -175c0 -115 -82 -198 -243 -198h-281v700h268c128 0 211 -78 211 -176c0 -87 -57 -134 -103 -147zM180 408h143c67 0 115 36 115 100c0 59 -45 99 -121 99h-137v-199zM180 93h163c83 0 135 40 135 113c0 75 -60 118 -136 118h-162v-231z
" />
    <glyph glyph-name="C" unicode="C" horiz-adv-x="762" 
d="M617 229l108 -29c-54 -133 -180 -213 -330 -213c-205 0 -360 145 -360 365c0 217 154 362 361 362c161 0 275 -88 321 -195l-109 -29c-29 50 -94 120 -216 120c-146 0 -246 -101 -246 -259c0 -160 105 -260 244 -260c107 0 188 56 227 138z" />
    <glyph glyph-name="Cacute" unicode="&#x106;" horiz-adv-x="762" 
d="M434 754h-100l107 168l88 -29zM617 229l108 -29c-54 -133 -180 -213 -330 -213c-205 0 -360 145 -360 365c0 217 154 362 361 362c161 0 275 -88 321 -195l-109 -29c-29 50 -94 120 -216 120c-146 0 -246 -101 -246 -259c0 -160 105 -260 244 -260c107 0 188 56 227 138z
" />
    <glyph glyph-name="Cacute.loclPLK" horiz-adv-x="762" 
d="M437 754h-89l60 182l87 -17zM617 229l108 -29c-54 -133 -180 -213 -330 -213c-205 0 -360 145 -360 365c0 217 154 362 361 362c161 0 275 -88 321 -195l-109 -29c-29 50 -94 120 -216 120c-146 0 -246 -101 -246 -259c0 -160 105 -260 244 -260c107 0 188 56 227 138z
" />
    <glyph glyph-name="Ccaron" unicode="&#x10c;" horiz-adv-x="762" 
d="M241 867l49 59l106 -79l105 79l50 -59l-155 -118zM617 229l108 -29c-54 -133 -180 -213 -330 -213c-205 0 -360 145 -360 365c0 217 154 362 361 362c161 0 275 -88 321 -195l-109 -29c-29 50 -94 120 -216 120c-146 0 -246 -101 -246 -259c0 -160 105 -260 244 -260
c107 0 188 56 227 138z" />
    <glyph glyph-name="Ccedilla" unicode="&#xc7;" horiz-adv-x="762" 
d="M617 229l108 -29c-44 -109 -137 -182 -251 -205c32 -14 53 -38 53 -78c0 -57 -43 -91 -133 -91c-35 0 -69 6 -86 14v71c14 -7 39 -12 71 -12c46 0 69 10 69 33c0 27 -35 38 -117 39v21c-172 27 -296 164 -296 360c0 217 154 362 361 362c161 0 275 -88 321 -195l-109 -29
c-29 50 -94 120 -216 120c-146 0 -246 -101 -246 -259c0 -160 105 -260 244 -260c107 0 188 56 227 138z" />
    <glyph glyph-name="Ccircumflex" unicode="&#x108;" horiz-adv-x="762" 
d="M547 809l-49 -59l-105 84l-106 -84l-49 60l155 122zM617 229l108 -29c-54 -133 -180 -213 -330 -213c-205 0 -360 145 -360 365c0 217 154 362 361 362c161 0 275 -88 321 -195l-109 -29c-29 50 -94 120 -216 120c-146 0 -246 -101 -246 -259c0 -160 105 -260 244 -260
c107 0 188 56 227 138z" />
    <glyph glyph-name="Cdotaccent" unicode="&#x10a;" horiz-adv-x="762" 
d="M395 771c-30 0 -55 25 -55 56c0 30 25 55 55 55c31 0 56 -25 56 -55c0 -31 -25 -56 -56 -56zM617 229l108 -29c-54 -133 -180 -213 -330 -213c-205 0 -360 145 -360 365c0 217 154 362 361 362c161 0 275 -88 321 -195l-109 -29c-29 50 -94 120 -216 120
c-146 0 -246 -101 -246 -259c0 -160 105 -260 244 -260c107 0 188 56 227 138z" />
    <glyph glyph-name="D" unicode="D" horiz-adv-x="736" 
d="M70 700h261c214 0 370 -139 370 -353c0 -215 -157 -347 -366 -347h-265v700zM180 103h149c139 0 261 76 261 244c0 167 -121 250 -265 250h-145v-494z" />
    <glyph glyph-name="Eth" unicode="&#xd0;" horiz-adv-x="736" 
d="M70 700h261c214 0 370 -139 370 -353c0 -215 -157 -347 -366 -347h-265v313h-59v98h59v289zM180 103h149c139 0 261 76 261 244c0 167 -121 250 -265 250h-145v-186h166v-98h-166v-210z" />
    <glyph glyph-name="Dcaron" unicode="&#x10e;" horiz-adv-x="736" 
d="M200 867l50 59l105 -79l106 79l49 -59l-155 -118zM70 700h261c214 0 370 -139 370 -353c0 -215 -157 -347 -366 -347h-265v700zM180 103h149c139 0 261 76 261 244c0 167 -121 250 -265 250h-145v-494z" />
    <glyph glyph-name="Dcroat" unicode="&#x110;" horiz-adv-x="736" 
d="M70 700h261c214 0 370 -139 370 -353c0 -215 -157 -347 -366 -347h-265v313h-59v98h59v289zM180 103h149c139 0 261 76 261 244c0 167 -121 250 -265 250h-145v-186h166v-98h-166v-210z" />
    <glyph glyph-name="E" unicode="E" horiz-adv-x="604" 
d="M70 0v700h484v-103h-374v-183h287v-103h-287v-208h377v-103h-487z" />
    <glyph glyph-name="Eacute" unicode="&#xc9;" horiz-adv-x="604" 
d="M353 754h-100l107 168l88 -29zM70 0v700h484v-103h-374v-183h287v-103h-287v-208h377v-103h-487z" />
    <glyph glyph-name="Ecaron" unicode="&#x11a;" horiz-adv-x="604" 
d="M160 867l49 59l106 -79l105 79l50 -59l-155 -118zM70 0v700h484v-103h-374v-183h287v-103h-287v-208h377v-103h-487z" />
    <glyph glyph-name="Ecircumflex" unicode="&#xca;" horiz-adv-x="604" 
d="M466 809l-49 -59l-105 84l-106 -84l-49 60l155 122zM70 0v700h484v-103h-374v-183h287v-103h-287v-208h377v-103h-487z" />
    <glyph glyph-name="Edieresis" unicode="&#xcb;" horiz-adv-x="604" 
d="M216 771c-31 0 -55 25 -55 56c0 30 25 55 56 55c30 0 54 -25 54 -55c0 -31 -25 -56 -55 -56zM413 771c-31 0 -55 25 -55 56c0 30 24 55 55 55s55 -25 55 -55c0 -31 -24 -56 -55 -56zM70 0v700h484v-103h-374v-183h287v-103h-287v-208h377v-103h-487z" />
    <glyph glyph-name="Edotaccent" unicode="&#x116;" horiz-adv-x="604" 
d="M314 771c-30 0 -55 25 -55 56c0 30 25 55 55 55c31 0 56 -25 56 -55c0 -31 -25 -56 -56 -56zM70 0v700h484v-103h-374v-183h287v-103h-287v-208h377v-103h-487z" />
    <glyph glyph-name="Egrave" unicode="&#xc8;" horiz-adv-x="604" 
d="M266 922l106 -168h-100l-94 139zM70 0v700h484v-103h-374v-183h287v-103h-287v-208h377v-103h-487z" />
    <glyph glyph-name="Emacron" unicode="&#x112;" horiz-adv-x="604" 
d="M467 769h-305v92h305v-92zM70 0v700h484v-103h-374v-183h287v-103h-287v-208h377v-103h-487z" />
    <glyph glyph-name="Eogonek" unicode="&#x118;" horiz-adv-x="604" 
d="M488 -93c29 0 61 8 78 17v-81c-18 -9 -53 -17 -87 -17c-77 0 -137 44 -137 111c0 22 6 44 20 63h-292v700h484v-103h-374v-183h287v-103h-287v-208h377v-103h-34c-57 -3 -92 -17 -92 -50c0 -30 22 -43 57 -43z" />
    <glyph glyph-name="F" unicode="F" horiz-adv-x="586" 
d="M549 597h-369v-200h291v-103h-291v-294h-110v700h479v-103z" />
    <glyph glyph-name="G" unicode="G" horiz-adv-x="787" 
d="M732 0h-99c0 67 1 76 1 84h-2c-36 -38 -119 -97 -238 -97c-198 0 -359 145 -359 364c0 218 155 363 362 363c160 0 276 -88 320 -195l-108 -29c-24 44 -86 120 -216 120c-146 0 -247 -101 -247 -259c0 -159 108 -260 256 -260c120 0 201 64 227 108v78h-197v102h300v-379
z" />
    <glyph glyph-name="Gbreve" unicode="&#x11e;" horiz-adv-x="787" 
d="M230 881h82c3 -37 30 -67 83 -67c54 0 81 32 83 67h82c-4 -83 -68 -138 -165 -138c-96 0 -161 54 -165 138zM732 0h-99c0 67 1 76 1 84h-2c-36 -38 -119 -97 -238 -97c-198 0 -359 145 -359 364c0 218 155 363 362 363c160 0 276 -88 320 -195l-108 -29
c-24 44 -86 120 -216 120c-146 0 -247 -101 -247 -259c0 -159 108 -260 256 -260c120 0 201 64 227 108v78h-197v102h300v-379z" />
    <glyph glyph-name="Gcircumflex" unicode="&#x11c;" horiz-adv-x="787" 
d="M547 809l-49 -59l-105 84l-106 -84l-49 60l155 122zM732 0h-99c0 67 1 76 1 84h-2c-36 -38 -119 -97 -238 -97c-198 0 -359 145 -359 364c0 218 155 363 362 363c160 0 276 -88 320 -195l-108 -29c-24 44 -86 120 -216 120c-146 0 -247 -101 -247 -259
c0 -159 108 -260 256 -260c120 0 201 64 227 108v78h-197v102h300v-379z" />
    <glyph glyph-name="Gcommaaccent" unicode="&#x122;" horiz-adv-x="787" 
d="M732 0h-99c0 67 1 76 1 84h-2c-36 -38 -119 -97 -238 -97c-198 0 -359 145 -359 364c0 218 155 363 362 363c160 0 276 -88 320 -195l-108 -29c-24 44 -86 120 -216 120c-146 0 -247 -101 -247 -259c0 -159 108 -260 256 -260c120 0 201 64 227 108v78h-197v102h300v-379
zM393 -116c-28 -4 -47 15 -47 40c0 30 23 49 60 49s62 -20 62 -62c0 -48 -32 -93 -92 -113l-35 40c22 6 46 28 52 46z" />
    <glyph glyph-name="Gdotaccent" unicode="&#x120;" horiz-adv-x="787" 
d="M395 771c-30 0 -55 25 -55 56c0 30 25 55 55 55c31 0 56 -25 56 -55c0 -31 -25 -56 -56 -56zM732 0h-99c0 67 1 76 1 84h-2c-36 -38 -119 -97 -238 -97c-198 0 -359 145 -359 364c0 218 155 363 362 363c160 0 276 -88 320 -195l-108 -29c-24 44 -86 120 -216 120
c-146 0 -247 -101 -247 -259c0 -159 108 -260 256 -260c120 0 201 64 227 108v78h-197v102h300v-379z" />
    <glyph glyph-name="H" unicode="H" horiz-adv-x="707" 
d="M527 0v309h-347v-309h-110v700h110v-285h347v285h110v-700h-110z" />
    <glyph glyph-name="Hbar" unicode="&#x126;" horiz-adv-x="749" 
d="M729 484h-70v-484h-111v281h-347v-281h-110v484h-71v93h71v123h110v-123h347v123h111v-123h70v-93zM548 484h-347v-97h347v97z" />
    <glyph glyph-name="Hcircumflex" unicode="&#x124;" horiz-adv-x="707" 
d="M506 809l-49 -59l-105 84l-105 -84l-50 60l155 122zM527 0v309h-347v-309h-110v700h110v-285h347v285h110v-700h-110z" />
    <glyph glyph-name="I" unicode="I" horiz-adv-x="250" 
d="M70 0v700h110v-700h-110z" />
    <glyph glyph-name="I.ss03" horiz-adv-x="490" 
d="M300 103h129v-103h-368v103h129v494h-129v103h368v-103h-129v-494z" />
    <glyph glyph-name="IJ" unicode="&#x132;" horiz-adv-x="758" 
d="M70 0v700h110v-700h-110zM693 700v-410c0 -194 -87 -303 -253 -303c-76 0 -136 25 -180 76l63 86c31 -40 68 -58 117 -58c106 0 142 71 142 207v402h111z" />
    <glyph glyph-name="IJ.ss03" horiz-adv-x="988" 
d="M300 103h129v-103h-368v103h129v494h-129v103h368v-103h-129v-494zM923 700v-410c0 -194 -86 -303 -253 -303c-76 0 -136 25 -180 76l63 86c32 -40 69 -58 117 -58c106 0 142 71 142 207v402h111z" />
    <glyph glyph-name="IJ.ss03.ss04" horiz-adv-x="988" 
d="M61 700h368v-103h-129v-494h129v-103h-368v103h129v494h-129v103zM923 700v-410c0 -194 -86 -303 -253 -303c-76 0 -136 25 -180 76l63 86c31 -40 69 -58 117 -58c106 0 142 71 142 207v299h-261v103h372z" />
    <glyph glyph-name="IJ.ss04" horiz-adv-x="748" 
d="M70 700h110v-700h-110v700zM683 700v-410c0 -194 -87 -303 -253 -303c-77 0 -136 25 -180 76l63 86c31 -40 68 -58 117 -58c106 0 142 71 142 207v299h-261v103h372z" />
    <glyph glyph-name="Iacute" unicode="&#xcd;" horiz-adv-x="250" 
d="M164 754h-100l107 168l88 -29zM70 0v700h110v-700h-110z" />
    <glyph glyph-name="Iacute.ss03" horiz-adv-x="490" 
d="M284 754h-100l107 168l88 -29zM300 103h129v-103h-368v103h129v494h-129v103h368v-103h-129v-494z" />
    <glyph glyph-name="Iacute_J.loclNLD" horiz-adv-x="758" 
d="M164 754h-100l107 168l88 -29zM680 754h-100l106 168l88 -29zM70 0v700h110v-700h-110zM693 700v-410c0 -194 -87 -303 -253 -303c-76 0 -136 25 -180 76l63 86c31 -40 68 -58 117 -58c106 0 142 71 142 207v402h111z" />
    <glyph glyph-name="Icircumflex" unicode="&#xce;" horiz-adv-x="250" 
d="M249 813l-53 -57l-71 70l-71 -70l-52 57l123 119zM70 0v700h110v-700h-110z" />
    <glyph glyph-name="Icircumflex.ss03" horiz-adv-x="490" 
d="M397 809l-49 -59l-105 84l-106 -84l-49 60l155 122zM300 103h129v-103h-368v103h129v494h-129v103h368v-103h-129v-494z" />
    <glyph glyph-name="Idieresis" unicode="&#xcf;" horiz-adv-x="250" 
d="M56 771c-30 0 -54 25 -54 56c0 30 24 55 56 55c30 0 54 -25 54 -55c0 -31 -25 -56 -56 -56zM194 771c-31 0 -55 25 -55 56c0 30 24 55 55 55s55 -25 55 -55c0 -31 -24 -56 -55 -56zM70 0v700h110v-700h-110z" />
    <glyph glyph-name="Idieresis.ss03" horiz-adv-x="490" 
d="M147 771c-31 0 -55 25 -55 56c0 30 25 55 56 55c30 0 54 -25 54 -55c0 -31 -25 -56 -55 -56zM344 771c-31 0 -55 25 -55 56c0 30 24 55 55 55s55 -25 55 -55c0 -31 -24 -56 -55 -56zM300 103h129v-103h-368v103h129v494h-129v103h368v-103h-129v-494z" />
    <glyph glyph-name="Idotaccent" unicode="&#x130;" horiz-adv-x="250" 
d="M125 771c-30 0 -55 25 -55 56c0 30 25 55 55 55c31 0 56 -25 56 -55c0 -31 -25 -56 -56 -56zM70 0v700h110v-700h-110z" />
    <glyph glyph-name="Idotaccent.ss03" horiz-adv-x="490" 
d="M245 771c-30 0 -55 25 -55 56c0 30 25 55 55 55c31 0 56 -25 56 -55c0 -31 -25 -56 -56 -56zM300 103h129v-103h-368v103h129v494h-129v103h368v-103h-129v-494z" />
    <glyph glyph-name="Igrave" unicode="&#xcc;" horiz-adv-x="250" 
d="M77 922l106 -168h-100l-95 139zM70 0v700h110v-700h-110z" />
    <glyph glyph-name="Igrave.ss03" horiz-adv-x="490" 
d="M197 922l106 -168h-100l-95 139zM300 103h129v-103h-368v103h129v494h-129v103h368v-103h-129v-494z" />
    <glyph glyph-name="Imacron" unicode="&#x12a;" horiz-adv-x="250" 
d="M241 768h-232v92h232v-92zM70 0v700h110v-700h-110z" />
    <glyph glyph-name="Imacron.ss03" horiz-adv-x="508" 
d="M438 774h-368v87h368v-87zM309 103h129v-103h-368v103h129v494h-129v103h368v-103h-129v-494z" />
    <glyph glyph-name="Iogonek" unicode="&#x12e;" horiz-adv-x="250" 
d="M151 -93c22 0 53 8 69 17v-81c-16 -9 -50 -17 -81 -17c-69 0 -125 42 -125 113c0 38 16 79 56 106v655h110v-700c-50 -2 -82 -18 -82 -51c0 -26 18 -42 53 -42z" />
    <glyph glyph-name="Iogonek.ss03" horiz-adv-x="490" 
d="M355 -93c30 0 62 8 79 17v-81c-18 -9 -54 -17 -87 -17c-77 0 -137 44 -137 111c0 22 6 44 20 63h-169v103h129v494h-129v103h368v-103h-129v-494h129v-103h-38c-57 -3 -92 -17 -92 -50c0 -30 22 -43 56 -43z" />
    <glyph glyph-name="J" unicode="J" horiz-adv-x="498" 
d="M433 700v-410c0 -194 -87 -303 -253 -303c-76 0 -136 25 -180 76l63 86c31 -40 68 -58 117 -58c106 0 142 71 142 207v402h111z" />
    <glyph glyph-name="J.ss04" horiz-adv-x="498" 
d="M433 700v-410c0 -194 -87 -303 -253 -303c-77 0 -136 25 -180 76l63 86c31 -40 68 -58 117 -58c106 0 142 71 142 207v299h-261v103h372z" />
    <glyph glyph-name="Jcircumflex" unicode="&#x134;" horiz-adv-x="498" 
d="M533 809l-49 -59l-105 84l-106 -84l-49 60l155 122zM433 700v-410c0 -194 -87 -303 -253 -303c-76 0 -136 25 -180 76l63 86c31 -40 68 -58 117 -58c106 0 142 71 142 207v402h111z" />
    <glyph glyph-name="Jcircumflex.ss04" horiz-adv-x="498" 
d="M138 750l-50 60l155 122l155 -123l-50 -59l-105 84zM433 700v-410c0 -194 -87 -303 -253 -303c-77 0 -136 25 -180 76l63 86c31 -40 68 -58 117 -58c106 0 142 71 142 207v299h-261v103h372z" />
    <glyph glyph-name="K" unicode="K" 
d="M524 0l-234 340l-110 -117v-223h-110v700h110v-210v-137h2l101 111l215 236h132l-258 -281l281 -419h-129z" />
    <glyph glyph-name="Kcommaaccent" unicode="&#x136;" 
d="M653 0h-129l-234 340l-110 -117v-223h-110v700h110v-210v-137h2l101 111l215 236h132l-258 -281zM335 -27c37 0 62 -20 62 -62c0 -48 -32 -93 -92 -113l-35 40c22 6 46 28 52 46c-28 -4 -47 15 -47 40c0 30 24 49 60 49z" />
    <glyph glyph-name="L" unicode="L" horiz-adv-x="566" 
d="M70 0v700h110v-597h351v-103h-461z" />
    <glyph glyph-name="Lacute" unicode="&#x139;" horiz-adv-x="566" 
d="M160 754h-101l107 168l88 -29zM70 0v700h110v-597h351v-103h-461z" />
    <glyph glyph-name="Lcaron" unicode="&#x13d;" horiz-adv-x="566" 
d="M70 0v700h110v-597h351v-103h-461zM376 700h88c1 -62 -25 -156 -46 -196h-80c19 40 38 135 38 196z" />
    <glyph glyph-name="Lcommaaccent" unicode="&#x13b;" horiz-adv-x="566" 
d="M70 0v700h110v-597h351v-103h-461zM275 -116c-29 -4 -47 15 -47 40c0 30 23 49 59 49c37 0 62 -20 62 -62c0 -48 -31 -93 -91 -113l-35 40c21 6 46 28 52 46z" />
    <glyph glyph-name="Ldot" unicode="&#x13f;" horiz-adv-x="566" 
d="M70 0v700h110v-597h351v-103h-461zM398 321c-42 0 -64 27 -64 60s22 59 64 59c43 0 65 -26 65 -59c0 -34 -22 -60 -65 -60z" />
    <glyph glyph-name="Lslash" unicode="&#x141;" horiz-adv-x="566" 
d="M531 103v-103h-461v700h110v-325l262 124v-105l-262 -124v-167h351z" />
    <glyph glyph-name="M" unicode="M" horiz-adv-x="807" 
d="M627 0v267c0 127 2 250 2 251h-2c-1 -1 -30 -59 -83 -153l-108 -192h-64l-108 189c-55 97 -83 155 -84 156h-2c0 -1 2 -124 2 -251v-267h-110v700h117l217 -388h3l217 388h113v-700h-110z" />
    <glyph glyph-name="N" unicode="N" horiz-adv-x="735" 
d="M553 0l-373 519h-2c0 -1 2 -84 2 -172v-347h-110v700h112l372 -512h3c0 1 -2 85 -2 164v348h110v-700h-112z" />
    <glyph glyph-name="N.ss02" horiz-adv-x="735" 
d="M665 0h-110v247l-373 312h-2c-1 0 0 -72 0 -198v-361h-110v700h113l369 -310h3v167v143h110v-700z" />
    <glyph glyph-name="Nacute" unicode="&#x143;" horiz-adv-x="735" 
d="M409 754h-100l106 168l89 -29zM553 0l-373 519h-2c0 -1 2 -84 2 -172v-347h-110v700h112l372 -512h3c0 1 -2 85 -2 164v348h110v-700h-112z" />
    <glyph glyph-name="Nacute.loclPLK" horiz-adv-x="735" 
d="M411 754h-89l60 182l88 -17zM553 0l-373 519h-2c0 -1 2 -84 2 -172v-347h-110v700h112l372 -512h3c0 1 -2 85 -2 164v348h110v-700h-112z" />
    <glyph glyph-name="Nacute.loclPLK.ss02" horiz-adv-x="735" 
d="M412 754h-89l60 182l88 -17zM665 0h-110v247l-373 312h-2c-1 0 0 -72 0 -198v-361h-110v700h113l369 -310h3v167v143h110v-700z" />
    <glyph glyph-name="Nacute.ss02" horiz-adv-x="735" 
d="M410 754h-101l107 168l88 -29zM665 0h-110v247l-373 312h-2c-1 0 0 -72 0 -198v-361h-110v700h113l369 -310h3v167v143h110v-700z" />
    <glyph glyph-name="Ncaron" unicode="&#x147;" horiz-adv-x="735" 
d="M216 867l49 59l106 -79l105 79l49 -59l-154 -118zM553 0l-373 519h-2c0 -1 2 -84 2 -172v-347h-110v700h112l372 -512h3c0 1 -2 85 -2 164v348h110v-700h-112z" />
    <glyph glyph-name="Ncaron.ss02" horiz-adv-x="735" 
d="M216 867l50 59l105 -79l106 79l49 -59l-155 -118zM665 0h-110v247l-373 312h-2c-1 0 0 -72 0 -198v-361h-110v700h113l369 -310h3v167v143h110v-700z" />
    <glyph glyph-name="Ncommaaccent" unicode="&#x145;" horiz-adv-x="735" 
d="M553 0l-373 519h-2c0 -1 2 -84 2 -172v-347h-110v700h112l372 -512h3c0 1 -2 85 -2 164v348h110v-700h-112zM348 -116c-29 -4 -47 15 -47 40c0 30 23 49 60 49c36 0 62 -20 62 -62c0 -48 -32 -93 -92 -113l-35 40c21 6 46 28 52 46z" />
    <glyph glyph-name="Ncommaaccent.ss02" horiz-adv-x="735" 
d="M665 0h-110v247l-373 312h-2c-1 0 0 -72 0 -198v-361h-110v700h113l369 -310h3v167v143h110v-700zM348 -116c-29 -4 -47 15 -47 40c0 30 23 49 60 49c36 0 62 -20 62 -62c0 -48 -32 -93 -92 -113l-35 40c21 6 46 28 52 46z" />
    <glyph glyph-name="Eng" unicode="&#x14a;" horiz-adv-x="735" 
d="M665 700v-700c0 -132 -74 -161 -156 -161h-47v81h36c39 0 61 25 55 80l-373 519h-2c0 -1 2 -84 2 -172v-347h-110v700h112l372 -512h3c0 1 -2 85 -2 164v348h110z" />
    <glyph glyph-name="Eng.ss02" horiz-adv-x="735" 
d="M665 700v-700c0 -132 -79 -161 -177 -161h-26v81h33c42 0 65 21 65 80v266l-196 157c-106 86 -181 147 -182 148h-2c-1 -1 0 -82 0 -210v-361h-110v700h113l220 -177c69 -56 146 -117 149 -119h3v153v143h110z" />
    <glyph glyph-name="Ntilde" unicode="&#xd1;" horiz-adv-x="735" 
d="M515 885l19 -80c-8 -10 -37 -32 -85 -32c-60 0 -96 33 -155 33c-37 0 -64 -16 -76 -28l-20 79c9 11 37 34 87 34c59 0 93 -32 155 -32c37 0 61 14 75 26zM553 0l-373 519h-2c0 -1 2 -84 2 -172v-347h-110v700h112l372 -512h3c0 1 -2 85 -2 164v348h110v-700h-112z" />
    <glyph glyph-name="Ntilde.ss02" horiz-adv-x="735" 
d="M516 885l19 -80c-8 -10 -38 -32 -86 -32c-59 0 -95 33 -154 33c-38 0 -65 -16 -77 -28l-19 79c9 11 36 34 86 34c59 0 94 -32 156 -32c36 0 60 14 75 26zM665 0h-110v247l-373 312h-2c-1 0 0 -72 0 -198v-361h-110v700h113l369 -310h3v167v143h110v-700z" />
    <glyph glyph-name="O" unicode="O" horiz-adv-x="799" 
d="M35 350c0 217 157 364 364 364c208 0 366 -147 366 -364c0 -216 -158 -363 -366 -363c-207 0 -364 147 -364 363zM146 350c0 -159 110 -259 253 -259c144 0 255 99 255 259c0 161 -111 260 -255 260c-143 0 -253 -100 -253 -260z" />
    <glyph glyph-name="Oacute" unicode="&#xd3;" horiz-adv-x="799" 
d="M439 754h-100l107 168l88 -29zM35 350c0 217 157 364 364 364c208 0 366 -147 366 -364c0 -216 -158 -363 -366 -363c-207 0 -364 147 -364 363zM146 350c0 -159 110 -259 253 -259c144 0 255 99 255 259c0 161 -111 260 -255 260c-143 0 -253 -100 -253 -260z" />
    <glyph glyph-name="Oacute.loclPLK" horiz-adv-x="799" 
d="M442 754h-89l60 182l87 -17zM35 350c0 217 157 364 364 364c208 0 366 -147 366 -364c0 -216 -158 -363 -366 -363c-207 0 -364 147 -364 363zM146 350c0 -159 110 -259 253 -259c144 0 255 99 255 259c0 161 -111 260 -255 260c-143 0 -253 -100 -253 -260z" />
    <glyph glyph-name="Ocircumflex" unicode="&#xd4;" horiz-adv-x="799" 
d="M552 809l-49 -59l-105 84l-106 -84l-49 60l155 122zM35 350c0 217 157 364 364 364c208 0 366 -147 366 -364c0 -216 -158 -363 -366 -363c-207 0 -364 147 -364 363zM146 350c0 -159 110 -259 253 -259c144 0 255 99 255 259c0 161 -111 260 -255 260
c-143 0 -253 -100 -253 -260z" />
    <glyph glyph-name="Odieresis" unicode="&#xd6;" horiz-adv-x="799" 
d="M302 771c-31 0 -55 25 -55 56c0 30 25 55 56 55c30 0 54 -25 54 -55c0 -31 -25 -56 -55 -56zM499 771c-31 0 -55 25 -55 56c0 30 24 55 55 55s55 -25 55 -55c0 -31 -24 -56 -55 -56zM35 350c0 217 157 364 364 364c208 0 366 -147 366 -364c0 -216 -158 -363 -366 -363
c-207 0 -364 147 -364 363zM146 350c0 -159 110 -259 253 -259c144 0 255 99 255 259c0 161 -111 260 -255 260c-143 0 -253 -100 -253 -260z" />
    <glyph glyph-name="Ograve" unicode="&#xd2;" horiz-adv-x="799" 
d="M352 922l106 -168h-100l-94 139zM35 350c0 217 157 364 364 364c208 0 366 -147 366 -364c0 -216 -158 -363 -366 -363c-207 0 -364 147 -364 363zM146 350c0 -159 110 -259 253 -259c144 0 255 99 255 259c0 161 -111 260 -255 260c-143 0 -253 -100 -253 -260z" />
    <glyph glyph-name="Ohungarumlaut" unicode="&#x150;" horiz-adv-x="799" 
d="M340 754h-101l107 168l88 -29zM534 754h-100l106 168l89 -29zM35 350c0 217 157 364 364 364c208 0 366 -147 366 -364c0 -216 -158 -363 -366 -363c-207 0 -364 147 -364 363zM146 350c0 -159 110 -259 253 -259c144 0 255 99 255 259c0 161 -111 260 -255 260
c-143 0 -253 -100 -253 -260z" />
    <glyph glyph-name="Omacron" unicode="&#x14c;" horiz-adv-x="799" 
d="M553 769h-305v92h305v-92zM35 350c0 217 157 364 364 364c208 0 366 -147 366 -364c0 -216 -158 -363 -366 -363c-207 0 -364 147 -364 363zM146 350c0 -159 110 -259 253 -259c144 0 255 99 255 259c0 161 -111 260 -255 260c-143 0 -253 -100 -253 -260z" />
    <glyph glyph-name="Oslash" unicode="&#xd8;" horiz-adv-x="799" 
d="M741 709l-77 -100c63 -64 101 -153 101 -259c0 -216 -158 -363 -366 -363c-65 0 -126 15 -178 42l-78 -101l-84 63l77 100c-63 64 -101 153 -101 259c0 217 157 364 364 364c67 0 128 -15 181 -43l77 101zM146 350c0 -70 21 -128 57 -171l311 407c-34 15 -73 24 -115 24
c-143 0 -253 -100 -253 -260zM399 91c144 0 255 99 255 259c0 70 -21 128 -57 171l-311 -406c34 -16 72 -24 113 -24z" />
    <glyph glyph-name="Otilde" unicode="&#xd5;" horiz-adv-x="799" 
d="M546 885l19 -80c-8 -10 -38 -32 -86 -32c-59 0 -96 33 -154 33c-38 0 -65 -16 -77 -28l-19 79c9 11 36 34 86 34c59 0 93 -32 156 -32c36 0 60 14 75 26zM35 350c0 217 157 364 364 364c208 0 366 -147 366 -364c0 -216 -158 -363 -366 -363c-207 0 -364 147 -364 363z
M146 350c0 -159 110 -259 253 -259c144 0 255 99 255 259c0 161 -111 260 -255 260c-143 0 -253 -100 -253 -260z" />
    <glyph glyph-name="OE" unicode="&#x152;" horiz-adv-x="1005" 
d="M955 0h-473c-26 -4 -53 -4 -82 -4c-205 0 -365 140 -365 354s160 354 366 354c17 0 49 1 81 -4h470v-103h-373v-181h291v-103h-291v-210h376v-103zM146 350c0 -159 103 -255 256 -255c29 0 51 4 69 10v492c-18 5 -40 8 -69 8c-153 0 -256 -95 -256 -255z" />
    <glyph glyph-name="P" unicode="P" horiz-adv-x="589" 
d="M70 700h228c166 0 266 -80 266 -226c0 -141 -100 -225 -266 -225h-118v-249h-110v700zM180 346h121c102 0 153 46 153 127c0 84 -55 126 -153 126h-121v-253z" />
    <glyph glyph-name="Thorn" unicode="&#xde;" horiz-adv-x="577" 
d="M180 566h110c165 0 262 -80 262 -218c0 -135 -97 -212 -262 -212h-110v-136h-110v700h110v-134zM180 235h115c96 0 147 40 147 114c0 73 -50 114 -147 114h-115v-228z" />
    <glyph glyph-name="Q" unicode="Q" horiz-adv-x="799" 
d="M765 350c0 -196 -131 -336 -310 -359v-128h-112v128c-179 24 -308 163 -308 359c0 217 157 364 364 364c208 0 366 -147 366 -364zM399 91c143 0 255 99 255 259c0 161 -112 260 -255 260s-253 -100 -253 -260c0 -159 110 -259 253 -259z" />
    <glyph glyph-name="Q.ss01" horiz-adv-x="831" 
d="M794 0h-396c-200 0 -363 149 -363 357c0 213 163 358 363 358s365 -146 365 -355c0 -132 -65 -221 -145 -259l2 -3c1 0 37 5 98 5h76v-103zM145 357c0 -149 107 -253 253 -253s254 104 254 253c0 151 -108 253 -254 253s-253 -102 -253 -253z" />
    <glyph glyph-name="R" unicode="R" horiz-adv-x="616" 
d="M455 0l-150 261c-13 -1 -41 -1 -54 -1h-71v-260h-110v700h231c168 0 268 -85 268 -224c0 -105 -57 -170 -151 -195l169 -281h-132zM180 350h130c89 0 146 34 146 121c0 85 -55 128 -150 128h-126v-249z" />
    <glyph glyph-name="Racute" unicode="&#x154;" horiz-adv-x="616" 
d="M330 754h-101l107 168l88 -29zM455 0l-150 261c-13 -1 -41 -1 -54 -1h-71v-260h-110v700h231c168 0 268 -85 268 -224c0 -105 -57 -170 -151 -195l169 -281h-132zM180 350h130c89 0 146 34 146 121c0 85 -55 128 -150 128h-126v-249z" />
    <glyph glyph-name="Rcaron" unicode="&#x158;" horiz-adv-x="616" 
d="M136 867l50 59l105 -79l106 79l49 -59l-155 -118zM455 0l-150 261c-13 -1 -41 -1 -54 -1h-71v-260h-110v700h231c168 0 268 -85 268 -224c0 -105 -57 -170 -151 -195l169 -281h-132zM180 350h130c89 0 146 34 146 121c0 85 -55 128 -150 128h-126v-249z" />
    <glyph glyph-name="Rcommaaccent" unicode="&#x156;" horiz-adv-x="616" 
d="M455 0l-150 261c-13 -1 -41 -1 -54 -1h-71v-260h-110v700h231c168 0 268 -85 268 -224c0 -105 -57 -170 -151 -195l169 -281h-132zM180 350h130c89 0 146 34 146 121c0 85 -55 128 -150 128h-126v-249zM318 -116c-29 -4 -47 15 -47 40c0 30 23 49 60 49
c36 0 62 -20 62 -62c0 -48 -32 -93 -92 -113l-35 40c21 6 46 28 52 46z" />
    <glyph glyph-name="S" unicode="S" horiz-adv-x="604" 
d="M32 181l106 29c9 -85 82 -125 178 -125c89 0 143 35 143 106c0 99 -105 101 -191 121c-96 22 -216 60 -216 203c0 129 96 199 246 199c135 0 232 -56 266 -177l-105 -28c-19 68 -70 107 -162 107c-90 0 -133 -37 -133 -97c0 -81 81 -98 181 -118
c104 -20 226 -56 226 -210c0 -135 -95 -204 -255 -204c-119 0 -255 38 -284 194z" />
    <glyph glyph-name="Sacute" unicode="&#x15a;" horiz-adv-x="604" 
d="M341 754h-100l106 168l89 -29zM32 181l106 29c9 -85 82 -125 178 -125c89 0 143 35 143 106c0 99 -105 101 -191 121c-96 22 -216 60 -216 203c0 129 96 199 246 199c135 0 232 -56 266 -177l-105 -28c-19 68 -70 107 -162 107c-90 0 -133 -37 -133 -97
c0 -81 81 -98 181 -118c104 -20 226 -56 226 -210c0 -135 -95 -204 -255 -204c-119 0 -255 38 -284 194z" />
    <glyph glyph-name="Sacute.loclPLK" horiz-adv-x="604" 
d="M344 754h-90l60 182l88 -17zM32 181l106 29c9 -85 82 -125 178 -125c89 0 143 35 143 106c0 99 -105 101 -191 121c-96 22 -216 60 -216 203c0 129 96 199 246 199c135 0 232 -56 266 -177l-105 -28c-19 68 -70 107 -162 107c-90 0 -133 -37 -133 -97
c0 -81 81 -98 181 -118c104 -20 226 -56 226 -210c0 -135 -95 -204 -255 -204c-119 0 -255 38 -284 194z" />
    <glyph glyph-name="Scaron" unicode="&#x160;" horiz-adv-x="604" 
d="M148 867l49 59l106 -79l105 79l50 -59l-155 -118zM32 181l106 29c9 -85 82 -125 178 -125c89 0 143 35 143 106c0 99 -105 101 -191 121c-96 22 -216 60 -216 203c0 129 96 199 246 199c135 0 232 -56 266 -177l-105 -28c-19 68 -70 107 -162 107
c-90 0 -133 -37 -133 -97c0 -81 81 -98 181 -118c104 -20 226 -56 226 -210c0 -135 -95 -204 -255 -204c-119 0 -255 38 -284 194z" />
    <glyph glyph-name="Scedilla" unicode="&#x15e;" horiz-adv-x="604" 
d="M571 191c0 -112 -65 -178 -178 -198c30 -14 49 -38 49 -76c0 -57 -43 -91 -132 -91c-35 0 -70 6 -86 14v71c14 -7 39 -12 70 -12c47 0 70 10 70 33c0 27 -36 38 -117 39v21c-98 14 -192 63 -215 189l106 29c9 -85 82 -125 178 -125c89 0 143 35 143 106
c0 99 -105 101 -191 121c-96 22 -216 60 -216 203c0 129 96 199 246 199c135 0 232 -56 266 -177l-105 -28c-19 68 -70 107 -162 107c-90 0 -133 -37 -133 -97c0 -81 81 -98 181 -118c104 -20 226 -56 226 -210z" />
    <glyph glyph-name="Scircumflex" unicode="&#x15c;" horiz-adv-x="604" 
d="M454 809l-49 -59l-105 84l-106 -84l-49 60l155 122zM32 181l106 29c9 -85 82 -125 178 -125c89 0 143 35 143 106c0 99 -105 101 -191 121c-96 22 -216 60 -216 203c0 129 96 199 246 199c135 0 232 -56 266 -177l-105 -28c-19 68 -70 107 -162 107
c-90 0 -133 -37 -133 -97c0 -81 81 -98 181 -118c104 -20 226 -56 226 -210c0 -135 -95 -204 -255 -204c-119 0 -255 38 -284 194z" />
    <glyph glyph-name="Scommaaccent" unicode="&#x218;" horiz-adv-x="604" 
d="M32 181l106 29c9 -85 82 -125 178 -125c89 0 143 35 143 106c0 99 -105 101 -191 121c-96 22 -216 60 -216 203c0 129 96 199 246 199c135 0 232 -56 266 -177l-105 -28c-19 68 -70 107 -162 107c-90 0 -133 -37 -133 -97c0 -81 81 -98 181 -118
c104 -20 226 -56 226 -210c0 -135 -95 -204 -255 -204c-119 0 -255 38 -284 194zM289 -116c-28 -4 -47 15 -47 40c0 30 23 49 60 49s62 -20 62 -62c0 -48 -32 -93 -92 -113l-35 40c22 6 46 28 52 46z" />
    <glyph glyph-name="uni1E9E" unicode="&#x1e9e;" horiz-adv-x="679" 
d="M437 432h6c120 0 209 -85 209 -215c0 -121 -76 -230 -231 -230c-79 0 -131 29 -165 57l48 83c31 -27 67 -40 106 -40c81 0 131 53 131 126c0 72 -48 122 -132 122h-96v89l91 171l-2 3l-58 -1h-164v-597h-110v700h510l-145 -266z" />
    <glyph glyph-name="T" unicode="T" horiz-adv-x="644" 
d="M609 597h-232v-597h-110v597h-232v103h574v-103z" />
    <glyph glyph-name="Tbar" unicode="&#x166;" horiz-adv-x="644" 
d="M377 597v-198h122v-103h-122v-296h-110v296h-123v103h123v198h-232v103h574v-103h-232z" />
    <glyph glyph-name="Tcaron" unicode="&#x164;" horiz-adv-x="644" 
d="M168 867l49 59l106 -79l105 79l50 -59l-155 -118zM609 597h-232v-597h-110v597h-232v103h574v-103z" />
    <glyph glyph-name="Tcedilla" unicode="&#x162;" horiz-adv-x="644" 
d="M377 597v-593c50 -10 85 -35 85 -87c0 -57 -43 -91 -132 -91c-36 0 -70 6 -87 14v71c14 -7 39 -12 71 -12c46 0 69 10 69 33c0 27 -35 38 -116 39v626h-232v103h574v-103h-232z" />
    <glyph glyph-name="uni021A" unicode="&#x21a;" horiz-adv-x="644" 
d="M609 597h-232v-597h-110v597h-232v103h574v-103zM309 -116c-29 -4 -47 15 -47 40c0 30 23 49 60 49c36 0 61 -20 61 -62c0 -48 -31 -93 -91 -113l-35 40c21 6 46 28 52 46z" />
    <glyph glyph-name="U" unicode="U" horiz-adv-x="701" 
d="M638 700v-401c0 -202 -106 -312 -288 -312s-288 110 -288 312v401h112v-400c0 -141 57 -209 177 -209c121 0 178 68 178 209v400h109z" />
    <glyph glyph-name="Uacute" unicode="&#xda;" horiz-adv-x="701" 
d="M392 754h-100l106 168l89 -29zM638 700v-401c0 -202 -106 -312 -288 -312s-288 110 -288 312v401h112v-400c0 -141 57 -209 177 -209c121 0 178 68 178 209v400h109z" />
    <glyph glyph-name="Ubreve" unicode="&#x16c;" horiz-adv-x="701" 
d="M187 881h83c2 -37 30 -67 83 -67c54 0 81 32 82 67h83c-4 -83 -69 -138 -165 -138c-97 0 -161 54 -166 138zM638 700v-401c0 -202 -106 -312 -288 -312s-288 110 -288 312v401h112v-400c0 -141 57 -209 177 -209c121 0 178 68 178 209v400h109z" />
    <glyph glyph-name="Ucircumflex" unicode="&#xdb;" horiz-adv-x="701" 
d="M505 809l-49 -59l-105 84l-106 -84l-49 60l155 122zM638 700v-401c0 -202 -106 -312 -288 -312s-288 110 -288 312v401h112v-400c0 -141 57 -209 177 -209c121 0 178 68 178 209v400h109z" />
    <glyph glyph-name="Udieresis" unicode="&#xdc;" horiz-adv-x="701" 
d="M254 771c-30 0 -54 25 -54 56c0 30 24 55 56 55c30 0 54 -25 54 -55c0 -31 -25 -56 -56 -56zM452 771c-31 0 -56 25 -56 56c0 30 25 55 56 55c30 0 55 -25 55 -55c0 -31 -25 -56 -55 -56zM638 700v-401c0 -202 -106 -312 -288 -312s-288 110 -288 312v401h112v-400
c0 -141 57 -209 177 -209c121 0 178 68 178 209v400h109z" />
    <glyph glyph-name="Ugrave" unicode="&#xd9;" horiz-adv-x="701" 
d="M304 922l107 -168h-100l-95 139zM638 700v-401c0 -202 -106 -312 -288 -312s-288 110 -288 312v401h112v-400c0 -141 57 -209 177 -209c121 0 178 68 178 209v400h109z" />
    <glyph glyph-name="Uhungarumlaut" unicode="&#x170;" horiz-adv-x="701" 
d="M292 754h-100l107 168l88 -29zM487 754h-100l106 168l88 -29zM638 700v-401c0 -202 -106 -312 -288 -312s-288 110 -288 312v401h112v-400c0 -141 57 -209 177 -209c121 0 178 68 178 209v400h109z" />
    <glyph glyph-name="Umacron" unicode="&#x16a;" horiz-adv-x="701" 
d="M506 769h-306v92h306v-92zM638 700v-401c0 -202 -106 -312 -288 -312s-288 110 -288 312v401h112v-400c0 -141 57 -209 177 -209c121 0 178 68 178 209v400h109z" />
    <glyph glyph-name="Uogonek" unicode="&#x172;" horiz-adv-x="696" 
d="M638 700v-401c0 -181 -84 -287 -232 -308c-31 -9 -46 -20 -46 -43c0 -24 20 -40 63 -40c31 0 59 5 78 15v-81c-20 -9 -57 -16 -94 -16c-78 0 -138 44 -138 111c0 19 5 38 16 55c-142 24 -223 130 -223 307v401h112v-400c0 -141 57 -209 177 -209c121 0 178 68 178 209
v400h109z" />
    <glyph glyph-name="Uring" unicode="&#x16e;" horiz-adv-x="701" 
d="M353 736c-67 0 -114 39 -114 103s47 104 114 104s115 -40 115 -104s-48 -103 -115 -103zM353 797c27 0 45 17 45 42c0 26 -18 42 -45 42s-45 -16 -45 -42c0 -25 18 -42 45 -42zM638 700v-401c0 -202 -106 -312 -288 -312s-288 110 -288 312v401h112v-400
c0 -141 57 -209 177 -209c121 0 178 68 178 209v400h109z" />
    <glyph glyph-name="V" unicode="V" horiz-adv-x="703" 
d="M419 0h-135l-269 700h124l132 -356c52 -140 81 -221 82 -223h2c1 2 30 82 81 219l133 360h119z" />
    <glyph glyph-name="W" unicode="W" horiz-adv-x="1004" 
d="M650 0l-95 307c-31 99 -51 177 -52 178h-2c-1 -1 -21 -79 -53 -185l-89 -300h-123l-219 700h123l95 -322c34 -111 68 -224 69 -226h2c1 2 34 113 58 196l78 267h131l78 -268c24 -83 56 -193 57 -195h2c1 2 35 114 67 220l100 328h110l-219 -700h-118z" />
    <glyph glyph-name="Wacute" unicode="&#x1e82;" horiz-adv-x="1004" 
d="M553 754h-100l106 168l89 -29zM650 0l-95 307c-31 99 -51 177 -52 178h-2c-1 -1 -21 -79 -53 -185l-89 -300h-123l-219 700h123l95 -322c34 -111 68 -224 69 -226h2c1 2 34 113 58 196l78 267h131l78 -268c24 -83 56 -193 57 -195h2c1 2 35 114 67 220l100 328h110
l-219 -700h-118z" />
    <glyph glyph-name="Wcircumflex" unicode="&#x174;" horiz-adv-x="1004" 
d="M666 809l-49 -59l-105 84l-106 -84l-49 60l155 122zM650 0l-95 307c-31 99 -51 177 -52 178h-2c-1 -1 -21 -79 -53 -185l-89 -300h-123l-219 700h123l95 -322c34 -111 68 -224 69 -226h2c1 2 34 113 58 196l78 267h131l78 -268c24 -83 56 -193 57 -195h2
c1 2 35 114 67 220l100 328h110l-219 -700h-118z" />
    <glyph glyph-name="Wdieresis" unicode="&#x1e84;" horiz-adv-x="1004" 
d="M416 771c-31 0 -55 25 -55 56c0 30 24 55 56 55c30 0 54 -25 54 -55c0 -31 -25 -56 -55 -56zM613 771c-31 0 -56 25 -56 56c0 30 25 55 56 55c30 0 55 -25 55 -55c0 -31 -25 -56 -55 -56zM650 0l-95 307c-31 99 -51 177 -52 178h-2c-1 -1 -21 -79 -53 -185l-89 -300h-123
l-219 700h123l95 -322c34 -111 68 -224 69 -226h2c1 2 34 113 58 196l78 267h131l78 -268c24 -83 56 -193 57 -195h2c1 2 35 114 67 220l100 328h110l-219 -700h-118z" />
    <glyph glyph-name="Wgrave" unicode="&#x1e80;" horiz-adv-x="1004" 
d="M465 922l107 -168h-100l-95 139zM650 0l-95 307c-31 99 -51 177 -52 178h-2c-1 -1 -21 -79 -53 -185l-89 -300h-123l-219 700h123l95 -322c34 -111 68 -224 69 -226h2c1 2 34 113 58 196l78 267h131l78 -268c24 -83 56 -193 57 -195h2c1 2 35 114 67 220l100 328h110
l-219 -700h-118z" />
    <glyph glyph-name="X" unicode="X" horiz-adv-x="705" 
d="M547 0l-113 158c-55 76 -82 115 -83 115h-1c-1 0 -29 -39 -85 -117l-111 -156h-134l267 363l-249 337h135l109 -151c48 -67 75 -105 76 -105h1c2 0 28 39 73 106l105 150h132l-246 -338l262 -362h-138z" />
    <glyph glyph-name="Y" unicode="Y" horiz-adv-x="676" 
d="M393 295v-295h-111v295l-267 405l128 1l140 -218c32 -49 56 -87 57 -88h2c1 1 24 39 56 87l144 218h119z" />
    <glyph glyph-name="Y.ss05" horiz-adv-x="676" 
d="M435 359h113v-102h-155v-257h-111v257h-154v102h112l-225 341l128 1l140 -218c32 -49 56 -87 57 -88h2c1 1 24 39 56 87l144 218h119z" />
    <glyph glyph-name="Yacute" unicode="&#xdd;" horiz-adv-x="676" 
d="M387 754h-100l107 168l88 -29zM393 295v-295h-111v295l-267 405l128 1l140 -218c32 -49 56 -87 57 -88h2c1 1 24 39 56 87l144 218h119z" />
    <glyph glyph-name="Yacute.ss05" horiz-adv-x="676" 
d="M382 754h-100l107 168l88 -29zM435 359h113v-102h-155v-257h-111v257h-154v102h112l-225 341l128 1l140 -218c32 -49 56 -87 57 -88h2c1 1 24 39 56 87l144 218h119z" />
    <glyph glyph-name="Ycircumflex" unicode="&#x176;" horiz-adv-x="676" 
d="M500 809l-49 -59l-105 84l-106 -84l-49 60l155 122zM393 295v-295h-111v295l-267 405l128 1l140 -218c32 -49 56 -87 57 -88h2c1 1 24 39 56 87l144 218h119z" />
    <glyph glyph-name="Ycircumflex.ss05" horiz-adv-x="676" 
d="M235 750l-49 60l155 122l154 -123l-49 -59l-105 84zM435 359h113v-102h-155v-257h-111v257h-154v102h112l-225 341l128 1l140 -218c32 -49 56 -87 57 -88h2c1 1 24 39 56 87l144 218h119z" />
    <glyph glyph-name="Ydieresis" unicode="&#x178;" horiz-adv-x="676" 
d="M250 771c-31 0 -55 25 -55 56c0 30 25 55 56 55c30 0 54 -25 54 -55c0 -31 -25 -56 -55 -56zM447 771c-31 0 -55 25 -55 56c0 30 24 55 55 55s55 -25 55 -55c0 -31 -24 -56 -55 -56zM393 295v-295h-111v295l-267 405l128 1l140 -218c32 -49 56 -87 57 -88h2
c1 1 24 39 56 87l144 218h119z" />
    <glyph glyph-name="Ydieresis.ss05" horiz-adv-x="676" 
d="M245 771c-31 0 -55 25 -55 56c0 30 25 55 56 55c30 0 54 -25 54 -55c0 -31 -25 -56 -55 -56zM442 771c-31 0 -55 25 -55 56c0 30 24 55 55 55s55 -25 55 -55c0 -31 -24 -56 -55 -56zM435 359h113v-102h-155v-257h-111v257h-154v102h112l-225 341l128 1l140 -218
c32 -49 56 -87 57 -88h2c1 1 24 39 56 87l144 218h119z" />
    <glyph glyph-name="Ygrave" unicode="&#x1ef2;" horiz-adv-x="676" 
d="M300 922l106 -168h-100l-95 139zM393 295v-295h-111v295l-267 405l128 1l140 -218c32 -49 56 -87 57 -88h2c1 1 24 39 56 87l144 218h119z" />
    <glyph glyph-name="Ygrave.ss05" horiz-adv-x="676" 
d="M301 754l-95 139l89 29l106 -168h-100zM435 359h113v-102h-155v-257h-111v257h-154v102h112l-225 341l128 1l140 -218c32 -49 56 -87 57 -88h2c1 1 24 39 56 87l144 218h119z" />
    <glyph glyph-name="Z" unicode="Z" horiz-adv-x="658" 
d="M618 594l-355 -403c-54 -61 -81 -86 -81 -87l1 -3c1 0 39 2 93 2h342v-103h-578v102l367 414c47 53 74 78 74 79l-2 3c-1 0 -39 -1 -89 -1h-340v103h568v-106z" />
    <glyph glyph-name="Zacute" unicode="&#x179;" horiz-adv-x="658" 
d="M374 754h-100l106 168l89 -29zM618 594l-355 -403c-54 -61 -81 -86 -81 -87l1 -3c1 0 39 2 93 2h342v-103h-578v102l367 414c47 53 74 78 74 79l-2 3c-1 0 -39 -1 -89 -1h-340v103h568v-106z" />
    <glyph glyph-name="Zacute.loclPLK" horiz-adv-x="658" 
d="M377 754h-90l60 182l88 -17zM618 594l-355 -403c-54 -61 -81 -86 -81 -87l1 -3c1 0 39 2 93 2h342v-103h-578v102l367 414c47 53 74 78 74 79l-2 3c-1 0 -39 -1 -89 -1h-340v103h568v-106z" />
    <glyph glyph-name="Zcaron" unicode="&#x17d;" horiz-adv-x="658" 
d="M181 867l49 59l106 -79l105 79l50 -59l-155 -118zM618 594l-355 -403c-54 -61 -81 -86 -81 -87l1 -3c1 0 39 2 93 2h342v-103h-578v102l367 414c47 53 74 78 74 79l-2 3c-1 0 -39 -1 -89 -1h-340v103h568v-106z" />
    <glyph glyph-name="Zdotaccent" unicode="&#x17b;" horiz-adv-x="658" 
d="M335 771c-31 0 -55 25 -55 56c0 30 24 55 55 55s55 -25 55 -55c0 -31 -24 -56 -55 -56zM618 594l-355 -403c-54 -61 -81 -86 -81 -87l1 -3c1 0 39 2 93 2h342v-103h-578v102l367 414c47 53 74 78 74 79l-2 3c-1 0 -39 -1 -89 -1h-340v103h568v-106z" />
    <glyph glyph-name="a" unicode="a" horiz-adv-x="605" 
d="M427 132h-251l-49 -132h-107l219 560h127l219 -560h-109zM394 223l-40 107c-36 96 -50 141 -51 142h-3l-54 -148l-37 -101h185z" />
    <glyph glyph-name="aacute" unicode="&#xe1;" horiz-adv-x="605" 
d="M343 614h-101l107 168l88 -29zM427 132h-251l-49 -132h-107l219 560h127l219 -560h-109zM394 223l-40 107c-36 96 -50 141 -51 142h-3l-54 -148l-37 -101h185z" />
    <glyph glyph-name="abreve" unicode="&#x103;" horiz-adv-x="605" 
d="M303 603c-96 0 -161 54 -165 138h82c3 -37 30 -67 83 -67c54 0 81 32 83 67h82c-4 -83 -68 -138 -165 -138zM427 132h-251l-49 -132h-107l219 560h127l219 -560h-109zM394 223l-40 107c-36 96 -50 141 -51 142h-3l-54 -148l-37 -101h185z" />
    <glyph glyph-name="acircumflex" unicode="&#xe2;" horiz-adv-x="605" 
d="M233 616l-53 57l124 119l123 -119l-52 -57l-71 70zM427 132h-251l-49 -132h-107l219 560h127l219 -560h-109zM394 223l-40 107c-36 96 -50 141 -51 142h-3l-54 -148l-37 -101h185z" />
    <glyph glyph-name="adieresis" unicode="&#xe4;" horiz-adv-x="605" 
d="M205 631c-31 0 -55 25 -55 56c0 30 25 55 56 55c30 0 54 -25 54 -55c0 -31 -24 -56 -55 -56zM402 631c-31 0 -55 25 -55 56c0 30 24 55 55 55s56 -25 56 -55c0 -31 -25 -56 -56 -56zM427 132h-251l-49 -132h-107l219 560h127l219 -560h-109zM394 223l-40 107
c-36 96 -50 141 -51 142h-3l-54 -148l-37 -101h185z" />
    <glyph glyph-name="agrave" unicode="&#xe0;" horiz-adv-x="605" 
d="M261 614l-94 139l88 29l107 -168h-101zM427 132h-251l-49 -132h-107l219 560h127l219 -560h-109zM394 223l-40 107c-36 96 -50 141 -51 142h-3l-54 -148l-37 -101h185z" />
    <glyph glyph-name="amacron" unicode="&#x101;" horiz-adv-x="605" 
d="M456 629h-305v92h305v-92zM427 132h-251l-49 -132h-107l219 560h127l219 -560h-109zM394 223l-40 107c-36 96 -50 141 -51 142h-3l-54 -148l-37 -101h185z" />
    <glyph glyph-name="aogonek" unicode="&#x105;" horiz-adv-x="605" 
d="M400 -50c0 -31 32 -41 71 -41c35 0 73 5 98 16v-81c-24 -10 -64 -18 -107 -18c-74 0 -153 32 -153 120c0 50 30 111 140 128l-22 58h-251l-49 -132h-107l219 560h127l219 -560h-53c-101 0 -132 -20 -132 -50zM394 223l-40 107c-36 96 -50 141 -51 142h-3l-54 -148
l-37 -101h185z" />
    <glyph glyph-name="aring" unicode="&#xe5;" horiz-adv-x="605" 
d="M304 596c-68 0 -115 39 -115 103s47 104 115 104c67 0 114 -40 114 -104s-47 -103 -114 -103zM304 741c-27 0 -45 -16 -45 -42c0 -25 18 -42 45 -42s45 17 45 42c0 26 -18 42 -45 42zM427 132h-251l-49 -132h-107l219 560h127l219 -560h-109zM394 223l-40 107
c-36 96 -50 141 -51 142h-3l-54 -148l-37 -101h185z" />
    <glyph glyph-name="atilde" unicode="&#xe3;" horiz-adv-x="605" 
d="M235 666c-32 0 -56 -16 -67 -28l-20 80c8 11 36 33 77 33c54 0 85 -32 140 -32c33 0 54 15 66 26l20 -81c-7 -10 -37 -31 -76 -31c-55 0 -88 33 -140 33zM427 132h-251l-49 -132h-107l219 560h127l219 -560h-109zM394 223l-40 107c-36 96 -50 141 -51 142h-3l-54 -148
l-37 -101h185z" />
    <glyph glyph-name="ae" unicode="&#xe6;" horiz-adv-x="823" 
d="M776 98v-98h-409v127h-193l-47 -127h-107l221 560h530v-98h-304v-128h229v-93h-229v-143h309zM367 217v249h-68l-92 -249h160z" />
    <glyph glyph-name="b" unicode="b" horiz-adv-x="547" 
d="M396 300v-4c57 -13 118 -55 118 -137c0 -87 -67 -159 -201 -159h-243v560h237c103 0 173 -67 173 -143c0 -71 -45 -105 -84 -117zM175 330h112c47 0 88 24 88 72c0 39 -30 70 -87 70h-113v-142zM175 88h133c59 0 97 29 97 78c0 51 -41 82 -99 82h-131v-160z" />
    <glyph glyph-name="c" unicode="c" horiz-adv-x="639" 
d="M501 179l100 -27c-46 -97 -140 -163 -267 -163c-174 0 -299 122 -299 290s125 292 298 292c117 0 220 -56 266 -165l-100 -27c-15 23 -59 96 -165 96c-114 0 -193 -80 -193 -195c0 -117 81 -195 192 -195c82 0 138 42 168 94z" />
    <glyph glyph-name="cacute" unicode="&#x107;" horiz-adv-x="639" 
d="M369 614h-100l106 168l88 -29zM501 179l100 -27c-46 -97 -140 -163 -267 -163c-174 0 -299 122 -299 290s125 292 298 292c117 0 220 -56 266 -165l-100 -27c-15 23 -59 96 -165 96c-114 0 -193 -80 -193 -195c0 -117 81 -195 192 -195c82 0 138 42 168 94z" />
    <glyph glyph-name="cacute.loclPLK" horiz-adv-x="639" 
d="M371 614h-89l60 182l88 -17zM501 179l100 -27c-46 -97 -140 -163 -267 -163c-174 0 -299 122 -299 290s125 292 298 292c117 0 220 -56 266 -165l-100 -27c-15 23 -59 96 -165 96c-114 0 -193 -80 -193 -195c0 -117 81 -195 192 -195c82 0 138 42 168 94z" />
    <glyph glyph-name="ccaron" unicode="&#x10d;" horiz-adv-x="639" 
d="M176 727l49 59l105 -79l106 79l49 -59l-155 -118zM501 179l100 -27c-46 -97 -140 -163 -267 -163c-174 0 -299 122 -299 290s125 292 298 292c117 0 220 -56 266 -165l-100 -27c-15 23 -59 96 -165 96c-114 0 -193 -80 -193 -195c0 -117 81 -195 192 -195
c82 0 138 42 168 94z" />
    <glyph glyph-name="ccedilla" unicode="&#xe7;" horiz-adv-x="639" 
d="M501 179l100 -27c-37 -78 -106 -137 -197 -156c36 -13 59 -38 59 -80c0 -57 -43 -91 -133 -91c-35 0 -69 6 -86 14v71c14 -7 39 -12 71 -12c46 0 69 10 69 33c0 27 -36 38 -117 39v25c-138 27 -232 139 -232 284c0 168 125 292 298 292c117 0 220 -56 266 -165l-100 -27
c-15 23 -59 96 -165 96c-114 0 -193 -80 -193 -195c0 -117 81 -195 192 -195c82 0 138 42 168 94z" />
    <glyph glyph-name="ccircumflex" unicode="&#x109;" horiz-adv-x="639" 
d="M482 669l-50 -59l-105 84l-105 -84l-49 60l154 122zM501 179l100 -27c-46 -97 -140 -163 -267 -163c-174 0 -299 122 -299 290s125 292 298 292c117 0 220 -56 266 -165l-100 -27c-15 23 -59 96 -165 96c-114 0 -193 -80 -193 -195c0 -117 81 -195 192 -195
c82 0 138 42 168 94z" />
    <glyph glyph-name="cdotaccent" unicode="&#x10b;" horiz-adv-x="639" 
d="M330 631c-31 0 -55 25 -55 56c0 30 24 55 55 55s55 -25 55 -55c0 -31 -24 -56 -55 -56zM501 179l100 -27c-46 -97 -140 -163 -267 -163c-174 0 -299 122 -299 290s125 292 298 292c117 0 220 -56 266 -165l-100 -27c-15 23 -59 96 -165 96c-114 0 -193 -80 -193 -195
c0 -117 81 -195 192 -195c82 0 138 42 168 94z" />
    <glyph glyph-name="d" unicode="d" horiz-adv-x="621" 
d="M70 560h205c180 0 311 -106 311 -282c0 -177 -131 -278 -308 -278h-208v560zM175 98h102c121 0 203 56 203 180c0 123 -81 184 -206 184h-99v-364z" />
    <glyph glyph-name="eth" unicode="&#xf0;" horiz-adv-x="621" 
d="M70 560h205c180 0 311 -106 311 -282c0 -177 -131 -278 -308 -278h-208v239h-59v93h59v228zM175 98h102c121 0 203 56 203 180c0 123 -81 184 -206 184h-99v-130h160v-93h-160v-141z" />
    <glyph glyph-name="dcaron" unicode="&#x10f;" horiz-adv-x="621" 
d="M139 727l49 59l106 -79l105 79l50 -59l-155 -118zM70 560h205c180 0 311 -106 311 -282c0 -177 -131 -278 -308 -278h-208v560zM175 98h102c121 0 203 56 203 180c0 123 -81 184 -206 184h-99v-364z" />
    <glyph glyph-name="dcroat" unicode="&#x111;" horiz-adv-x="621" 
d="M70 560h205c180 0 311 -106 311 -282c0 -177 -131 -278 -308 -278h-208v239h-59v93h59v228zM175 98h102c121 0 203 56 203 180c0 123 -81 184 -206 184h-99v-130h160v-93h-160v-141z" />
    <glyph glyph-name="e" unicode="e" horiz-adv-x="531" 
d="M70 0v560h409v-98h-304v-128h229v-93h-229v-143h309v-98h-414z" />
    <glyph glyph-name="eacute" unicode="&#xe9;" horiz-adv-x="531" 
d="M315 614h-100l106 168l89 -29zM70 0v560h409v-98h-304v-128h229v-93h-229v-143h309v-98h-414z" />
    <glyph glyph-name="ecaron" unicode="&#x11b;" horiz-adv-x="531" 
d="M122 727l49 59l106 -79l105 79l49 -59l-154 -118zM70 0v560h409v-98h-304v-128h229v-93h-229v-143h309v-98h-414z" />
    <glyph glyph-name="ecircumflex" unicode="&#xea;" horiz-adv-x="531" 
d="M428 669l-49 -59l-105 84l-106 -84l-49 60l155 122zM70 0v560h409v-98h-304v-128h229v-93h-229v-143h309v-98h-414z" />
    <glyph glyph-name="edieresis" unicode="&#xeb;" horiz-adv-x="531" 
d="M177 631c-30 0 -54 25 -54 56c0 30 24 55 55 55s55 -25 55 -55c0 -31 -25 -56 -56 -56zM375 631c-32 0 -56 25 -56 56c0 30 24 55 56 55c30 0 55 -25 55 -55c0 -31 -25 -56 -55 -56zM70 0v560h409v-98h-304v-128h229v-93h-229v-143h309v-98h-414z" />
    <glyph glyph-name="edotaccent" unicode="&#x117;" horiz-adv-x="531" 
d="M276 631c-31 0 -55 25 -55 56c0 30 24 55 55 55s55 -25 55 -55c0 -31 -24 -56 -55 -56zM70 0v560h409v-98h-304v-128h229v-93h-229v-143h309v-98h-414z" />
    <glyph glyph-name="egrave" unicode="&#xe8;" horiz-adv-x="531" 
d="M227 782l107 -168h-100l-95 139zM70 0v560h409v-98h-304v-128h229v-93h-229v-143h309v-98h-414z" />
    <glyph glyph-name="emacron" unicode="&#x113;" horiz-adv-x="531" 
d="M429 629h-306v92h306v-92zM70 0v560h409v-98h-304v-128h229v-93h-229v-143h309v-98h-414z" />
    <glyph glyph-name="eogonek" unicode="&#x119;" horiz-adv-x="531" 
d="M484 0h-45c-57 -3 -91 -17 -91 -50c0 -30 21 -43 56 -43c29 0 61 8 78 17v-81c-18 -9 -53 -17 -86 -17c-77 0 -138 44 -138 111c0 22 6 44 20 63h-208v560h409v-98h-304v-128h229v-93h-229v-143h309v-98z" />
    <glyph glyph-name="f" unicode="f" horiz-adv-x="501" 
d="M464 462h-289v-154h213v-98h-213v-210h-105v560h394v-98z" />
    <glyph glyph-name="g" unicode="g" horiz-adv-x="671" 
d="M616 0h-94c0 56 1 66 1 70h-2c-27 -31 -92 -81 -193 -81c-166 0 -293 121 -293 291c0 168 125 291 298 291c111 0 219 -51 267 -165l-96 -26c-26 50 -85 96 -170 96c-114 0 -193 -75 -193 -196c0 -117 80 -196 206 -196c80 0 151 40 174 71v58h-161v93h256v-306z" />
    <glyph glyph-name="gbreve" unicode="&#x11f;" horiz-adv-x="671" 
d="M162 741h82c3 -37 30 -67 83 -67c54 0 81 32 83 67h82c-4 -83 -68 -138 -165 -138c-96 0 -161 54 -165 138zM616 0h-94c0 56 1 66 1 70h-2c-27 -31 -92 -81 -193 -81c-166 0 -293 121 -293 291c0 168 125 291 298 291c111 0 219 -51 267 -165l-96 -26
c-26 50 -85 96 -170 96c-114 0 -193 -75 -193 -196c0 -117 80 -196 206 -196c80 0 151 40 174 71v58h-161v93h256v-306z" />
    <glyph glyph-name="gcircumflex" unicode="&#x11d;" horiz-adv-x="671" 
d="M479 669l-49 -59l-105 84l-106 -84l-49 60l155 122zM616 0h-94c0 56 1 66 1 70h-2c-27 -31 -92 -81 -193 -81c-166 0 -293 121 -293 291c0 168 125 291 298 291c111 0 219 -51 267 -165l-96 -26c-26 50 -85 96 -170 96c-114 0 -193 -75 -193 -196
c0 -117 80 -196 206 -196c80 0 151 40 174 71v58h-161v93h256v-306z" />
    <glyph glyph-name="gcommaaccent" unicode="&#x123;" horiz-adv-x="671" 
d="M616 0h-94c0 56 1 66 1 70h-2c-27 -31 -92 -81 -193 -81c-166 0 -293 121 -293 291c0 168 125 291 298 291c111 0 219 -51 267 -165l-96 -26c-26 50 -85 96 -170 96c-114 0 -193 -75 -193 -196c0 -117 80 -196 206 -196c80 0 151 40 174 71v58h-161v93h256v-306z
M337 -116c-28 -4 -47 15 -47 40c0 30 23 49 60 49s62 -20 62 -62c0 -48 -32 -93 -92 -113l-35 40c22 6 46 28 52 46z" />
    <glyph glyph-name="gdotaccent" unicode="&#x121;" horiz-adv-x="671" 
d="M327 631c-30 0 -55 25 -55 56c0 30 25 55 55 55c31 0 56 -25 56 -55c0 -31 -25 -56 -56 -56zM616 0h-94c0 56 1 66 1 70h-2c-27 -31 -92 -81 -193 -81c-166 0 -293 121 -293 291c0 168 125 291 298 291c111 0 219 -51 267 -165l-96 -26c-26 50 -85 96 -170 96
c-114 0 -193 -75 -193 -196c0 -117 80 -196 206 -196c80 0 151 40 174 71v58h-161v93h256v-306z" />
    <glyph glyph-name="h" unicode="h" horiz-adv-x="618" 
d="M548 0h-105v236h-268v-236h-105v560h105v-226h268v226h105v-560z" />
    <glyph glyph-name="hbar" unicode="&#x127;" horiz-adv-x="640" 
d="M618 395h-59v-395h-105v239h-268v-239h-105v395h-59v83h59v82h105v-82h268v82h105v-82h59v-83zM454 395h-268v-62h268v62z" />
    <glyph glyph-name="hcircumflex" unicode="&#x125;" horiz-adv-x="618" 
d="M461 669l-49 -59l-105 84l-106 -84l-49 60l155 122zM548 0h-105v236h-268v-236h-105v560h105v-226h268v226h105v-560z" />
    <glyph glyph-name="i" unicode="i" horiz-adv-x="244" 
d="M70 0v560h105v-560h-105z" />
    <glyph glyph-name="i.ss03" horiz-adv-x="438" 
d="M271 98h106v-98h-316v98h105v364h-105v98h316v-98h-106v-364z" />
    <glyph glyph-name="dotlessi" unicode="&#x131;" horiz-adv-x="244" 
d="M70 0v560h105v-560h-105z" />
    <glyph glyph-name="dotlessi.ss03" horiz-adv-x="438" 
d="M271 98h106v-98h-316v98h105v364h-105v98h316v-98h-106v-364z" />
    <glyph glyph-name="iacute" unicode="&#xed;" horiz-adv-x="244" 
d="M162 614h-100l107 168l88 -29zM70 0v560h105v-560h-105z" />
    <glyph glyph-name="iacute.ss03" horiz-adv-x="438" 
d="M255 614h-101l107 168l88 -29zM271 98h106v-98h-316v98h105v364h-105v98h316v-98h-106v-364z" />
    <glyph glyph-name="iacute_j.loclNLD" horiz-adv-x="685" 
d="M162 614h-100l107 168l88 -29zM608 614h-101l107 168l88 -29zM70 560h105v-560h-105v560zM516 560h104v-323c0 -160 -75 -248 -217 -248c-67 0 -117 19 -154 59l58 76c24 -27 55 -39 95 -39c86 0 114 53 114 157v318z" />
    <glyph glyph-name="icircumflex" unicode="&#xee;" horiz-adv-x="244" 
d="M246 673l-52 -57l-71 70l-71 -70l-52 57l123 119zM70 0v560h105v-560h-105z" />
    <glyph glyph-name="icircumflex.ss03" horiz-adv-x="438" 
d="M368 669l-50 -59l-105 84l-105 -84l-50 60l155 122zM271 98h106v-98h-316v98h105v364h-105v98h316v-98h-106v-364z" />
    <glyph glyph-name="idieresis" unicode="&#xef;" horiz-adv-x="244" 
d="M54 631c-30 0 -54 25 -54 56c0 30 24 55 55 55s55 -25 55 -55c0 -31 -25 -56 -56 -56zM192 631c-31 0 -55 25 -55 56c0 30 24 55 55 55s55 -25 55 -55c0 -31 -24 -56 -55 -56zM70 0v560h105v-560h-105z" />
    <glyph glyph-name="idieresis.ss03" horiz-adv-x="438" 
d="M117 631c-31 0 -55 25 -55 56c0 30 25 55 56 55c30 0 54 -25 54 -55c0 -31 -24 -56 -55 -56zM314 631c-31 0 -55 25 -55 56c0 30 24 55 55 55s56 -25 56 -55c0 -31 -25 -56 -56 -56zM271 98h106v-98h-316v98h105v364h-105v98h316v-98h-106v-364z" />
    <glyph glyph-name="i.loclTRK" horiz-adv-x="244" 
d="M123 631c-30 0 -55 25 -55 56c0 30 25 55 55 55c31 0 56 -25 56 -55c0 -31 -25 -56 -56 -56zM70 0v560h105v-560h-105z" />
    <glyph glyph-name="i.loclTRK.ss03" horiz-adv-x="438" 
d="M216 631c-31 0 -56 25 -56 56c0 30 25 55 56 55c30 0 55 -25 55 -55c0 -31 -25 -56 -55 -56zM271 98h106v-98h-316v98h105v364h-105v98h316v-98h-106v-364z" />
    <glyph glyph-name="igrave" unicode="&#xec;" horiz-adv-x="244" 
d="M74 782l107 -168h-100l-95 139zM70 0v560h105v-560h-105z" />
    <glyph glyph-name="igrave.ss03" horiz-adv-x="438" 
d="M167 782l107 -168h-101l-94 139zM271 98h106v-98h-316v98h105v364h-105v98h316v-98h-106v-364z" />
    <glyph glyph-name="ij" unicode="&#x133;" horiz-adv-x="685" 
d="M70 0v560h105v-560h-105zM620 560v-323c0 -160 -75 -248 -217 -248c-67 0 -117 19 -154 59l58 76c24 -27 55 -39 95 -39c86 0 114 53 114 157v318h104z" />
    <glyph glyph-name="ij.ss03" horiz-adv-x="873" 
d="M271 98h106v-98h-316v98h105v364h-105v98h316v-98h-106v-364zM808 560v-323c0 -160 -74 -248 -217 -248c-67 0 -116 19 -153 59l57 76c25 -27 55 -39 95 -39c87 0 114 53 114 157v318h104z" />
    <glyph glyph-name="ij.ss03.ss04" horiz-adv-x="873" 
d="M61 560h316v-98h-106v-364h106v-98h-316v98h105v364h-105v98zM808 560v-323c0 -160 -74 -248 -217 -248c-67 0 -116 19 -153 59l57 76c25 -27 55 -39 95 -39c87 0 114 53 114 157v220h-204v98h308z" />
    <glyph glyph-name="ij.ss04" horiz-adv-x="680" 
d="M70 560h105v-560h-105v560zM615 560v-323c0 -160 -75 -248 -217 -248c-67 0 -117 19 -154 59l58 76c25 -27 55 -39 95 -39c86 0 114 53 114 157v220h-204v98h308z" />
    <glyph glyph-name="imacron" unicode="&#x12b;" horiz-adv-x="244" 
d="M239 628h-232v92h232v-92zM70 0v560h105v-560h-105z" />
    <glyph glyph-name="imacron.ss03" horiz-adv-x="455" 
d="M386 629h-316v92h316v-92zM280 98h106v-98h-316v98h105v364h-105v98h316v-98h-106v-364z" />
    <glyph glyph-name="iogonek" unicode="&#x12f;" horiz-adv-x="244" 
d="M136 -93c22 0 53 8 69 17v-81c-16 -9 -50 -17 -81 -17c-69 0 -125 42 -125 113c0 43 19 89 71 114v507h105v-560h-10c-50 -2 -82 -18 -82 -51c0 -26 18 -42 53 -42z" />
    <glyph glyph-name="iogonek.ss03" horiz-adv-x="438" 
d="M271 462v-364h106v-98h-44c-57 -3 -92 -17 -92 -50c0 -30 22 -43 57 -43c29 0 61 8 78 17v-81c-18 -9 -53 -17 -86 -17c-78 0 -138 44 -138 111c0 22 6 44 20 63h-111v98h105v364h-105v98h316v-98h-106z" />
    <glyph glyph-name="j" unicode="j" horiz-adv-x="435" 
d="M371 560v-323c0 -160 -75 -248 -217 -248c-67 0 -117 19 -154 59l57 76c25 -27 55 -39 96 -39c86 0 113 53 113 157v318h105z" />
    <glyph glyph-name="j.ss04" horiz-adv-x="435" 
d="M371 560v-323c0 -160 -75 -248 -217 -248c-67 0 -117 19 -154 59l57 76c25 -27 56 -39 96 -39c86 0 113 53 113 157v220h-204v98h309z" />
    <glyph glyph-name="dotlessj" unicode="&#x237;" horiz-adv-x="435" 
d="M371 560v-323c0 -160 -75 -248 -217 -248c-67 0 -117 19 -154 59l57 76c25 -27 55 -39 96 -39c86 0 113 53 113 157v318h105z" />
    <glyph glyph-name="dotlessj.ss04" horiz-adv-x="435" 
d="M371 560v-323c0 -160 -75 -248 -217 -248c-67 0 -117 19 -154 59l57 76c25 -27 56 -39 96 -39c86 0 113 53 113 157v220h-204v98h309z" />
    <glyph glyph-name="jcircumflex" unicode="&#x135;" horiz-adv-x="435" 
d="M471 669l-49 -59l-105 84l-106 -84l-49 60l155 122zM371 560v-323c0 -160 -75 -248 -217 -248c-67 0 -117 19 -154 59l57 76c25 -27 55 -39 96 -39c86 0 113 53 113 157v318h105z" />
    <glyph glyph-name="jcircumflex.ss04" horiz-adv-x="435" 
d="M101 610l-49 60l155 122l154 -123l-49 -59l-105 84zM371 560v-323c0 -160 -75 -248 -217 -248c-67 0 -117 19 -154 59l57 76c25 -27 56 -39 96 -39c86 0 113 53 113 157v220h-204v98h309z" />
    <glyph glyph-name="k" unicode="k" horiz-adv-x="591" 
d="M455 0l-183 268l-97 -102v-166h-105v560h105v-146l-1 -124h3c14 14 36 38 67 71l185 199h131l-211 -222l227 -338h-121z" />
    <glyph glyph-name="kcommaaccent" unicode="&#x137;" horiz-adv-x="591" 
d="M576 0h-121l-183 268l-97 -102v-166h-105v560h105v-146l-1 -124h3c14 14 36 38 67 71l185 199h131l-211 -222zM306 -27c36 0 62 -20 62 -62c0 -48 -32 -93 -92 -113l-35 40c21 6 46 28 52 46c-29 -4 -47 15 -47 40c0 30 23 49 60 49z" />
    <glyph glyph-name="l" unicode="l" horiz-adv-x="486" 
d="M70 0v560h105v-462h276v-98h-381z" />
    <glyph glyph-name="lacute" unicode="&#x13a;" horiz-adv-x="486" 
d="M178 614h-100l106 168l88 -29zM70 0v560h105v-462h276v-98h-381z" />
    <glyph glyph-name="lcaron" unicode="&#x13e;" horiz-adv-x="486" 
d="M70 0v560h105v-462h276v-98h-381zM296 560h88c1 -62 -25 -156 -46 -196h-80c19 40 38 135 38 196z" />
    <glyph glyph-name="lcommaaccent" unicode="&#x13c;" horiz-adv-x="486" 
d="M70 0v560h105v-462h276v-98h-381zM248 -116c-29 -4 -47 15 -47 40c0 30 23 49 60 49c36 0 61 -20 61 -62c0 -48 -31 -93 -91 -113l-35 40c21 6 46 28 52 46z" />
    <glyph glyph-name="ldot" unicode="&#x140;" horiz-adv-x="486" 
d="M70 0v560h105v-462h276v-98h-381zM363 240c-41 0 -62 28 -62 61s21 59 62 59c40 0 61 -26 61 -59c0 -34 -21 -61 -61 -61z" />
    <glyph glyph-name="lslash" unicode="&#x142;" horiz-adv-x="486" 
d="M451 98v-98h-381v560h105v-248l194 91v-99l-194 -91v-115h276z" />
    <glyph glyph-name="m" unicode="m" horiz-adv-x="709" 
d="M534 0v267l1 139h-3l-144 -271h-69l-146 277h-2c0 -1 1 -88 1 -139v-273h-102v560h128l103 -188c36 -65 56 -108 57 -108h3c2 0 23 43 59 109l101 187h118v-560h-105z" />
    <glyph glyph-name="n" unicode="n" horiz-adv-x="639" 
d="M569 0h-108l-285 399h-3c0 -1 2 -61 2 -127v-272h-105v560h108l285 -391h2c0 1 -1 56 -1 115v276h105v-560z" />
    <glyph glyph-name="n.ss02" horiz-adv-x="639" 
d="M569 0h-105v195l-287 242h-4c0 -1 2 -74 2 -150v-287h-105v560h111l281 -234h2c1 0 0 55 0 102v132h105v-560z" />
    <glyph glyph-name="nacute" unicode="&#x144;" horiz-adv-x="639" 
d="M355 614h-101l107 168l88 -29zM569 0h-108l-285 399h-3c0 -1 2 -61 2 -127v-272h-105v560h108l285 -391h2c0 1 -1 56 -1 115v276h105v-560z" />
    <glyph glyph-name="nacute.loclPLK" horiz-adv-x="639" 
d="M357 614h-89l60 182l88 -17zM569 0h-108l-285 399h-3c0 -1 2 -61 2 -127v-272h-105v560h108l285 -391h2c0 1 -1 56 -1 115v276h105v-560z" />
    <glyph glyph-name="nacute.loclPLK.ss02" horiz-adv-x="639" 
d="M357 614h-89l60 182l88 -17zM569 0h-105v195l-287 242h-4c0 -1 2 -74 2 -150v-287h-105v560h111l281 -234h2c1 0 0 55 0 102v132h105v-560z" />
    <glyph glyph-name="nacute.ss02" horiz-adv-x="639" 
d="M355 614h-101l107 168l88 -29zM569 0h-105v195l-287 242h-4c0 -1 2 -74 2 -150v-287h-105v560h111l281 -234h2c1 0 0 55 0 102v132h105v-560z" />
    <glyph glyph-name="ncaron" unicode="&#x148;" horiz-adv-x="639" 
d="M161 727l50 59l105 -79l106 79l49 -59l-155 -118zM569 0h-108l-285 399h-3c0 -1 2 -61 2 -127v-272h-105v560h108l285 -391h2c0 1 -1 56 -1 115v276h105v-560z" />
    <glyph glyph-name="ncaron.ss02" horiz-adv-x="639" 
d="M161 727l50 59l105 -79l106 79l49 -59l-155 -118zM569 0h-105v195l-287 242h-4c0 -1 2 -74 2 -150v-287h-105v560h111l281 -234h2c1 0 0 55 0 102v132h105v-560z" />
    <glyph glyph-name="ncommaaccent" unicode="&#x146;" horiz-adv-x="639" 
d="M569 0h-108l-285 399h-3c0 -1 2 -61 2 -127v-272h-105v560h108l285 -391h2c0 1 -1 56 -1 115v276h105v-560zM301 -116c-29 -4 -47 15 -47 40c0 30 23 49 60 49c36 0 62 -20 62 -62c0 -48 -32 -93 -92 -113l-35 40c21 6 46 28 52 46z" />
    <glyph glyph-name="ncommaaccent.ss02" horiz-adv-x="639" 
d="M569 0h-105v195l-287 242h-4c0 -1 2 -74 2 -150v-287h-105v560h111l281 -234h2c1 0 0 55 0 102v132h105v-560zM306 -116c-29 -4 -47 15 -47 40c0 30 23 49 60 49c36 0 62 -20 62 -62c0 -48 -32 -93 -92 -113l-35 40c21 6 46 28 52 46z" />
    <glyph glyph-name="eng" unicode="&#x14b;" horiz-adv-x="639" 
d="M569 560v-560c0 -122 -70 -161 -162 -161h-43v83h40c38 0 60 24 57 78l-285 399h-3c0 -1 2 -61 2 -127v-272h-105v560h108l285 -391h2c0 1 -1 56 -1 115v276h105z" />
    <glyph glyph-name="eng.ss02" horiz-adv-x="639" 
d="M569 560v-560c0 -122 -65 -161 -157 -161h-33v78h22c43 0 63 26 63 83v195l-287 242h-4c0 -1 2 -74 2 -150v-287h-105v560h111l281 -234h2c1 0 0 55 0 102v132h105z" />
    <glyph glyph-name="ntilde" unicode="&#xf1;" horiz-adv-x="639" 
d="M443 745l20 -81c-8 -10 -37 -31 -76 -31c-55 0 -88 33 -140 33c-32 0 -56 -16 -67 -28l-20 80c8 11 36 33 77 33c54 0 85 -32 140 -32c33 0 54 14 66 26zM569 0h-108l-285 399h-3c0 -1 2 -61 2 -127v-272h-105v560h108l285 -391h2c0 1 -1 56 -1 115v276h105v-560z" />
    <glyph glyph-name="ntilde.ss02" horiz-adv-x="639" 
d="M443 745l20 -81c-8 -10 -37 -31 -76 -31c-55 0 -88 33 -140 33c-32 0 -56 -16 -67 -28l-20 80c8 11 36 33 77 33c54 0 85 -32 140 -32c33 0 54 15 66 26zM569 0h-105v195l-287 242h-4c0 -1 2 -74 2 -150v-287h-105v560h111l281 -234h2c1 0 0 55 0 102v132h105v-560z" />
    <glyph glyph-name="o" unicode="o" horiz-adv-x="663" 
d="M35 280c0 169 127 291 296 291c170 0 298 -122 298 -291c0 -170 -128 -291 -298 -291c-169 0 -296 121 -296 291zM141 280c0 -116 80 -195 190 -195s191 79 191 195s-81 195 -191 195s-190 -79 -190 -195z" />
    <glyph glyph-name="oacute" unicode="&#xf3;" horiz-adv-x="663" 
d="M371 614h-100l106 168l88 -29zM35 280c0 169 127 291 296 291c170 0 298 -122 298 -291c0 -170 -128 -291 -298 -291c-169 0 -296 121 -296 291zM141 280c0 -116 80 -195 190 -195s191 79 191 195s-81 195 -191 195s-190 -79 -190 -195z" />
    <glyph glyph-name="oacute.loclPLK" horiz-adv-x="663" 
d="M373 614h-89l60 182l88 -17zM35 280c0 169 127 291 296 291c170 0 298 -122 298 -291c0 -170 -128 -291 -298 -291c-169 0 -296 121 -296 291zM141 280c0 -116 80 -195 190 -195s191 79 191 195s-81 195 -191 195s-190 -79 -190 -195z" />
    <glyph glyph-name="ocircumflex" unicode="&#xf4;" horiz-adv-x="663" 
d="M484 669l-50 -59l-105 84l-105 -84l-49 60l154 122zM35 280c0 169 127 291 296 291c170 0 298 -122 298 -291c0 -170 -128 -291 -298 -291c-169 0 -296 121 -296 291zM141 280c0 -116 80 -195 190 -195s191 79 191 195s-81 195 -191 195s-190 -79 -190 -195z" />
    <glyph glyph-name="odieresis" unicode="&#xf6;" horiz-adv-x="663" 
d="M233 631c-30 0 -54 25 -54 56c0 30 24 55 55 55s55 -25 55 -55c0 -31 -25 -56 -56 -56zM431 631c-32 0 -56 25 -56 56c0 30 24 55 56 55c30 0 55 -25 55 -55c0 -31 -25 -56 -55 -56zM35 280c0 169 127 291 296 291c170 0 298 -122 298 -291c0 -170 -128 -291 -298 -291
c-169 0 -296 121 -296 291zM141 280c0 -116 80 -195 190 -195s191 79 191 195s-81 195 -191 195s-190 -79 -190 -195z" />
    <glyph glyph-name="ograve" unicode="&#xf2;" horiz-adv-x="663" 
d="M283 782l107 -168h-100l-95 139zM35 280c0 169 127 291 296 291c170 0 298 -122 298 -291c0 -170 -128 -291 -298 -291c-169 0 -296 121 -296 291zM141 280c0 -116 80 -195 190 -195s191 79 191 195s-81 195 -191 195s-190 -79 -190 -195z" />
    <glyph glyph-name="ohungarumlaut" unicode="&#x151;" horiz-adv-x="663" 
d="M271 614h-100l106 168l89 -29zM466 614h-101l107 168l88 -29zM35 280c0 169 127 291 296 291c170 0 298 -122 298 -291c0 -170 -128 -291 -298 -291c-169 0 -296 121 -296 291zM141 280c0 -116 80 -195 190 -195s191 79 191 195s-81 195 -191 195s-190 -79 -190 -195z
" />
    <glyph glyph-name="omacron" unicode="&#x14d;" horiz-adv-x="663" 
d="M485 629h-306v92h306v-92zM35 280c0 169 127 291 296 291c170 0 298 -122 298 -291c0 -170 -128 -291 -298 -291c-169 0 -296 121 -296 291zM141 280c0 -116 80 -195 190 -195s191 79 191 195s-81 195 -191 195s-190 -79 -190 -195z" />
    <glyph glyph-name="oslash" unicode="&#xf8;" horiz-adv-x="663" 
d="M606 556l-57 -73c50 -51 80 -122 80 -203c0 -170 -128 -291 -298 -291c-52 0 -100 11 -141 32l-56 -72l-78 59l55 71c-48 51 -76 120 -76 201c0 169 127 291 296 291c51 0 98 -11 139 -31l58 75zM141 280c0 -46 13 -86 35 -118l232 298c-23 10 -49 15 -77 15
c-110 0 -190 -79 -190 -195zM331 85c110 0 191 79 191 195c0 47 -13 88 -37 121l-234 -300c24 -11 51 -16 80 -16z" />
    <glyph glyph-name="otilde" unicode="&#xf5;" horiz-adv-x="663" 
d="M460 745l19 -81c-7 -10 -36 -31 -76 -31c-54 0 -87 33 -140 33c-32 0 -56 -16 -67 -28l-19 80c8 11 36 33 76 33c54 0 85 -32 141 -32c32 0 54 14 66 26zM35 280c0 169 127 291 296 291c170 0 298 -122 298 -291c0 -170 -128 -291 -298 -291c-169 0 -296 121 -296 291z
M141 280c0 -116 80 -195 190 -195s191 79 191 195s-81 195 -191 195s-190 -79 -190 -195z" />
    <glyph glyph-name="oe" unicode="&#x153;" horiz-adv-x="848" 
d="M798 0h-395c-23 -3 -46 -3 -70 -3c-172 0 -298 111 -298 283s126 283 298 283c14 0 43 1 72 -3h388v-98h-304v-128h229v-93h-229v-143h309v-98zM141 280c0 -114 75 -189 193 -189c20 0 38 2 55 5v368c-17 3 -35 5 -55 5c-118 0 -193 -75 -193 -189z" />
    <glyph glyph-name="p" unicode="p" horiz-adv-x="517" 
d="M70 560h198c143 0 225 -73 225 -184c0 -112 -82 -182 -225 -182h-93v-194h-105v560zM175 281h97c76 0 114 37 114 93c0 54 -37 93 -114 93h-97v-186z" />
    <glyph glyph-name="thorn" unicode="&#xfe;" horiz-adv-x="494" 
d="M175 449h71c142 0 223 -59 223 -170c0 -107 -81 -164 -223 -164h-71v-115h-105v560h105v-111zM175 199h74c77 0 113 23 113 78c0 53 -36 78 -113 78h-74v-156z" />
    <glyph glyph-name="q" unicode="q" horiz-adv-x="661" 
d="M629 280c0 -152 -103 -266 -246 -288v-108h-105v109c-142 22 -243 136 -243 287c0 169 127 291 296 291c170 0 298 -122 298 -291zM331 85c110 0 191 79 191 195s-81 195 -191 195s-190 -79 -190 -195s80 -195 190 -195z" />
    <glyph glyph-name="q.ss01" horiz-adv-x="683" 
d="M648 0h-319c-163 0 -294 114 -294 286c0 171 130 284 296 284c165 0 296 -111 296 -277c0 -97 -50 -166 -116 -198l2 -2c1 0 36 5 84 5h51v-98zM141 286c0 -112 81 -190 191 -190s191 78 191 190s-81 188 -191 188s-191 -76 -191 -188z" />
    <glyph glyph-name="r" unicode="r" horiz-adv-x="550" 
d="M407 0l-125 207c-18 -1 -47 -1 -58 -1h-49v-206h-105v560h201c143 0 226 -66 226 -177c0 -86 -49 -137 -115 -156l138 -227h-113zM175 288h101c75 0 114 30 114 89c0 60 -41 88 -114 88h-101v-177z" />
    <glyph glyph-name="racute" unicode="&#x155;" horiz-adv-x="550" 
d="M300 614h-100l106 168l89 -29zM407 0l-125 207c-18 -1 -47 -1 -58 -1h-49v-206h-105v560h201c143 0 226 -66 226 -177c0 -86 -49 -137 -115 -156l138 -227h-113zM175 288h101c75 0 114 30 114 89c0 60 -41 88 -114 88h-101v-177z" />
    <glyph glyph-name="rcaron" unicode="&#x159;" horiz-adv-x="550" 
d="M107 727l49 59l106 -79l105 79l49 -59l-154 -118zM407 0l-125 207c-18 -1 -47 -1 -58 -1h-49v-206h-105v560h201c143 0 226 -66 226 -177c0 -86 -49 -137 -115 -156l138 -227h-113zM175 288h101c75 0 114 30 114 89c0 60 -41 88 -114 88h-101v-177z" />
    <glyph glyph-name="rcommaaccent" unicode="&#x157;" horiz-adv-x="550" 
d="M407 0l-125 207c-18 -1 -47 -1 -58 -1h-49v-206h-105v560h201c143 0 226 -66 226 -177c0 -86 -49 -137 -115 -156l138 -227h-113zM175 288h101c75 0 114 30 114 89c0 60 -41 88 -114 88h-101v-177zM276 -116c-29 -4 -47 15 -47 40c0 30 23 49 60 49c36 0 62 -20 62 -62
c0 -48 -32 -93 -92 -113l-35 40c21 6 46 28 52 46z" />
    <glyph glyph-name="s" unicode="s" horiz-adv-x="513" 
d="M32 140l96 25c7 -52 53 -94 137 -94c66 0 109 26 109 82c0 75 -77 80 -175 101c-71 16 -155 44 -155 154c0 108 79 163 209 163c119 0 198 -47 223 -138l-93 -24c-13 49 -52 79 -124 79c-68 0 -108 -26 -108 -75c0 -58 56 -70 145 -87c72 -14 185 -41 185 -171
c0 -116 -90 -166 -216 -166c-93 0 -209 27 -233 151z" />
    <glyph glyph-name="sacute" unicode="&#x15b;" horiz-adv-x="513" 
d="M297 614h-101l107 168l88 -29zM32 140l96 25c7 -52 53 -94 137 -94c66 0 109 26 109 82c0 75 -77 80 -175 101c-71 16 -155 44 -155 154c0 108 79 163 209 163c119 0 198 -47 223 -138l-93 -24c-13 49 -52 79 -124 79c-68 0 -108 -26 -108 -75c0 -58 56 -70 145 -87
c72 -14 185 -41 185 -171c0 -116 -90 -166 -216 -166c-93 0 -209 27 -233 151z" />
    <glyph glyph-name="sacute.loclPLK" horiz-adv-x="513" 
d="M299 614h-89l60 182l88 -17zM32 140l96 25c7 -52 53 -94 137 -94c66 0 109 26 109 82c0 75 -77 80 -175 101c-71 16 -155 44 -155 154c0 108 79 163 209 163c119 0 198 -47 223 -138l-93 -24c-13 49 -52 79 -124 79c-68 0 -108 -26 -108 -75c0 -58 56 -70 145 -87
c72 -14 185 -41 185 -171c0 -116 -90 -166 -216 -166c-93 0 -209 27 -233 151z" />
    <glyph glyph-name="scaron" unicode="&#x161;" horiz-adv-x="513" 
d="M103 727l50 59l105 -79l106 79l49 -59l-155 -118zM32 140l96 25c7 -52 53 -94 137 -94c66 0 109 26 109 82c0 75 -77 80 -175 101c-71 16 -155 44 -155 154c0 108 79 163 209 163c119 0 198 -47 223 -138l-93 -24c-13 49 -52 79 -124 79c-68 0 -108 -26 -108 -75
c0 -58 56 -70 145 -87c72 -14 185 -41 185 -171c0 -116 -90 -166 -216 -166c-93 0 -209 27 -233 151z" />
    <glyph glyph-name="scedilla" unicode="&#x15f;" horiz-adv-x="513" 
d="M481 155c0 -91 -55 -141 -139 -159c34 -13 56 -38 56 -79c0 -57 -43 -91 -132 -91c-36 0 -70 6 -86 14v71c14 -7 38 -12 70 -12c47 0 69 10 69 33c0 27 -35 38 -116 39v22c-77 12 -152 50 -171 147l96 25c7 -52 53 -94 137 -94c66 0 109 26 109 82c0 75 -77 80 -175 101
c-71 16 -155 44 -155 154c0 108 79 163 209 163c119 0 198 -47 223 -138l-93 -24c-13 49 -52 79 -124 79c-68 0 -108 -26 -108 -75c0 -58 56 -70 145 -87c72 -14 185 -41 185 -171z" />
    <glyph glyph-name="scircumflex" unicode="&#x15d;" horiz-adv-x="513" 
d="M410 669l-50 -59l-105 84l-105 -84l-50 60l155 122zM32 140l96 25c7 -52 53 -94 137 -94c66 0 109 26 109 82c0 75 -77 80 -175 101c-71 16 -155 44 -155 154c0 108 79 163 209 163c119 0 198 -47 223 -138l-93 -24c-13 49 -52 79 -124 79c-68 0 -108 -26 -108 -75
c0 -58 56 -70 145 -87c72 -14 185 -41 185 -171c0 -116 -90 -166 -216 -166c-93 0 -209 27 -233 151z" />
    <glyph glyph-name="scommaaccent" unicode="&#x219;" horiz-adv-x="513" 
d="M32 140l96 25c7 -52 53 -94 137 -94c66 0 109 26 109 82c0 75 -77 80 -175 101c-71 16 -155 44 -155 154c0 108 79 163 209 163c119 0 198 -47 223 -138l-93 -24c-13 49 -52 79 -124 79c-68 0 -108 -26 -108 -75c0 -58 56 -70 145 -87c72 -14 185 -41 185 -171
c0 -116 -90 -166 -216 -166c-93 0 -209 27 -233 151zM245 -116c-29 -4 -47 15 -47 40c0 30 23 49 60 49c36 0 62 -20 62 -62c0 -48 -32 -93 -92 -113l-35 40c21 6 46 28 52 46z" />
    <glyph glyph-name="germandbls" unicode="&#xdf;" horiz-adv-x="591" 
d="M387 346h5c96 0 172 -69 172 -177c0 -102 -68 -182 -187 -182c-64 0 -112 21 -137 46l44 74c18 -16 44 -33 83 -33c60 0 97 41 97 92s-38 90 -103 90h-84v88l65 116l-1 2h-39h-127v-462h-105v560h437l-121 -212z" />
    <glyph glyph-name="germandbls.calt" horiz-adv-x="679" 
d="M437 432h6c120 0 209 -85 209 -215c0 -121 -76 -230 -231 -230c-79 0 -131 29 -165 57l48 83c31 -27 67 -40 106 -40c81 0 131 53 131 126c0 72 -48 122 -132 122h-96v89l91 171l-2 3l-58 -1h-164v-597h-110v700h510l-145 -266z" />
    <glyph glyph-name="t" unicode="t" horiz-adv-x="554" 
d="M519 462h-189v-462h-105v462h-190v98h484v-98z" />
    <glyph glyph-name="tbar" unicode="&#x167;" horiz-adv-x="554" 
d="M330 462v-139h100v-92h-100v-231h-105v231h-101v92h101v139h-190v98h484v-98h-189z" />
    <glyph glyph-name="tcaron" unicode="&#x165;" horiz-adv-x="554" 
d="M120 727l49 59l106 -79l105 79l50 -59l-155 -118zM519 462h-189v-462h-105v462h-190v98h484v-98z" />
    <glyph glyph-name="tcedilla" unicode="&#x163;" horiz-adv-x="554" 
d="M330 462v-457c53 -9 90 -34 90 -88c0 -57 -43 -91 -132 -91c-36 0 -70 6 -86 14v71c13 -7 38 -12 70 -12c46 0 69 10 69 33c0 27 -35 38 -116 39v65v426h-190v98h484v-98h-189z" />
    <glyph glyph-name="uni021B" unicode="&#x21b;" horiz-adv-x="554" 
d="M519 462h-189v-462h-105v462h-190v98h484v-98zM267 -116c-29 -4 -47 15 -47 40c0 30 23 49 60 49c36 0 62 -20 62 -62c0 -48 -32 -93 -92 -113l-35 40c21 6 46 28 52 46z" />
    <glyph glyph-name="u" unicode="u" horiz-adv-x="619" 
d="M557 560v-309c0 -179 -94 -262 -248 -262s-247 83 -247 262v309h107v-319c0 -106 46 -156 142 -156c95 0 142 50 142 156v319h104z" />
    <glyph glyph-name="uacute" unicode="&#xfa;" horiz-adv-x="619" 
d="M351 614h-100l106 168l89 -29zM557 560v-309c0 -179 -94 -262 -248 -262s-247 83 -247 262v309h107v-319c0 -106 46 -156 142 -156c95 0 142 50 142 156v319h104z" />
    <glyph glyph-name="ubreve" unicode="&#x16d;" horiz-adv-x="619" 
d="M146 741h83c2 -37 30 -67 83 -67c54 0 81 32 82 67h83c-4 -83 -69 -138 -165 -138c-97 0 -161 54 -166 138zM557 560v-309c0 -179 -94 -262 -248 -262s-247 83 -247 262v309h107v-319c0 -106 46 -156 142 -156c95 0 142 50 142 156v319h104z" />
    <glyph glyph-name="ucircumflex" unicode="&#xfb;" horiz-adv-x="619" 
d="M464 669l-49 -59l-105 84l-106 -84l-49 60l155 122zM557 560v-309c0 -179 -94 -262 -248 -262s-247 83 -247 262v309h107v-319c0 -106 46 -156 142 -156c95 0 142 50 142 156v319h104z" />
    <glyph glyph-name="udieresis" unicode="&#xfc;" horiz-adv-x="619" 
d="M214 631c-31 0 -55 25 -55 56c0 30 24 55 56 55c30 0 54 -25 54 -55c0 -31 -25 -56 -55 -56zM411 631c-31 0 -56 25 -56 56c0 30 25 55 56 55c30 0 55 -25 55 -55c0 -31 -25 -56 -55 -56zM557 560v-309c0 -179 -94 -262 -248 -262s-247 83 -247 262v309h107v-319
c0 -106 46 -156 142 -156c95 0 142 50 142 156v319h104z" />
    <glyph glyph-name="ugrave" unicode="&#xf9;" horiz-adv-x="619" 
d="M263 782l107 -168h-100l-95 139zM557 560v-309c0 -179 -94 -262 -248 -262s-247 83 -247 262v309h107v-319c0 -106 46 -156 142 -156c95 0 142 50 142 156v319h104z" />
    <glyph glyph-name="uhungarumlaut" unicode="&#x171;" horiz-adv-x="619" 
d="M251 614h-100l107 168l88 -29zM446 614h-100l106 168l88 -29zM557 560v-309c0 -179 -94 -262 -248 -262s-247 83 -247 262v309h107v-319c0 -106 46 -156 142 -156c95 0 142 50 142 156v319h104z" />
    <glyph glyph-name="umacron" unicode="&#x16b;" horiz-adv-x="619" 
d="M465 629h-306v92h306v-92zM557 560v-309c0 -179 -94 -262 -248 -262s-247 83 -247 262v309h107v-319c0 -106 46 -156 142 -156c95 0 142 50 142 156v319h104z" />
    <glyph glyph-name="uogonek" unicode="&#x173;" horiz-adv-x="614" 
d="M557 560v-309c0 -159 -74 -242 -198 -259c-31 -8 -47 -20 -47 -44c0 -25 19 -41 63 -41c34 0 65 7 85 17v-81c-19 -9 -55 -17 -92 -17c-83 0 -147 44 -147 111c0 20 5 40 18 58c-112 23 -177 106 -177 256v309h107v-319c0 -106 46 -156 142 -156c95 0 142 50 142 156v319
h104z" />
    <glyph glyph-name="uring" unicode="&#x16f;" horiz-adv-x="619" 
d="M312 596c-67 0 -114 39 -114 103s47 104 114 104s115 -40 115 -104s-48 -103 -115 -103zM312 657c27 0 45 17 45 42c0 26 -18 42 -45 42s-45 -16 -45 -42c0 -25 18 -42 45 -42zM557 560v-309c0 -179 -94 -262 -248 -262s-247 83 -247 262v309h107v-319
c0 -106 46 -156 142 -156c95 0 142 50 142 156v319h104z" />
    <glyph glyph-name="v" unicode="v" horiz-adv-x="616" 
d="M370 0h-124l-231 560h116l105 -256c50 -126 73 -188 74 -190h3c1 2 23 62 74 189l103 257h112z" />
    <glyph glyph-name="w" unicode="w" horiz-adv-x="839" 
d="M537 0l-66 209c-33 104 -49 161 -50 162h-2c-1 -1 -18 -58 -51 -163l-66 -208h-108l-177 560h112l75 -241c36 -119 53 -181 54 -182h2c1 1 19 63 49 161l61 199h111l59 -199c30 -99 46 -160 47 -161h2c1 1 17 63 55 182l76 241h102l-177 -560h-108z" />
    <glyph glyph-name="wacute" unicode="&#x1e83;" horiz-adv-x="839" 
d="M465 614h-100l106 168l88 -29zM537 0l-66 209c-33 104 -49 161 -50 162h-2c-1 -1 -18 -58 -51 -163l-66 -208h-108l-177 560h112l75 -241c36 -119 53 -181 54 -182h2c1 1 19 63 49 161l61 199h111l59 -199c30 -99 46 -160 47 -161h2c1 1 17 63 55 182l76 241h102
l-177 -560h-108z" />
    <glyph glyph-name="wcircumflex" unicode="&#x175;" horiz-adv-x="839" 
d="M578 669l-50 -59l-105 84l-105 -84l-49 60l154 122zM537 0l-66 209c-33 104 -49 161 -50 162h-2c-1 -1 -18 -58 -51 -163l-66 -208h-108l-177 560h112l75 -241c36 -119 53 -181 54 -182h2c1 1 19 63 49 161l61 199h111l59 -199c30 -99 46 -160 47 -161h2
c1 1 17 63 55 182l76 241h102l-177 -560h-108z" />
    <glyph glyph-name="wdieresis" unicode="&#x1e85;" horiz-adv-x="839" 
d="M327 631c-30 0 -54 25 -54 56c0 30 24 55 55 55s55 -25 55 -55c0 -31 -25 -56 -56 -56zM525 631c-32 0 -56 25 -56 56c0 30 24 55 56 55c30 0 55 -25 55 -55c0 -31 -25 -56 -55 -56zM537 0l-66 209c-33 104 -49 161 -50 162h-2c-1 -1 -18 -58 -51 -163l-66 -208h-108
l-177 560h112l75 -241c36 -119 53 -181 54 -182h2c1 1 19 63 49 161l61 199h111l59 -199c30 -99 46 -160 47 -161h2c1 1 17 63 55 182l76 241h102l-177 -560h-108z" />
    <glyph glyph-name="wgrave" unicode="&#x1e81;" horiz-adv-x="839" 
d="M377 782l107 -168h-100l-95 139zM537 0l-66 209c-33 104 -49 161 -50 162h-2c-1 -1 -18 -58 -51 -163l-66 -208h-108l-177 560h112l75 -241c36 -119 53 -181 54 -182h2c1 1 19 63 49 161l61 199h111l59 -199c30 -99 46 -160 47 -161h2c1 1 17 63 55 182l76 241h102
l-177 -560h-108z" />
    <glyph glyph-name="x" unicode="x" horiz-adv-x="596" 
d="M449 0l-87 117c-47 62 -69 94 -70 94h-1c-1 0 -23 -31 -69 -95l-83 -116h-119l210 287l-194 273h125l71 -100c47 -65 70 -98 71 -98h1c1 0 26 35 73 102l67 96h114l-196 -273l214 -287h-127z" />
    <glyph glyph-name="y" unicode="y" horiz-adv-x="558" 
d="M331 0h-105v218l-211 342h120l80 -129c38 -63 67 -113 68 -114h2c1 1 30 51 70 115l78 128h110l-212 -342v-218z" />
    <glyph glyph-name="y.ss05" horiz-adv-x="558" 
d="M365 273h105v-97h-139v-176h-105v176h-135v97h101l-177 287h120l80 -129c38 -63 67 -113 68 -114h2c1 1 30 51 70 115l78 128h110z" />
    <glyph glyph-name="yacute" unicode="&#xfd;" horiz-adv-x="558" 
d="M327 614h-100l107 168l88 -29zM331 0h-105v218l-211 342h120l80 -129c38 -63 67 -113 68 -114h2c1 1 30 51 70 115l78 128h110l-212 -342v-218z" />
    <glyph glyph-name="yacute.ss05" horiz-adv-x="558" 
d="M327 614h-100l107 168l88 -29zM365 273h105v-97h-139v-176h-105v176h-135v97h101l-177 287h120l80 -129c38 -63 67 -113 68 -114h2c1 1 30 51 70 115l78 128h110z" />
    <glyph glyph-name="ycircumflex" unicode="&#x177;" horiz-adv-x="558" 
d="M440 669l-49 -59l-105 84l-106 -84l-49 60l155 122zM331 0h-105v218l-211 342h120l80 -129c38 -63 67 -113 68 -114h2c1 1 30 51 70 115l78 128h110l-212 -342v-218z" />
    <glyph glyph-name="ycircumflex.ss05" horiz-adv-x="558" 
d="M180 610l-49 60l155 122l154 -123l-49 -59l-105 84zM365 273h105v-97h-139v-176h-105v176h-135v97h101l-177 287h120l80 -129c38 -63 67 -113 68 -114h2c1 1 30 51 70 115l78 128h110z" />
    <glyph glyph-name="ydieresis" unicode="&#xff;" horiz-adv-x="558" 
d="M190 631c-31 0 -55 25 -55 56c0 30 25 55 56 55c30 0 54 -25 54 -55c0 -31 -25 -56 -55 -56zM387 631c-31 0 -55 25 -55 56c0 30 24 55 55 55s55 -25 55 -55c0 -31 -24 -56 -55 -56zM331 0h-105v218l-211 342h120l80 -129c38 -63 67 -113 68 -114h2c1 1 30 51 70 115
l78 128h110l-212 -342v-218z" />
    <glyph glyph-name="ydieresis.ss05" horiz-adv-x="558" 
d="M190 631c-31 0 -55 25 -55 56c0 30 25 55 56 55c30 0 54 -25 54 -55c0 -31 -25 -56 -55 -56zM387 631c-31 0 -55 25 -55 56c0 30 24 55 55 55s55 -25 55 -55c0 -31 -24 -56 -55 -56zM365 273h105v-97h-139v-176h-105v176h-135v97h101l-177 287h120l80 -129
c38 -63 67 -113 68 -114h2c1 1 30 51 70 115l78 128h110z" />
    <glyph glyph-name="ygrave" unicode="&#x1ef3;" horiz-adv-x="558" 
d="M240 782l106 -168h-100l-95 139zM331 0h-105v218l-211 342h120l80 -129c38 -63 67 -113 68 -114h2c1 1 30 51 70 115l78 128h110l-212 -342v-218z" />
    <glyph glyph-name="ygrave.ss05" horiz-adv-x="558" 
d="M246 614l-95 139l89 29l106 -168h-100zM365 273h105v-97h-139v-176h-105v176h-135v97h101l-177 287h120l80 -129c38 -63 67 -113 68 -114h2c1 1 30 51 70 115l78 128h110z" />
    <glyph glyph-name="z" unicode="z" horiz-adv-x="563" 
d="M522 460l-244 -260c-76 -80 -101 -100 -101 -101l1 -2c1 0 34 1 83 1h261v-98h-482v100l258 270c67 69 88 89 88 90l-1 2h-76h-260v98h473v-100z" />
    <glyph glyph-name="zacute" unicode="&#x17a;" horiz-adv-x="563" 
d="M322 614h-101l107 168l88 -29zM522 460l-244 -260c-76 -80 -101 -100 -101 -101l1 -2c1 0 34 1 83 1h261v-98h-482v100l258 270c67 69 88 89 88 90l-1 2h-76h-260v98h473v-100z" />
    <glyph glyph-name="zacute.loclPLK" horiz-adv-x="563" 
d="M324 614h-89l60 182l88 -17zM522 460l-244 -260c-76 -80 -101 -100 -101 -101l1 -2c1 0 34 1 83 1h261v-98h-482v100l258 270c67 69 88 89 88 90l-1 2h-76h-260v98h473v-100z" />
    <glyph glyph-name="zcaron" unicode="&#x17e;" horiz-adv-x="563" 
d="M128 727l50 59l105 -79l106 79l49 -59l-155 -118zM522 460l-244 -260c-76 -80 -101 -100 -101 -101l1 -2c1 0 34 1 83 1h261v-98h-482v100l258 270c67 69 88 89 88 90l-1 2h-76h-260v98h473v-100z" />
    <glyph glyph-name="zdotaccent" unicode="&#x17c;" horiz-adv-x="563" 
d="M283 631c-31 0 -56 25 -56 56c0 30 25 55 56 55c30 0 55 -25 55 -55c0 -31 -25 -56 -55 -56zM522 460l-244 -260c-76 -80 -101 -100 -101 -101l1 -2c1 0 34 1 83 1h261v-98h-482v100l258 270c67 69 88 89 88 90l-1 2h-76h-260v98h473v-100z" />
    <glyph glyph-name="Iacute.ss03_J.loclNLD" horiz-adv-x="988" 
d="M284 754h-100l107 168l88 -29zM910 754h-100l107 168l88 -29zM300 103h129v-103h-368v103h129v494h-129v103h368v-103h-129v-494zM923 700v-410c0 -194 -86 -303 -253 -303c-76 0 -136 25 -180 76l63 86c32 -40 69 -58 117 -58c106 0 142 71 142 207v402h111z" />
    <glyph glyph-name="Iacute.ss03_J.ss04.loclNLD" horiz-adv-x="988" 
d="M284 754h-100l107 168l88 -29zM775 754h-100l106 168l89 -29zM61 700h368v-103h-129v-494h129v-103h-368v103h129v494h-129v103zM923 700v-410c0 -194 -86 -303 -253 -303c-76 0 -136 25 -180 76l63 86c31 -40 69 -58 117 -58c106 0 142 71 142 207v299h-261v103h372z
" />
    <glyph glyph-name="uni00CD004A.ss04.loclNLD" horiz-adv-x="748" 
d="M164 754h-100l107 168l88 -29zM535 754h-100l106 168l88 -29zM70 700h110v-700h-110v700zM683 700v-410c0 -194 -87 -303 -253 -303c-77 0 -136 25 -180 76l63 86c31 -40 68 -58 117 -58c106 0 142 71 142 207v299h-261v103h372z" />
    <glyph glyph-name="iacute.ss03_j.loclNLD" horiz-adv-x="873" 
d="M255 614h-101l107 168l88 -29zM796 614h-100l106 168l88 -29zM271 98h106v-98h-316v98h105v364h-105v98h316v-98h-106v-364zM808 560v-323c0 -160 -74 -248 -217 -248c-67 0 -116 19 -153 59l57 76c25 -27 55 -39 95 -39c87 0 114 53 114 157v318h104z" />
    <glyph glyph-name="iacute.ss03_j.ss04.loclNLD" horiz-adv-x="873" 
d="M255 614h-101l107 168l88 -29zM686 614h-100l106 168l88 -29zM61 560h316v-98h-106v-364h106v-98h-316v98h105v364h-105v98zM808 560v-323c0 -160 -74 -248 -217 -248c-67 0 -116 19 -153 59l57 76c25 -27 55 -39 95 -39c87 0 114 53 114 157v220h-204v98h308z" />
    <glyph glyph-name="uni00ED006A.ss04.loclNLD" horiz-adv-x="680" 
d="M162 614h-100l107 168l88 -29zM493 614h-101l107 168l88 -29zM70 560h105v-560h-105v560zM615 560v-323c0 -160 -75 -248 -217 -248c-67 0 -117 19 -154 59l58 76c25 -27 55 -39 95 -39c86 0 114 53 114 157v220h-204v98h308z" />
    <glyph glyph-name="ordfeminine" unicode="&#xaa;" horiz-adv-x="408" 
d="M104 235h-68l126 325h85l125 -325h-70l-26 70h-146zM150 358h106l-22 58c-18 46 -29 81 -30 81h-2c-1 0 -12 -35 -30 -81zM373 169v-70h-338v70h338z" />
    <glyph glyph-name="ordfeminine.case" horiz-adv-x="408" 
d="M104 375h-68l126 325h85l125 -325h-70l-26 70h-146zM150 498h106l-22 58c-18 46 -29 81 -30 81h-2c-1 0 -12 -35 -30 -81zM373 309v-70h-338v70h338z" />
    <glyph glyph-name="ordmasculine" unicode="&#xba;" horiz-adv-x="415" 
d="M35 398c0 101 77 173 172 173s173 -72 173 -173c0 -99 -78 -172 -173 -172s-172 73 -172 172zM103 398c0 -61 42 -107 104 -107c63 0 104 46 104 107c0 62 -41 108 -104 108c-62 0 -104 -46 -104 -108zM371 98h-326v70h326v-70z" />
    <glyph glyph-name="ordmasculine.case" horiz-adv-x="415" 
d="M35 538c0 101 77 173 172 173s173 -72 173 -173c0 -99 -78 -172 -173 -172s-172 73 -172 172zM103 538c0 -61 42 -107 104 -107c63 0 104 46 104 107c0 62 -41 108 -104 108c-62 0 -104 -46 -104 -108zM371 238h-326v70h326v-70z" />
    <glyph glyph-name="zero" unicode="0" horiz-adv-x="527" 
d="M264 571c141 0 227 -99 227 -291s-86 -291 -227 -291c-142 0 -228 99 -228 291s86 291 228 291zM264 475c-85 0 -123 -62 -123 -195c0 -132 38 -195 123 -195c84 0 122 63 122 195c0 133 -38 195 -122 195z" />
    <glyph glyph-name="one" unicode="1" horiz-adv-x="360" 
d="M180 0v336c0 44 5 103 4 103h-2c-1 0 -26 -31 -39 -42l-47 -47l-61 75l152 135h98v-560h-105z" />
    <glyph glyph-name="two" unicode="2" horiz-adv-x="497" 
d="M47 0v114l199 147c68 52 101 86 101 133c0 48 -33 88 -104 88c-66 0 -98 -38 -103 -84l-99 27c20 107 109 146 209 146c132 0 204 -67 204 -173c0 -93 -57 -140 -146 -201l-141 -102l1 -3c9 0 39 2 84 2h204v-94h-409z" />
    <glyph glyph-name="three" unicode="3" horiz-adv-x="499" 
d="M347 294v-4c63 -6 116 -52 116 -134c0 -100 -80 -167 -207 -167c-116 0 -200 57 -220 159l92 26c13 -61 57 -95 125 -95c72 0 108 40 108 91c0 55 -43 82 -108 82h-59v76h55c67 0 106 28 106 79c0 49 -38 78 -103 78c-79 0 -104 -42 -110 -86l-95 26
c22 110 112 146 215 146c131 0 195 -58 195 -146c0 -84 -59 -124 -110 -131z" />
    <glyph glyph-name="four" unicode="4" horiz-adv-x="537" 
d="M415 0h-105v137h-277v93l224 330h158v-334h81v-89h-81v-137zM310 346v132h-4l-175 -250l2 -2h84h93v120z" />
    <glyph glyph-name="five" unicode="5" horiz-adv-x="506" 
d="M156 328l3 -2c16 16 58 39 112 39c121 0 194 -76 194 -184c0 -115 -83 -192 -211 -192c-114 0 -193 61 -213 148l91 23c12 -51 56 -84 119 -84c68 0 114 40 114 105s-45 105 -117 105c-60 0 -92 -28 -104 -52l-86 23l53 303h318v-98h-248l-12 -72c-6 -36 -12 -59 -13 -62
z" />
    <glyph glyph-name="six" unicode="6" horiz-adv-x="505" 
d="M177 324l3 -3c23 25 57 39 103 39c105 0 187 -71 187 -178c0 -115 -87 -193 -219 -193c-125 0 -218 71 -218 201c0 73 31 135 86 206l129 164h112zM253 78c71 0 117 41 118 107c0 64 -45 104 -118 104c-72 0 -117 -40 -117 -104c0 -66 46 -107 117 -107z" />
    <glyph glyph-name="seven" unicode="7" horiz-adv-x="484" 
d="M462 483l-273 -483h-108l202 358c31 54 61 101 61 102l-2 3l-74 -1h-238v98h432v-77z" />
    <glyph glyph-name="eight" unicode="8" horiz-adv-x="509" 
d="M36 153c0 86 63 130 124 141v3c-30 5 -99 42 -99 125c0 82 72 149 193 149s193 -67 193 -148c0 -84 -69 -121 -98 -126v-3c57 -10 124 -53 124 -141c0 -93 -76 -165 -217 -165c-139 0 -220 69 -220 165zM152 417c0 -52 44 -80 102 -80c62 1 102 32 102 80
c0 49 -41 80 -102 80c-63 0 -102 -32 -102 -80zM136 159c0 -59 49 -91 118 -91c71 0 118 33 118 91s-47 89 -118 89s-118 -32 -118 -89z" />
    <glyph glyph-name="nine" unicode="9" horiz-adv-x="512" 
d="M333 230l-3 3c-22 -24 -56 -38 -104 -38c-114 0 -189 78 -189 181c0 115 93 195 220 195c120 0 220 -70 220 -202c0 -99 -52 -167 -113 -237l-116 -132h-117zM255 481c-65 0 -119 -33 -119 -108s54 -105 119 -105c68 0 119 33 119 106c0 74 -53 107 -119 107z" />
    <glyph glyph-name="zero.slsh.dnom" horiz-adv-x="340" 
d="M171 398c91 0 147 -64 147 -203s-56 -202 -147 -202c-92 0 -149 63 -149 202s57 203 149 203zM171 328c-47 0 -72 -37 -72 -133c0 -19 1 -36 3 -51l107 171c-10 9 -23 13 -38 13zM171 63c46 0 70 37 70 132c0 19 -1 37 -3 51l-107 -170c11 -9 24 -13 40 -13z" />
    <glyph glyph-name="zero.lf" horiz-adv-x="631" 
d="M316 714c206 0 279 -174 279 -364c0 -196 -73 -364 -279 -364c-207 0 -280 168 -280 364c0 189 73 364 280 364zM316 610c-133 0 -169 -114 -169 -260s36 -260 169 -260s168 114 168 260s-35 260 -168 260z" />
    <glyph glyph-name="one.lf" horiz-adv-x="424" 
d="M218 0v419c0 73 6 153 5 153h-3c-1 0 -28 -30 -48 -47l-65 -64l-62 71l180 168h104v-700h-111z" />
    <glyph glyph-name="two.lf" horiz-adv-x="591" 
d="M49 0v125l238 185c93 72 144 112 144 183c0 72 -50 126 -143 126c-95 0 -138 -62 -144 -118l-102 27c20 116 106 186 253 186c162 0 249 -86 249 -214c0 -115 -69 -179 -189 -265l-175 -132l1 -2c6 0 37 2 100 2h265v-103h-497z" />
    <glyph glyph-name="three.lf" horiz-adv-x="600" 
d="M416 371v-4c79 -10 143 -64 143 -170c0 -125 -98 -210 -251 -210c-140 0 -244 72 -267 199l102 28c14 -80 74 -126 160 -126c93 0 144 55 144 122c0 76 -57 113 -143 113h-68v90h65c88 0 139 38 139 104c0 67 -50 105 -134 105c-109 0 -143 -67 -152 -121l-102 27
c20 101 93 186 255 186c165 0 245 -81 245 -184c0 -94 -70 -152 -136 -159z" />
    <glyph glyph-name="four.lf" horiz-adv-x="623" 
d="M490 0h-110v174h-344v99l287 427h167v-428h96v-98h-96v-174zM380 463v142h-4l-235 -331l2 -3l121 1h116v191z" />
    <glyph glyph-name="five.lf" horiz-adv-x="594" 
d="M171 405l3 -2c17 18 61 52 140 52c135 0 235 -88 235 -228c0 -138 -98 -240 -252 -240c-133 0 -231 76 -255 187l103 27c14 -68 72 -115 150 -115c90 0 146 62 146 143c0 82 -57 141 -150 141c-76 0 -118 -39 -134 -72l-94 25l64 377h397v-103h-318l-16 -94
c-9 -52 -18 -92 -19 -98z" />
    <glyph glyph-name="six.lf" horiz-adv-x="604" 
d="M201 407l3 -3c27 29 71 49 132 49c131 0 231 -90 231 -224c0 -142 -107 -242 -266 -242c-152 0 -264 92 -264 251c0 89 37 164 102 251l160 211h123zM303 87c90 0 154 56 155 144c0 85 -60 141 -153 141s-156 -55 -156 -141c0 -87 63 -144 154 -144z" />
    <glyph glyph-name="seven.lf" horiz-adv-x="570" 
d="M553 614l-316 -614h-120l238 471c33 64 70 124 70 125l-2 3c-1 0 -55 -2 -94 -2h-284v103h508v-86z" />
    <glyph glyph-name="eight.lf" horiz-adv-x="613" 
d="M41 192c0 108 79 166 154 178v4c-36 5 -123 51 -123 156c0 103 87 184 234 184c148 0 235 -81 235 -184c0 -105 -87 -151 -122 -156v-4c70 -11 153 -67 153 -178c0 -116 -93 -206 -264 -206c-167 0 -267 87 -267 206zM173 524c0 -67 57 -106 133 -106
c81 1 134 42 134 107c0 67 -52 107 -134 107s-133 -41 -133 -108zM151 199c0 -79 64 -124 155 -124c94 0 156 46 156 124c0 77 -63 121 -156 121c-94 0 -155 -45 -155 -121z" />
    <glyph glyph-name="nine.lf" horiz-adv-x="612" 
d="M405 290l-3 2c-29 -29 -71 -48 -133 -48c-141 0 -233 97 -233 227c0 144 112 243 268 243c146 0 267 -87 267 -250c0 -115 -61 -203 -141 -296l-143 -168h-129zM302 614c-83 0 -157 -46 -157 -145c0 -98 73 -142 156 -142c86 0 157 48 157 144c0 97 -74 143 -156 143z
" />
    <glyph glyph-name="zero.slsh.lf" horiz-adv-x="631" 
d="M316 714c206 0 279 -174 279 -364c0 -196 -73 -364 -279 -364c-207 0 -280 168 -280 364c0 189 73 364 280 364zM316 610c-133 0 -169 -114 -169 -260c0 -59 6 -112 21 -155l242 387c-24 18 -55 28 -94 28zM316 90c133 0 168 114 168 260c0 55 -5 105 -18 146l-238 -382
c23 -15 52 -24 88 -24z" />
    <glyph glyph-name="zero.slsh.numr" horiz-adv-x="340" 
d="M171 708c91 0 147 -64 147 -203s-56 -202 -147 -202c-92 0 -149 63 -149 202s57 203 149 203zM171 638c-47 0 -72 -37 -72 -133c0 -19 1 -36 3 -51l107 171c-10 9 -23 13 -38 13zM171 373c46 0 70 37 70 132c0 20 -1 37 -3 51l-107 -170c11 -9 24 -13 40 -13z" />
    <glyph glyph-name="zero.slsh" horiz-adv-x="527" 
d="M264 571c141 0 227 -99 227 -291s-86 -291 -227 -291c-142 0 -228 99 -228 291s86 291 228 291zM264 475c-85 0 -123 -62 -123 -195c0 -40 3 -73 10 -100l175 279c-17 10 -38 16 -62 16zM264 85c84 0 122 63 122 195c0 35 -2 65 -8 90l-171 -272c16 -9 35 -13 57 -13z
" />
    <glyph glyph-name="zero.tf.slsh" 
d="M334 714c206 0 280 -174 280 -364c0 -196 -74 -364 -280 -364c-207 0 -280 168 -280 364c0 189 73 364 280 364zM334 610c-133 0 -169 -114 -169 -260c0 -56 6 -107 20 -149l239 384c-23 16 -53 25 -90 25zM334 90c133 0 169 114 169 260c0 57 -6 110 -21 152l-240 -385
c23 -17 54 -27 92 -27z" />
    <glyph glyph-name="zero.sups" horiz-adv-x="340" 
d="M171 465c-92 0 -149 63 -149 202s57 203 149 203c91 0 147 -64 147 -203s-56 -202 -147 -202zM171 535c46 0 70 37 70 132c0 96 -24 133 -70 133c-47 0 -72 -37 -72 -133c0 -95 25 -132 72 -132z" />
    <glyph glyph-name="four.sups" horiz-adv-x="340" 
d="M266 473h-71v92h-181v64l148 233h104v-231h60v-66h-60v-92zM195 631v86c0 43 3 78 3 83h-4c-1 0 -106 -163 -108 -166l3 -4l48 1h58z" />
    <glyph glyph-name="five.sups" horiz-adv-x="340" 
d="M98 694l3 -1c14 14 45 30 83 30c73 0 130 -47 130 -127c0 -75 -53 -131 -140 -131c-92 0 -138 55 -147 112l64 17c5 -36 30 -68 79 -68c44 0 75 27 75 72c0 43 -30 72 -75 72c-39 0 -61 -20 -69 -35l-64 16l38 211h219v-65h-172l-11 -52c-6 -30 -13 -50 -13 -51z" />
    <glyph glyph-name="six.sups" horiz-adv-x="340" 
d="M113 686l3 -2c10 11 33 38 83 38c61 0 122 -43 122 -123c0 -81 -60 -134 -145 -134c-86 0 -153 52 -153 142c0 48 14 84 43 123l99 132h83zM174 526c45 0 78 28 79 73s-33 73 -79 73s-79 -28 -79 -73s33 -73 79 -73z" />
    <glyph glyph-name="seven.sups" horiz-adv-x="340" 
d="M311 795l-165 -322h-75l124 245c19 36 41 76 42 77l-2 3c-3 0 -33 -1 -51 -1h-149v65h276v-67z" />
    <glyph glyph-name="eight.sups" horiz-adv-x="340" 
d="M22 578c0 60 48 92 82 100v3c-23 4 -65 32 -65 86c0 64 54 103 131 103c78 0 132 -39 132 -103c0 -54 -44 -82 -65 -86v-3c33 -8 82 -40 82 -100c0 -70 -59 -113 -149 -113s-148 43 -148 113zM101 763c0 -32 28 -53 69 -53s69 21 69 53c0 33 -28 53 -69 53
s-69 -20 -69 -53zM91 584c0 -38 32 -61 79 -62c47 1 80 24 80 62c0 37 -33 60 -80 60s-79 -23 -79 -60z" />
    <glyph glyph-name="nine.sups" horiz-adv-x="340" 
d="M224 639l-3 3c-15 -17 -33 -34 -75 -34c-76 0 -126 54 -126 126c0 83 63 136 148 136c81 0 149 -51 149 -142c0 -52 -21 -100 -63 -151l-85 -104h-84zM166 807c-45 0 -79 -28 -80 -72c0 -46 34 -73 79 -73c46 0 80 27 80 72s-34 73 -79 73z" />
    <glyph glyph-name="zero.slsh.sups" horiz-adv-x="340" 
d="M171 870c91 0 147 -64 147 -203s-56 -202 -147 -202c-92 0 -149 63 -149 202s57 203 149 203zM171 800c-47 0 -72 -37 -72 -133c0 -19 1 -36 3 -51l107 171c-10 9 -23 13 -38 13zM171 535c46 0 70 37 70 132c0 20 -1 37 -3 51l-107 -170c11 -9 24 -13 40 -13z" />
    <glyph glyph-name="zero.tf" 
d="M334 714c206 0 280 -174 280 -364c0 -196 -74 -364 -280 -364c-207 0 -280 168 -280 364c0 189 73 364 280 364zM334 610c-133 0 -169 -114 -169 -260s36 -260 169 -260s169 114 169 260s-36 260 -169 260z" />
    <glyph glyph-name="one.tf" 
d="M586 0h-459v103h175v352c0 80 4 129 3 129h-2c-1 0 -35 -32 -71 -63l-83 -80l-57 75l202 184h118v-597h174v-103z" />
    <glyph glyph-name="two.tf" 
d="M93 0v125l237 185c93 72 145 112 145 183c0 72 -51 126 -144 126c-94 0 -137 -62 -144 -118l-101 27c20 116 105 186 252 186c162 0 249 -86 249 -214c0 -115 -68 -179 -188 -265l-176 -132l1 -2c7 0 37 2 100 2h266v-103h-497z" />
    <glyph glyph-name="three.tf" 
d="M447 371v-4c80 -10 143 -64 143 -170c0 -125 -97 -210 -251 -210c-140 0 -243 72 -267 199l102 28c14 -80 74 -126 161 -126c93 0 143 55 143 122c0 76 -57 113 -143 113h-68v90h65c88 0 140 38 140 104c0 67 -51 105 -135 105c-109 0 -143 -67 -151 -121l-102 27
c20 101 92 186 254 186c165 0 245 -81 245 -184c0 -94 -70 -152 -136 -159z" />
    <glyph glyph-name="four.tf" 
d="M505 0h-110v174h-344v99l287 427h167v-428h96v-98h-96v-174zM395 463v142h-4l-235 -331l3 -3l120 1h116v191z" />
    <glyph glyph-name="five.tf" 
d="M210 405l4 -2c16 18 60 52 139 52c136 0 236 -88 236 -228c0 -138 -99 -240 -253 -240c-133 0 -230 76 -254 187l103 27c13 -68 71 -115 149 -115c90 0 146 62 146 143c0 82 -57 141 -150 141c-76 0 -117 -39 -133 -72l-95 25l64 377h397v-103h-318l-15 -94
c-9 -52 -19 -92 -20 -98z" />
    <glyph glyph-name="six.tf" 
d="M229 407l3 -3c27 29 71 49 132 49c131 0 231 -90 231 -224c0 -142 -107 -242 -266 -242c-152 0 -264 92 -264 251c0 89 36 164 102 251l160 211h123zM331 87c90 0 154 56 155 144c0 85 -60 141 -154 141c-93 0 -155 -55 -155 -141c0 -87 63 -144 154 -144z" />
    <glyph glyph-name="seven.tf" 
d="M588 614l-317 -614h-120l239 471c32 64 71 128 71 129l-2 4c-1 0 -56 -2 -95 -2h-289v98h513v-86z" />
    <glyph glyph-name="eight.tf" 
d="M65 192c0 108 79 166 154 178v4c-36 5 -123 51 -123 156c0 103 87 184 234 184c148 0 235 -81 235 -184c0 -105 -87 -151 -122 -156v-4c70 -11 153 -67 153 -178c0 -116 -93 -206 -264 -206c-167 0 -267 87 -267 206zM197 524c0 -67 57 -106 133 -106
c80 1 134 42 134 107c0 67 -52 107 -134 107s-133 -41 -133 -108zM175 199c0 -79 63 -124 155 -124c94 0 156 46 156 124c0 77 -63 121 -156 121c-94 0 -155 -45 -155 -121z" />
    <glyph glyph-name="nine.tf" 
d="M446 290l-3 2c-30 -29 -71 -48 -133 -48c-141 0 -233 97 -233 227c0 144 111 243 267 243c147 0 267 -87 267 -250c0 -115 -61 -203 -140 -296l-144 -168h-128zM342 614c-83 0 -156 -46 -156 -145c0 -98 73 -142 155 -142c87 0 157 48 157 144c0 97 -73 143 -156 143z
" />
    <glyph glyph-name="zero.tosf" 
d="M332 571c141 0 227 -99 227 -291s-86 -291 -227 -291c-142 0 -228 99 -228 291s86 291 228 291zM332 475c-85 0 -123 -62 -123 -195c0 -132 38 -195 123 -195c84 0 122 63 122 195c0 133 -38 195 -122 195z" />
    <glyph glyph-name="one.tosf" 
d="M537 0h-378v97h139v236c0 56 5 113 4 113h-2c-1 0 -27 -29 -39 -40l-70 -70l-58 66l171 156h99v-461h134v-97z" />
    <glyph glyph-name="two.tosf" 
d="M145 0v114l198 147c68 52 102 86 102 133c0 48 -33 88 -104 88c-67 0 -98 -38 -104 -84l-99 27c20 107 109 146 210 146c131 0 203 -67 203 -173c0 -93 -57 -140 -145 -201l-142 -102l1 -3c9 0 39 2 84 2h205v-94h-409z" />
    <glyph glyph-name="three.tosf" 
d="M425 294v-4c64 -6 116 -52 116 -134c0 -100 -80 -167 -207 -167c-116 0 -200 57 -220 159l93 26c12 -61 57 -95 124 -95c72 0 108 40 108 91c0 55 -42 82 -107 82h-60v76h55c67 0 106 28 106 79c0 49 -37 78 -103 78c-78 0 -104 -42 -110 -86l-94 26
c21 110 112 146 214 146c131 0 196 -58 196 -146c0 -84 -59 -124 -111 -131z" />
    <glyph glyph-name="four.tosf" 
d="M480 0h-105v137h-276v93l223 330h158v-334h81v-89h-81v-137zM375 346v132h-4l-175 -250l2 -2h84h93v120z" />
    <glyph glyph-name="five.tosf" 
d="M244 328l3 -2c16 16 57 39 112 39c121 0 194 -76 194 -184c0 -115 -83 -192 -211 -192c-114 0 -193 61 -213 148l90 23c12 -51 57 -84 120 -84c68 0 114 40 114 105s-46 105 -118 105c-59 0 -91 -28 -104 -52l-85 23l53 303h318v-98h-248l-13 -72c-5 -36 -11 -59 -12 -62
z" />
    <glyph glyph-name="six.tosf" 
d="M256 324l3 -3c23 25 57 39 103 39c105 0 187 -71 187 -178c0 -115 -87 -193 -219 -193c-125 0 -218 71 -218 201c0 73 30 135 86 206l129 164h112zM332 78c71 0 117 41 118 107c0 64 -45 104 -118 104c-72 0 -117 -40 -117 -104c0 -66 46 -107 117 -107z" />
    <glyph glyph-name="seven.tosf" 
d="M558 483l-273 -483h-108l202 358c31 54 61 101 61 102l-2 3l-74 -1h-238v98h432v-77z" />
    <glyph glyph-name="eight.tosf" 
d="M113 153c0 86 64 130 124 141v3c-30 5 -99 42 -99 125c0 82 72 149 194 149c120 0 193 -67 193 -148c0 -84 -69 -121 -99 -126v-3c57 -10 124 -53 124 -141c0 -93 -75 -165 -217 -165c-139 0 -220 69 -220 165zM230 417c0 -52 44 -80 102 -80c61 1 101 32 101 80
c0 49 -40 80 -101 80c-64 0 -102 -32 -102 -80zM214 159c0 -59 48 -91 118 -91c71 0 117 33 117 91s-47 89 -117 89c-72 0 -118 -32 -118 -89z" />
    <glyph glyph-name="nine.tosf" 
d="M418 230l-2 3c-23 -24 -57 -38 -105 -38c-114 0 -188 78 -188 181c0 115 92 195 219 195c121 0 221 -70 221 -202c0 -99 -53 -167 -113 -237l-116 -132h-118zM340 481c-64 0 -118 -33 -118 -108s54 -105 118 -105c69 0 120 33 120 106c0 74 -54 107 -120 107z" />
    <glyph glyph-name="zero.slsh.tosf" 
d="M327 571c141 0 227 -99 227 -291s-86 -291 -227 -291c-142 0 -228 99 -228 291s86 291 228 291zM327 475c-85 0 -123 -62 -123 -195c0 -40 3 -74 11 -101l175 279c-17 11 -38 17 -63 17zM327 85c84 0 122 63 122 195c0 35 -2 64 -8 90l-171 -273c16 -8 35 -12 57 -12z
" />
    <glyph glyph-name="fraction" unicode="&#x2044;" horiz-adv-x="149" 
d="M219 700l-210 -700h-79l209 700h80z" />
    <glyph glyph-name="onefraction" unicode="&#x215f;" horiz-adv-x="489" 
d="M307 311h-244v66h85v154c0 20 3 74 5 82h-4c-1 0 -13 -16 -26 -28l-36 -36l-47 45l111 106h71v-323h85v-66zM559 700l-210 -700h-79l209 700h80z" />
    <glyph glyph-name="onehalf" unicode="&#xbd;" horiz-adv-x="829" 
d="M307 311h-244v66h85v154c0 20 3 74 5 82h-4c-1 0 -13 -16 -26 -28l-36 -36l-47 45l111 106h71v-323h85v-66zM559 700l-210 -700h-79l209 700h80zM520 1v83l152 108c33 22 53 47 53 79c0 35 -23 59 -69 59c-41 0 -64 -15 -74 -58l-62 17c17 74 68 108 143 108
c84 0 135 -44 135 -120c0 -46 -22 -83 -66 -117c-47 -37 -124 -90 -126 -93l1 -4c10 1 45 3 67 3h128v-65h-282z" />
    <glyph glyph-name="zerothird" unicode="&#x2189;" horiz-adv-x="814" 
d="M171 303c-92 0 -149 63 -149 202s57 203 149 203c91 0 147 -64 147 -203s-56 -202 -147 -202zM544 700l-210 -700h-79l209 700h80zM171 373c46 0 70 37 70 132c0 96 -24 133 -70 133c-47 0 -72 -37 -72 -133c0 -95 25 -132 72 -132zM710 202v-3c41 -6 79 -39 79 -93
c0 -66 -58 -113 -136 -113c-92 0 -144 51 -154 116l66 19c3 -44 33 -71 82 -71c48 0 72 28 72 60c0 35 -29 59 -74 59h-31v49h28c45 0 72 24 72 58c0 26 -19 53 -71 53c-47 0 -66 -21 -74 -64l-61 17c11 68 56 108 141 108c92 0 134 -46 134 -104c0 -51 -34 -87 -73 -91z
" />
    <glyph glyph-name="uni2153" unicode="&#x2153;" horiz-adv-x="829" 
d="M307 311h-244v66h85v154c0 20 3 74 5 82h-4c-1 0 -13 -16 -26 -28l-36 -36l-47 45l111 106h71v-323h85v-66zM559 700l-210 -700h-79l209 700h80zM725 202v-3c41 -6 79 -39 79 -93c0 -66 -58 -113 -136 -113c-92 0 -144 51 -154 116l66 19c3 -44 33 -71 82 -71
c48 0 72 28 72 60c0 35 -29 59 -74 59h-31v49h28c45 0 72 24 72 58c0 26 -19 53 -71 53c-47 0 -66 -21 -74 -64l-61 17c11 68 56 108 141 108c92 0 134 -46 134 -104c0 -51 -34 -87 -73 -91z" />
    <glyph glyph-name="uni2154" unicode="&#x2154;" horiz-adv-x="829" 
d="M31 311v84l153 108c32 22 52 47 52 78c0 35 -23 60 -69 60c-41 0 -64 -16 -74 -58l-62 17c17 73 68 108 144 108c84 0 134 -44 134 -120c0 -46 -22 -83 -66 -118c-47 -37 -123 -89 -126 -92l2 -4c10 1 45 3 66 3h128v-66h-282zM559 700l-210 -700h-79l209 700h80z
M725 202v-3c41 -6 79 -39 79 -93c0 -66 -58 -113 -136 -113c-92 0 -144 51 -154 116l66 19c3 -44 33 -71 82 -71c48 0 72 28 72 60c0 35 -29 59 -74 59h-31v49h28c45 0 72 24 72 58c0 26 -19 53 -71 53c-47 0 -66 -21 -74 -64l-61 17c11 68 56 108 141 108
c92 0 134 -46 134 -104c0 -51 -34 -87 -73 -91z" />
    <glyph glyph-name="onequarter" unicode="&#xbc;" horiz-adv-x="829" 
d="M307 311h-244v66h85v154c0 20 3 74 5 82h-4c-1 0 -13 -16 -26 -28l-36 -36l-47 45l111 106h71v-323h85v-66zM559 700l-210 -700h-79l209 700h80zM755 1h-71v92h-181v64l148 232h104v-231h60v-65h-60v-92zM684 158v87c0 43 3 77 3 82h-4c-1 0 -106 -163 -108 -166l3 -3h48
h58z" />
    <glyph glyph-name="threequarters" unicode="&#xbe;" horiz-adv-x="829" 
d="M236 513v-4c42 -5 80 -38 80 -93c0 -65 -58 -113 -136 -113c-93 0 -145 52 -155 117l66 19c3 -44 33 -72 82 -72c48 0 72 28 72 61c0 34 -29 58 -74 58h-30v50h27c45 0 73 24 73 57c0 26 -19 53 -72 53c-47 0 -66 -21 -74 -63l-61 16c11 68 56 109 141 109
c92 0 135 -46 135 -104c0 -52 -34 -87 -74 -91zM559 700l-210 -700h-79l209 700h80zM755 1h-71v92h-181v64l148 232h104v-231h60v-65h-60v-92zM684 158v87c0 43 3 77 3 82h-4c-1 0 -106 -163 -108 -166l3 -3h48h58z" />
    <glyph glyph-name="uni2155" unicode="&#x2155;" horiz-adv-x="829" 
d="M307 311h-244v66h85v154c0 20 3 74 5 82h-4c-1 0 -13 -16 -26 -28l-36 -36l-47 45l111 106h71v-323h85v-66zM559 700l-210 -700h-79l209 700h80zM587 222l3 -2c14 14 45 30 83 30c72 0 129 -47 129 -127c0 -75 -52 -130 -140 -130c-91 0 -137 55 -146 112l64 17
c5 -36 30 -69 79 -69c44 0 75 28 75 72s-30 72 -75 72c-39 0 -61 -20 -69 -35l-64 17l38 210h218v-65h-171l-11 -52c-6 -30 -13 -49 -13 -50z" />
    <glyph glyph-name="uni2156" unicode="&#x2156;" horiz-adv-x="829" 
d="M31 311v84l153 108c32 22 52 47 52 78c0 35 -23 60 -69 60c-41 0 -64 -16 -74 -58l-62 17c17 73 68 108 144 108c84 0 134 -44 134 -120c0 -46 -22 -83 -66 -118c-47 -37 -123 -89 -126 -92l2 -4c10 1 45 3 66 3h128v-66h-282zM559 700l-210 -700h-79l209 700h80z
M587 222l3 -2c14 14 45 30 83 30c72 0 129 -47 129 -127c0 -75 -52 -130 -140 -130c-91 0 -137 55 -146 112l64 17c5 -36 30 -69 79 -69c44 0 75 28 75 72s-30 72 -75 72c-39 0 -61 -20 -69 -35l-64 17l38 210h218v-65h-171l-11 -52c-6 -30 -13 -49 -13 -50z" />
    <glyph glyph-name="uni2157" unicode="&#x2157;" horiz-adv-x="829" 
d="M236 513v-4c42 -5 80 -38 80 -93c0 -65 -58 -113 -136 -113c-93 0 -145 52 -155 117l66 19c3 -44 33 -72 82 -72c48 0 72 28 72 61c0 34 -29 58 -74 58h-30v50h27c45 0 73 24 73 57c0 26 -19 53 -72 53c-47 0 -66 -21 -74 -63l-61 16c11 68 56 109 141 109
c92 0 135 -46 135 -104c0 -52 -34 -87 -74 -91zM559 700l-210 -700h-79l209 700h80zM587 222l3 -2c14 14 45 30 83 30c72 0 129 -47 129 -127c0 -75 -52 -130 -140 -130c-91 0 -137 55 -146 112l64 17c5 -36 30 -69 79 -69c44 0 75 28 75 72s-30 72 -75 72
c-39 0 -61 -20 -69 -35l-64 17l38 210h218v-65h-171l-11 -52c-6 -30 -13 -49 -13 -50z" />
    <glyph glyph-name="uni2158" unicode="&#x2158;" horiz-adv-x="829" 
d="M266 311h-71v92h-181v64l148 233h104v-231h60v-66h-60v-92zM559 700l-210 -700h-79l209 700h80zM195 469v86c0 43 3 78 3 83h-4c-1 0 -106 -163 -108 -166l3 -4l48 1h58zM587 222l3 -2c14 14 45 30 83 30c72 0 129 -47 129 -127c0 -75 -52 -130 -140 -130
c-91 0 -137 55 -146 112l64 17c5 -36 30 -69 79 -69c44 0 75 28 75 72s-30 72 -75 72c-39 0 -61 -20 -69 -35l-64 17l38 210h218v-65h-171l-11 -52c-6 -30 -13 -49 -13 -50z" />
    <glyph glyph-name="uni2159" unicode="&#x2159;" horiz-adv-x="829" 
d="M307 311h-244v66h85v154c0 20 3 74 5 82h-4c-1 0 -13 -16 -26 -28l-36 -36l-47 45l111 106h71v-323h85v-66zM559 700l-210 -700h-79l209 700h80zM601 214l4 -3c10 11 33 38 83 38c60 0 121 -43 121 -123c0 -81 -59 -133 -145 -133s-152 51 -152 141c0 48 14 84 43 123
l99 132h83zM663 53c45 0 78 28 79 73c0 45 -33 73 -79 73s-79 -28 -79 -73s33 -73 79 -73z" />
    <glyph glyph-name="uni215A" unicode="&#x215a;" horiz-adv-x="829" 
d="M559 700l-210 -700h-79l209 700h80zM98 532l3 -1c14 14 45 30 83 30c73 0 130 -47 130 -127c0 -75 -53 -131 -140 -131c-92 0 -138 55 -147 112l64 17c5 -36 30 -68 79 -68c44 0 75 27 75 72c0 43 -30 72 -75 72c-39 0 -61 -20 -69 -35l-64 16l38 211h219v-65h-172
l-11 -52c-6 -30 -13 -50 -13 -51zM601 214l4 -3c10 11 33 38 83 38c60 0 121 -43 121 -123c0 -81 -59 -133 -145 -133s-152 51 -152 141c0 48 14 84 43 123l99 132h83zM663 53c45 0 78 28 79 73c0 45 -33 73 -79 73s-79 -28 -79 -73s33 -73 79 -73z" />
    <glyph glyph-name="uni2150" unicode="&#x2150;" horiz-adv-x="829" 
d="M307 311h-244v66h85v154c0 20 3 74 5 82h-4c-1 0 -13 -16 -26 -28l-36 -36l-47 45l111 106h71v-323h85v-66zM559 700l-210 -700h-79l209 700h80zM799 322l-164 -321h-75l124 244c19 37 41 76 42 77l-2 4c-3 -1 -33 -2 -51 -2h-149v65h275v-67z" />
    <glyph glyph-name="oneeighth" unicode="&#x215b;" horiz-adv-x="829" 
d="M307 311h-244v66h85v154c0 20 3 74 5 82h-4c-1 0 -13 -16 -26 -28l-36 -36l-47 45l111 106h71v-323h85v-66zM559 700l-210 -700h-79l209 700h80zM511 105c0 61 48 92 82 100v3c-23 5 -65 32 -65 86c0 64 54 103 131 103s131 -39 131 -102c0 -55 -43 -82 -64 -87v-3
c33 -8 81 -39 81 -100c0 -70 -58 -112 -148 -112s-148 42 -148 112zM590 291c0 -33 28 -53 69 -53s69 21 69 53s-28 53 -69 53s-69 -20 -69 -53zM580 111c0 -37 32 -61 79 -61s79 24 79 61s-32 61 -79 61s-79 -23 -79 -61z" />
    <glyph glyph-name="threeeighths" unicode="&#x215c;" horiz-adv-x="829" 
d="M236 513v-4c42 -5 80 -38 80 -93c0 -65 -58 -113 -136 -113c-93 0 -145 52 -155 117l66 19c3 -44 33 -72 82 -72c48 0 72 28 72 61c0 34 -29 58 -74 58h-30v50h27c45 0 73 24 73 57c0 26 -19 53 -72 53c-47 0 -66 -21 -74 -63l-61 16c11 68 56 109 141 109
c92 0 135 -46 135 -104c0 -52 -34 -87 -74 -91zM559 700l-210 -700h-79l209 700h80zM511 105c0 61 48 92 82 100v3c-23 5 -65 32 -65 86c0 64 54 103 131 103s131 -39 131 -102c0 -55 -43 -82 -64 -87v-3c33 -8 81 -39 81 -100c0 -70 -58 -112 -148 -112s-148 42 -148 112z
M590 291c0 -33 28 -53 69 -53s69 21 69 53s-28 53 -69 53s-69 -20 -69 -53zM580 111c0 -37 32 -61 79 -61s79 24 79 61s-32 61 -79 61s-79 -23 -79 -61z" />
    <glyph glyph-name="fiveeighths" unicode="&#x215d;" horiz-adv-x="829" 
d="M98 532l3 -1c14 14 45 30 83 30c73 0 130 -47 130 -127c0 -75 -53 -131 -140 -131c-92 0 -138 55 -147 112l64 17c5 -36 30 -68 79 -68c44 0 75 27 75 72c0 43 -30 72 -75 72c-39 0 -61 -20 -69 -35l-64 16l38 211h219v-65h-172l-11 -52c-6 -30 -13 -50 -13 -51zM559 700
l-210 -700h-79l209 700h80zM511 105c0 61 48 92 82 100v3c-23 5 -65 32 -65 86c0 64 54 103 131 103s131 -39 131 -102c0 -55 -43 -82 -64 -87v-3c33 -8 81 -39 81 -100c0 -70 -58 -112 -148 -112s-148 42 -148 112zM590 291c0 -33 28 -53 69 -53s69 21 69 53s-28 53 -69 53
s-69 -20 -69 -53zM580 111c0 -37 32 -61 79 -61s79 24 79 61s-32 61 -79 61s-79 -23 -79 -61z" />
    <glyph glyph-name="seveneighths" unicode="&#x215e;" horiz-adv-x="829" 
d="M311 633l-165 -322h-75l124 245c19 36 41 76 42 77l-2 3c-3 0 -33 -1 -51 -1h-149v65h276v-67zM559 700l-210 -700h-79l209 700h80zM511 105c0 61 48 92 82 100v3c-23 5 -65 32 -65 86c0 64 54 103 131 103s131 -39 131 -102c0 -55 -43 -82 -64 -87v-3
c33 -8 81 -39 81 -100c0 -70 -58 -112 -148 -112s-148 42 -148 112zM590 291c0 -33 28 -53 69 -53s69 21 69 53s-28 53 -69 53s-69 -20 -69 -53zM580 111c0 -37 32 -61 79 -61s79 24 79 61s-32 61 -79 61s-79 -23 -79 -61z" />
    <glyph glyph-name="uni2151" unicode="&#x2151;" horiz-adv-x="829" 
d="M307 311h-244v66h85v154c0 20 3 74 5 82h-4c-1 0 -13 -16 -26 -28l-36 -36l-47 45l111 106h71v-323h85v-66zM559 700l-210 -700h-79l209 700h80zM713 167l-3 2c-15 -17 -33 -33 -75 -33c-76 0 -126 53 -126 125c0 84 63 136 148 136c81 0 148 -50 148 -141
c0 -52 -21 -100 -62 -151l-85 -104h-84zM655 335c-45 0 -79 -28 -80 -73c0 -46 34 -72 79 -72c46 0 79 26 79 71c0 46 -33 74 -78 74z" />
    <glyph glyph-name="uni2152" unicode="&#x2152;" horiz-adv-x="1169" 
d="M307 311h-244v66h85v154c0 20 3 74 5 82h-4c-1 0 -13 -16 -26 -28l-36 -36l-47 45l111 106h71v-323h85v-66zM559 700l-210 -700h-79l209 700h80zM999 -7c-91 0 -148 63 -148 201c0 140 57 203 148 203s148 -63 148 -203c0 -138 -57 -201 -148 -201zM796 1h-244v65h85v154
c0 21 3 74 5 82h-4c-1 0 -13 -15 -26 -28l-36 -36l-47 45l111 106h71v-323h85v-65zM999 62c47 0 71 38 71 132c0 96 -24 133 -71 133c-46 0 -72 -37 -72 -133c0 -94 26 -132 72 -132z" />
    <glyph glyph-name="zero.dnom" horiz-adv-x="340" 
d="M171 -7c-92 0 -149 63 -149 201c0 140 57 203 149 203c91 0 147 -63 147 -203c0 -138 -56 -201 -147 -201zM171 62c46 0 70 38 70 132c0 96 -24 133 -70 133c-47 0 -72 -37 -72 -133c0 -94 25 -132 72 -132z" />
    <glyph glyph-name="one.dnom" horiz-adv-x="340" 
d="M307 1h-244v65h85v154c0 21 3 74 5 82h-4c-1 0 -13 -15 -26 -28l-36 -36l-47 45l111 106h71v-323h85v-65z" />
    <glyph glyph-name="two.dnom" horiz-adv-x="340" 
d="M31 1v83l153 108c32 22 52 47 52 79c0 35 -23 59 -69 59c-41 0 -64 -15 -74 -58l-62 17c17 74 68 108 144 108c84 0 134 -44 134 -120c0 -46 -22 -83 -66 -117c-47 -37 -123 -90 -126 -93l2 -4c10 1 45 3 66 3h128v-65h-282z" />
    <glyph glyph-name="three.dnom" horiz-adv-x="340" 
d="M236 202v-3c42 -6 80 -39 80 -93c0 -66 -58 -113 -136 -113c-93 0 -145 51 -155 116l66 19c3 -44 33 -71 82 -71c48 0 72 28 72 60c0 35 -29 59 -74 59h-30v49h27c45 0 73 24 73 58c0 26 -19 53 -72 53c-47 0 -66 -21 -74 -64l-61 17c11 68 56 108 141 108
c92 0 135 -46 135 -104c0 -51 -34 -87 -74 -91z" />
    <glyph glyph-name="four.dnom" horiz-adv-x="340" 
d="M266 1h-71v92h-181v64l148 232h104v-231h60v-65h-60v-92zM195 158v87c0 43 3 77 3 82h-4c-1 0 -106 -163 -108 -166l3 -3h48h58z" />
    <glyph glyph-name="five.dnom" horiz-adv-x="340" 
d="M98 222l3 -2c14 14 45 30 83 30c73 0 130 -47 130 -127c0 -75 -53 -130 -140 -130c-92 0 -138 55 -147 112l64 17c5 -36 30 -69 79 -69c44 0 75 28 75 72s-30 72 -75 72c-39 0 -61 -20 -69 -35l-64 17l38 210h219v-65h-172l-11 -52c-6 -30 -13 -49 -13 -50z" />
    <glyph glyph-name="six.dnom" horiz-adv-x="340" 
d="M113 214l3 -3c10 11 33 38 83 38c61 0 122 -43 122 -123c0 -81 -60 -133 -145 -133c-86 0 -153 51 -153 141c0 48 14 84 43 123l99 132h83zM174 53c45 0 78 28 79 73s-33 73 -79 73s-79 -28 -79 -73s33 -73 79 -73z" />
    <glyph glyph-name="seven.dnom" horiz-adv-x="340" 
d="M311 322l-165 -321h-75l124 244c19 37 41 76 42 77l-2 4c-3 -1 -33 -2 -51 -2h-149v65h276v-67z" />
    <glyph glyph-name="eight.dnom" horiz-adv-x="340" 
d="M22 105c0 61 48 92 82 100v3c-23 5 -65 32 -65 86c0 64 54 103 131 103c78 0 132 -39 132 -102c0 -55 -44 -82 -65 -87v-3c33 -8 82 -39 82 -100c0 -70 -59 -112 -149 -112s-148 42 -148 112zM101 291c0 -33 28 -53 69 -53s69 21 69 53s-28 53 -69 53s-69 -20 -69 -53z
M91 111c0 -37 32 -61 79 -61s80 24 80 61s-33 61 -80 61s-79 -23 -79 -61z" />
    <glyph glyph-name="nine.dnom" horiz-adv-x="340" 
d="M224 167l-3 2c-15 -17 -33 -33 -75 -33c-76 0 -126 53 -126 125c0 84 63 136 148 136c81 0 149 -50 149 -141c0 -52 -21 -100 -63 -151l-85 -104h-84zM166 335c-45 0 -79 -28 -80 -73c0 -46 34 -72 79 -72c46 0 80 26 80 71c0 46 -34 74 -79 74z" />
    <glyph glyph-name="zero.numr" horiz-adv-x="340" 
d="M171 303c-92 0 -149 63 -149 202s57 203 149 203c91 0 147 -64 147 -203s-56 -202 -147 -202zM171 373c46 0 70 37 70 132c0 96 -24 133 -70 133c-47 0 -72 -37 -72 -133c0 -95 25 -132 72 -132z" />
    <glyph glyph-name="one.numr" horiz-adv-x="340" 
d="M307 311h-244v66h85v154c0 20 3 74 5 82h-4c-1 0 -13 -16 -26 -28l-36 -36l-47 45l111 106h71v-323h85v-66z" />
    <glyph glyph-name="two.numr" horiz-adv-x="340" 
d="M31 311v84l153 108c32 22 52 47 52 78c0 35 -23 60 -69 60c-41 0 -64 -16 -74 -58l-62 17c17 73 68 108 144 108c84 0 134 -44 134 -120c0 -46 -22 -83 -66 -118c-47 -37 -123 -89 -126 -92l2 -4c10 1 45 3 66 3h128v-66h-282z" />
    <glyph glyph-name="three.numr" horiz-adv-x="340" 
d="M236 513v-4c42 -5 80 -38 80 -93c0 -65 -58 -113 -136 -113c-93 0 -145 52 -155 117l66 19c3 -44 33 -72 82 -72c48 0 72 28 72 61c0 34 -29 58 -74 58h-30v50h27c45 0 73 24 73 57c0 26 -19 53 -72 53c-47 0 -66 -21 -74 -63l-61 16c11 68 56 109 141 109
c92 0 135 -46 135 -104c0 -52 -34 -87 -74 -91z" />
    <glyph glyph-name="four.numr" horiz-adv-x="340" 
d="M266 311h-71v92h-181v64l148 233h104v-231h60v-66h-60v-92zM195 469v86c0 43 3 78 3 83h-4c-1 0 -106 -163 -108 -166l3 -4l48 1h58z" />
    <glyph glyph-name="five.numr" horiz-adv-x="340" 
d="M98 532l3 -1c14 14 45 30 83 30c73 0 130 -47 130 -127c0 -75 -53 -131 -140 -131c-92 0 -138 55 -147 112l64 17c5 -36 30 -68 79 -68c44 0 75 27 75 72c0 43 -30 72 -75 72c-39 0 -61 -20 -69 -35l-64 16l38 211h219v-65h-172l-11 -52c-6 -30 -13 -50 -13 -51z" />
    <glyph glyph-name="six.numr" horiz-adv-x="340" 
d="M113 524l3 -2c10 11 33 38 83 38c61 0 122 -43 122 -123c0 -81 -60 -134 -145 -134c-86 0 -153 52 -153 142c0 48 14 84 43 123l99 132h83zM174 364c45 0 78 28 79 73s-33 73 -79 73s-79 -28 -79 -73s33 -73 79 -73z" />
    <glyph glyph-name="seven.numr" horiz-adv-x="340" 
d="M311 633l-165 -322h-75l124 245c19 36 41 76 42 77l-2 3c-3 0 -33 -1 -51 -1h-149v65h276v-67z" />
    <glyph glyph-name="eight.numr" horiz-adv-x="340" 
d="M22 416c0 60 48 92 82 100v3c-23 4 -65 32 -65 86c0 64 54 103 131 103c78 0 132 -39 132 -103c0 -54 -44 -82 -65 -86v-3c33 -8 82 -40 82 -100c0 -70 -59 -113 -149 -113s-148 43 -148 113zM101 601c0 -32 28 -53 69 -53s69 21 69 53c0 33 -28 53 -69 53
s-69 -20 -69 -53zM91 422c0 -38 32 -61 79 -62c47 1 80 24 80 62c0 37 -33 60 -80 60s-79 -23 -79 -60z" />
    <glyph glyph-name="nine.numr" horiz-adv-x="340" 
d="M224 477l-3 3c-15 -17 -33 -34 -75 -34c-76 0 -126 54 -126 126c0 83 63 136 148 136c81 0 149 -51 149 -142c0 -52 -21 -100 -63 -151l-85 -104h-84zM166 645c-45 0 -79 -28 -80 -72c0 -46 34 -73 79 -73c46 0 80 27 80 72s-34 73 -79 73z" />
    <glyph glyph-name="onesuperior" unicode="&#xb9;" horiz-adv-x="340" 
d="M307 473h-244v66h85v154c0 20 3 74 5 82h-4c-1 0 -13 -16 -26 -28l-36 -36l-47 45l111 106h71v-323h85v-66z" />
    <glyph glyph-name="twosuperior" unicode="&#xb2;" horiz-adv-x="340" 
d="M31 473v84l153 108c32 22 52 47 52 78c0 35 -23 60 -69 60c-41 0 -64 -16 -74 -58l-62 17c17 73 68 108 144 108c84 0 134 -44 134 -120c0 -46 -22 -83 -66 -118c-47 -37 -123 -89 -126 -92l2 -4c10 1 45 3 66 3h128v-66h-282z" />
    <glyph glyph-name="threesuperior" unicode="&#xb3;" horiz-adv-x="340" 
d="M236 675v-4c42 -5 80 -38 80 -93c0 -65 -58 -113 -136 -113c-93 0 -145 52 -155 117l66 19c3 -44 33 -72 82 -72c48 0 72 28 72 61c0 34 -29 58 -74 58h-30v50h27c45 0 73 24 73 57c0 26 -19 53 -72 53c-47 0 -66 -21 -74 -63l-61 16c11 68 56 109 141 109
c92 0 135 -46 135 -104c0 -52 -34 -87 -74 -91z" />
    <glyph glyph-name="braceleft" unicode="{" horiz-adv-x="426" 
d="M245 546v-94c0 -127 -73 -157 -85 -160c12 -2 85 -38 85 -160v-93c0 -132 66 -158 141 -158v-94c-151 0 -242 83 -242 240v102c0 117 -68 115 -74 116v95c6 1 74 -1 74 116v102c0 157 91 239 242 239v-95c-75 0 -141 -24 -141 -156z" />
    <glyph glyph-name="braceright" unicode="}" horiz-adv-x="426" 
d="M182 39v93c0 127 72 157 84 160c-12 2 -84 39 -84 160v94c0 132 -67 157 -142 157v95c152 0 242 -83 242 -241v-101c0 -117 68 -116 74 -117v-94c-6 -1 -74 0 -74 -117v-101c0 -157 -90 -240 -242 -240v95c75 0 142 25 142 157z" />
    <glyph glyph-name="bracketleft" unicode="[" horiz-adv-x="387" 
d="M348 -111v-100h-255v1010h255v-99h-148v-811h148z" />
    <glyph glyph-name="bracketright" unicode="]" horiz-adv-x="387" 
d="M39 702v100h255v-1010h-255v99h148v811h-148z" />
    <glyph glyph-name="braceleft.case" horiz-adv-x="426" 
d="M246 605v-91c0 -126 -70 -157 -82 -159c12 -3 82 -39 82 -160v-91c0 -132 66 -156 140 -156v-99c-155 0 -245 85 -245 242v100c0 115 -65 114 -71 115v98c6 1 71 0 71 115v99c0 158 90 242 245 242v-99c-74 0 -140 -24 -140 -156z" />
    <glyph glyph-name="braceright.case" horiz-adv-x="426" 
d="M180 104v91c0 126 71 157 82 159c-11 3 -82 40 -82 160v91c0 132 -66 156 -140 156v99c155 0 245 -84 245 -242v-99c0 -116 65 -114 71 -115v-99c-6 -1 -71 1 -71 -115v-99c0 -157 -90 -242 -245 -242v99c74 0 140 24 140 156z" />
    <glyph glyph-name="bracketleft.case" horiz-adv-x="387" 
d="M348 -47v-104h-255v1010h255v-103h-144v-803h144z" />
    <glyph glyph-name="bracketright.case" horiz-adv-x="387" 
d="M39 756v103h255v-1009h-255v103h144v803h-144z" />
    <glyph glyph-name="parenleft.case" horiz-adv-x="376" 
d="M326 863l31 -104c-135 -46 -193 -175 -193 -402s58 -356 193 -401l-31 -105c-122 44 -273 162 -273 506s151 462 273 506z" />
    <glyph glyph-name="parenright.case" horiz-adv-x="376" 
d="M49 -144l-30 104c135 46 193 175 193 402s-58 356 -193 401l30 105c123 -44 273 -162 273 -506s-150 -462 -273 -506z" />
    <glyph glyph-name="parenleft" unicode="(" horiz-adv-x="375" 
d="M326 795l30 -101c-136 -45 -196 -180 -196 -405c0 -224 60 -360 196 -405l-30 -101c-129 45 -273 166 -273 506c0 341 144 461 273 506z" />
    <glyph glyph-name="parenright" unicode=")" horiz-adv-x="375" 
d="M49 -216l-30 101c136 45 196 180 196 404c0 225 -59 361 -196 406l30 100c129 -44 273 -165 273 -506c0 -340 -144 -460 -273 -505z" />
    <glyph glyph-name="emdash.case" horiz-adv-x="987" 
d="M899 312h-797v92h797v-92z" />
    <glyph glyph-name="endash.case" 
d="M573 312h-479v91h479v-91z" />
    <glyph glyph-name="hyphen.case" horiz-adv-x="563" 
d="M483 312h-389v91h389v-91z" />
    <glyph glyph-name="softhyphen.case" horiz-adv-x="578" 
d="M483 312h-389v91h389v-91z" />
    <glyph glyph-name="emdash" unicode="&#x2014;" horiz-adv-x="987" 
d="M892 240h-798v92h798v-92z" />
    <glyph glyph-name="endash" unicode="&#x2013;" 
d="M573 240h-479v92h479v-92z" />
    <glyph glyph-name="hyphen" unicode="-" horiz-adv-x="578" 
d="M483 240h-389v92h389v-92z" />
    <glyph glyph-name="softhyphen" unicode="&#xad;" horiz-adv-x="578" 
d="M483 240h-389v92h389v-92z" />
    <glyph glyph-name="guillemotleft.case" horiz-adv-x="677" 
d="M296 586l60 -61l-177 -171v-4l178 -171l-62 -62l-235 235zM556 586l60 -61l-177 -171v-4l178 -171l-62 -62l-235 235z" />
    <glyph glyph-name="guillemotright.case" horiz-adv-x="677" 
d="M122 117l-62 62l178 171v4l-177 171l60 61l236 -234zM382 117l-62 62l178 171v4l-177 171l60 61l236 -234z" />
    <glyph glyph-name="guilsinglleft.case" horiz-adv-x="417" 
d="M296 586l60 -61l-177 -171v-4l178 -171l-62 -62l-235 235z" />
    <glyph glyph-name="guilsinglright.case" horiz-adv-x="417" 
d="M122 117l-62 62l178 171v4l-177 171l60 61l236 -234z" />
    <glyph glyph-name="guillemotleft" unicode="&#xab;" horiz-adv-x="677" 
d="M296 514l60 -61l-177 -172v-3l178 -171l-62 -62l-235 235zM556 514l60 -61l-177 -172v-3l178 -171l-62 -62l-235 235z" />
    <glyph glyph-name="guillemotright" unicode="&#xbb;" horiz-adv-x="677" 
d="M122 45l-62 62l178 171v3l-177 172l60 61l236 -234zM382 45l-62 62l178 171v3l-177 172l60 61l236 -234z" />
    <glyph glyph-name="guilsinglleft" unicode="&#x2039;" horiz-adv-x="417" 
d="M296 514l60 -61l-177 -172v-3l178 -171l-62 -62l-235 235z" />
    <glyph glyph-name="guilsinglright" unicode="&#x203a;" horiz-adv-x="417" 
d="M122 45l-62 62l178 171v3l-177 172l60 61l236 -234z" />
    <glyph glyph-name="quotedblbase" unicode="&#x201e;" horiz-adv-x="434" 
d="M299 3c-29 -3 -49 16 -49 47c0 32 24 56 61 56c42 0 71 -28 71 -77c0 -51 -36 -112 -100 -133l-42 48c29 9 53 36 59 59zM109 3c-30 -3 -49 16 -49 47c0 32 24 56 61 56c42 0 71 -28 71 -77c0 -51 -36 -112 -100 -133l-42 48c28 9 52 36 59 59z" />
    <glyph glyph-name="quotedblleft" unicode="&#x201c;" horiz-adv-x="443" 
d="M133 603c29 3 49 -16 49 -47c0 -32 -24 -56 -62 -56c-41 0 -70 29 -70 77c0 51 36 112 100 133l42 -48c-29 -9 -53 -36 -59 -59zM332 603c29 3 49 -16 49 -47c0 -32 -24 -56 -62 -56c-41 0 -70 29 -70 77c0 51 36 112 100 133l42 -48c-29 -9 -53 -36 -59 -59z" />
    <glyph glyph-name="quotedblright" unicode="&#x201d;" horiz-adv-x="443" 
d="M308 610c-30 -3 -49 16 -49 47s24 55 61 55c42 0 71 -28 71 -77c0 -51 -36 -112 -100 -133l-42 48c28 9 52 36 59 60zM109 610c-30 -3 -49 16 -49 47s24 55 61 55c42 0 71 -28 71 -77c0 -51 -36 -112 -100 -133l-42 48c28 9 52 36 59 60z" />
    <glyph glyph-name="quoteleft" unicode="&#x2018;" horiz-adv-x="244" 
d="M135 603c29 3 49 -16 49 -47c0 -32 -24 -56 -62 -56c-41 0 -70 29 -70 77c0 51 36 112 100 133l42 -48c-29 -9 -53 -36 -59 -59z" />
    <glyph glyph-name="quoteright" unicode="&#x2019;" horiz-adv-x="244" 
d="M109 610c-30 -3 -49 16 -49 47s24 55 61 55c42 0 71 -28 71 -77c0 -51 -36 -112 -100 -133l-42 48c28 9 52 36 59 60z" />
    <glyph glyph-name="quotesinglbase" unicode="&#x201a;" horiz-adv-x="244" 
d="M109 3c-30 -3 -49 16 -49 47c0 32 24 56 61 56c42 0 71 -28 71 -77c0 -51 -36 -112 -100 -133l-42 48c28 9 52 36 59 59z" />
    <glyph glyph-name="asterisk" unicode="*" horiz-adv-x="481" 
d="M298 514l70 -97l-59 -43l-69 99l-68 -99l-60 42l70 98l-112 34l22 69l112 -36v119h72v-119l113 36l22 -69z" />
    <glyph glyph-name="backslash" unicode="\" horiz-adv-x="505" 
d="M485 0h-115l-350 700h113z" />
    <glyph glyph-name="bullet" unicode="&#x2022;" horiz-adv-x="325" 
d="M163 196c-54 0 -93 36 -93 89c0 52 39 88 93 88c53 0 92 -36 92 -88c0 -53 -39 -89 -92 -89z" />
    <glyph glyph-name="bullet.case" horiz-adv-x="342" 
d="M171 257c-59 0 -101 40 -101 98c0 57 42 97 101 97s102 -39 102 -97s-43 -98 -102 -98z" />
    <glyph glyph-name="colon.case" horiz-adv-x="244" 
d="M122 453c-43 0 -65 27 -65 60c0 34 23 60 65 60s64 -26 64 -60c0 -33 -22 -60 -64 -60zM122 118c-43 0 -65 27 -65 61c0 33 23 59 65 59s64 -26 64 -59c0 -34 -22 -61 -64 -61z" />
    <glyph glyph-name="numbersign.case" horiz-adv-x="663" 
d="M472 249h75l-29 -101h-74l-40 -148h-97l40 148h-140l-40 -148h-97l40 148h-75l28 101h75l54 197h-75l28 102h75l41 152h98l-42 -152h140l41 152h97l-41 -152h74l-28 -102h-74zM289 446l-54 -197h140l54 197h-140z" />
    <glyph glyph-name="periodcentered.case" horiz-adv-x="244" 
d="M122 289c-43 0 -65 27 -65 60s23 59 65 59s64 -26 64 -59c0 -34 -22 -60 -64 -60z" />
    <glyph glyph-name="semicolon.case" horiz-adv-x="244" 
d="M122 453c-43 0 -65 27 -65 60c0 34 23 60 65 60s64 -26 64 -60c0 -33 -22 -60 -64 -60zM109 127c-30 -3 -49 16 -49 47s24 55 61 55c42 0 71 -28 71 -76c0 -52 -36 -112 -100 -133l-42 46c30 9 52 37 59 61z" />
    <glyph glyph-name="colon" unicode=":" horiz-adv-x="244" 
d="M122 332c-43 0 -65 27 -65 60s23 59 65 59s64 -26 64 -59c0 -34 -22 -60 -64 -60zM122 -9c-43 0 -65 27 -65 60s23 59 65 59s64 -26 64 -59c0 -34 -22 -60 -64 -60z" />
    <glyph glyph-name="comma" unicode="," horiz-adv-x="244" 
d="M109 5c-30 -3 -49 16 -49 47c0 32 24 56 61 56c42 0 71 -29 71 -77c0 -51 -36 -111 -100 -132l-42 45c30 9 52 38 59 61z" />
    <glyph glyph-name="ellipsis" unicode="&#x2026;" horiz-adv-x="721" 
d="M110 -11c-35 0 -53 23 -53 50s19 49 53 49c35 0 53 -22 53 -49c0 -28 -18 -50 -53 -50zM355 -11c-35 0 -53 23 -53 50s19 49 53 49c35 0 53 -22 53 -49c0 -28 -18 -50 -53 -50zM611 -11c-36 0 -54 23 -54 50s19 49 54 49c34 0 53 -22 53 -49c0 -28 -19 -50 -53 -50z" />
    <glyph glyph-name="exclam" unicode="!" horiz-adv-x="290" 
d="M200 700v-526h-110v526h110zM145 -9c-42 0 -64 27 -64 60s22 59 64 59c43 0 65 -26 65 -59c0 -34 -22 -60 -65 -60z" />
    <glyph glyph-name="exclamdown" unicode="&#xa1;" horiz-adv-x="290" 
d="M145 709c43 0 65 -27 65 -60s-22 -59 -65 -59c-42 0 -64 26 -64 59c0 34 22 60 64 60zM90 0v526h111v-526h-111z" />
    <glyph glyph-name="numbersign" unicode="#" horiz-adv-x="663" 
d="M467 191h86l-27 -96h-85l-26 -95h-91l25 95h-137l-25 -95h-91l25 95h-86l27 96h86l47 179h-85l27 96h84l26 94h91l-25 -94h136l26 94h91l-25 -94h87l-27 -96h-86zM287 370l-48 -179h136l48 179h-136z" />
    <glyph glyph-name="period" unicode="." horiz-adv-x="244" 
d="M122 -9c-43 0 -65 27 -65 60s23 59 65 59s64 -26 64 -59c0 -34 -22 -60 -64 -60z" />
    <glyph glyph-name="periodcentered" unicode="&#xb7;" horiz-adv-x="244" 
d="M122 222c-43 0 -65 27 -65 60s23 59 65 59s64 -26 64 -59c0 -34 -22 -60 -64 -60z" />
    <glyph glyph-name="question" unicode="?" horiz-adv-x="568" 
d="M219 174v175c155 53 202 94 202 153c0 50 -30 107 -131 107c-90 0 -131 -41 -151 -108l-104 28c29 116 123 185 260 185c160 0 238 -94 238 -198c0 -124 -105 -183 -202 -219v-123h-112zM274 -9c-43 0 -65 27 -65 60s23 59 65 59s65 -26 65 -59c0 -34 -23 -60 -65 -60z
" />
    <glyph glyph-name="questiondown" unicode="&#xbf;" horiz-adv-x="568" 
d="M293 709c43 0 65 -27 65 -60s-22 -59 -65 -59c-42 0 -64 26 -64 59c0 34 22 60 64 60zM348 526v-175c-155 -53 -201 -94 -201 -153c0 -50 29 -107 131 -107c90 0 130 41 151 108l104 -28c-30 -116 -124 -185 -260 -185c-160 0 -238 94 -238 198c0 124 104 183 202 219
v123h111z" />
    <glyph glyph-name="quotedbl" unicode="&#x22;" horiz-adv-x="374" 
d="M153 700l-6 -237h-91l-6 237h103zM323 700l-6 -237h-92l-6 237h104z" />
    <glyph glyph-name="quotesingle" unicode="'" horiz-adv-x="205" 
d="M153 700l-6 -237h-91l-6 237h103z" />
    <glyph glyph-name="semicolon" unicode=";" horiz-adv-x="244" 
d="M122 332c-43 0 -65 27 -65 60s23 59 65 59s64 -26 64 -59c0 -34 -22 -60 -64 -60zM109 6c-30 -3 -49 16 -49 47s24 55 61 55c42 0 71 -28 71 -77c0 -51 -36 -111 -100 -132l-42 45c30 10 52 38 59 62z" />
    <glyph glyph-name="slash" unicode="/" horiz-adv-x="505" 
d="M485 700l-350 -700h-115l352 700h113z" />
    <glyph glyph-name="underscore" unicode="_" horiz-adv-x="732" 
d="M662 -87h-592v87h592v-87z" />
    <glyph glyph-name="space.dnom" horiz-adv-x="118" 
 />
    <glyph glyph-name="uni2003" unicode="&#x2003;" horiz-adv-x="625" 
 />
    <glyph glyph-name="enspace" unicode="&#x2002;" horiz-adv-x="350" 
 />
    <glyph glyph-name="uni2007" unicode="&#x2007;" 
 />
    <glyph glyph-name="uni200A" unicode="&#x200a;" horiz-adv-x="40" 
 />
    <glyph glyph-name="space.numr" horiz-adv-x="118" 
 />
    <glyph glyph-name="uni2008" unicode="&#x2008;" horiz-adv-x="244" 
 />
    <glyph glyph-name="space" unicode=" " horiz-adv-x="250" 
 />
    <glyph glyph-name="space.sups" horiz-adv-x="118" 
 />
    <glyph glyph-name="uni2009" unicode="&#x2009;" horiz-adv-x="125" 
 />
    <glyph glyph-name="zerowidthspace" unicode="&#x200b;" horiz-adv-x="0" 
 />
    <glyph glyph-name="cent" unicode="&#xa2;" horiz-adv-x="581" 
d="M298 111c67 0 118 33 145 89l98 -26c-35 -84 -110 -141 -199 -156v-100h-89v100c-125 20 -218 121 -218 266c0 140 86 239 217 258v104h90v-104c86 -12 167 -60 202 -158l-97 -27c-25 58 -73 96 -146 96c-102 0 -164 -67 -164 -169c0 -106 65 -173 161 -173z" />
    <glyph glyph-name="currency" unicode="&#xa4;" horiz-adv-x="650" 
d="M607 509l-70 -70c34 -44 55 -100 55 -159c0 -58 -20 -112 -52 -156l70 -71l-55 -56l-71 71c-44 -34 -100 -55 -160 -55s-114 20 -158 54l-71 -70l-56 56l71 71c-32 44 -52 97 -52 156s21 115 55 159l-70 70l55 56l71 -70c43 32 97 51 155 51c59 0 113 -19 157 -51l70 70z
M325 448c-93 0 -168 -73 -168 -168c0 -98 75 -168 168 -168c94 0 167 70 167 168c0 95 -73 168 -167 168z" />
    <glyph glyph-name="dollar" unicode="$" horiz-adv-x="483" 
d="M451 155c0 -96 -65 -152 -162 -164v-81h-86v81c-75 10 -153 47 -171 149l96 25c7 -53 48 -95 121 -95c59 0 99 27 99 80c0 75 -78 83 -155 103c-70 18 -151 47 -151 157c0 91 57 146 152 158v82h87v-82c88 -10 145 -56 164 -135l-91 -24c-11 50 -45 81 -114 81
c-68 0 -99 -31 -99 -75c0 -59 50 -73 128 -91c77 -18 182 -44 182 -169z" />
    <glyph glyph-name="Euro" unicode="&#x20ac;" horiz-adv-x="597" 
d="M456 164l103 -27c-26 -75 -95 -148 -230 -148c-125 0 -214 59 -245 188h-49v79h39l-1 31v16h-38v79h47c26 126 110 189 242 189c114 0 208 -48 233 -160l-102 -28c-12 44 -45 94 -130 94c-71 0 -111 -34 -128 -95h145v-79h-156v-16c0 -11 0 -21 1 -31h155v-79h-142
c20 -62 64 -92 133 -92c59 0 101 24 123 79z" />
    <glyph glyph-name="cent.lf" horiz-adv-x="581" 
d="M298 180c67 0 118 33 145 89l98 -27c-35 -83 -110 -141 -199 -155v-101h-89v101c-125 20 -218 121 -218 265c0 140 86 240 217 258v104h90v-104c86 -12 167 -59 202 -158l-97 -27c-25 59 -73 97 -146 97c-102 0 -164 -67 -164 -170c0 -105 65 -172 161 -172z" />
    <glyph glyph-name="currency.lf" horiz-adv-x="650" 
d="M607 569l-70 -70c34 -44 55 -100 55 -160c0 -57 -20 -111 -52 -155l70 -71l-55 -56l-71 71c-44 -34 -100 -55 -160 -55s-114 20 -158 54l-71 -70l-56 56l71 71c-32 44 -52 97 -52 155c0 60 21 116 55 160l-70 70l55 56l71 -70c43 32 97 51 155 51c59 0 113 -19 157 -51
l70 70zM325 508c-93 0 -168 -73 -168 -169c0 -97 75 -167 168 -167c94 0 167 70 167 167c0 96 -73 169 -167 169z" />
    <glyph glyph-name="dollar.lf" horiz-adv-x="568" 
d="M534 193c0 -117 -72 -191 -198 -204v-79h-92v80c-92 12 -188 59 -212 191l104 28c8 -84 76 -124 159 -124c74 0 128 33 128 103c0 95 -93 106 -182 129c-77 20 -189 59 -189 200c0 115 73 182 192 195v83h93v-84c101 -14 173 -71 196 -181l-103 -30
c-16 81 -74 116 -148 116c-78 0 -119 -37 -119 -95c0 -75 69 -93 156 -116c108 -30 215 -70 215 -212z" />
    <glyph glyph-name="Euro.lf" horiz-adv-x="669" 
d="M529 196l103 -28c-36 -102 -113 -180 -260 -180s-249 78 -284 232h-53v97h41l-1 34v30h-40v97h51c30 158 124 234 278 234c138 0 236 -60 265 -195l-104 -28c-16 62 -50 128 -161 128c-98 0 -148 -47 -168 -139h216v-97h-226v-20c0 -15 0 -30 1 -44h225v-97h-212
c24 -93 78 -131 169 -131c71 0 129 26 160 107z" />
    <glyph glyph-name="uni20BA.lf" horiz-adv-x="650" 
d="M506 265l101 -28c-26 -138 -115 -237 -307 -237h-159v248l-71 -18v95l71 19v65l-71 -18v95l71 19v195h110v-167l135 36v-96l-135 -35v-66l135 36v-96l-135 -35v-179h44c143 0 193 75 211 167z" />
    <glyph glyph-name="uni20B9.lf" horiz-adv-x="562" 
d="M387 603l-1 -3c12 -15 24 -34 33 -61h113v-97h-101c-5 -110 -74 -175 -189 -193l184 -249h-131l-192 268v70h67c97 0 147 34 157 104h-257v97h246c-20 47 -65 64 -126 64h-120v97h462v-97h-145z" />
    <glyph glyph-name="sterling.lf" horiz-adv-x="595" 
d="M555 98v-98h-513v98c61 12 73 53 73 115c0 26 -2 56 -5 87h-69v88h60c-5 44 -9 87 -9 124c0 128 81 202 215 202c98 0 213 -34 237 -198l-100 -27c-13 88 -53 128 -130 128c-76 0 -120 -38 -120 -128c0 -27 4 -63 8 -101h227v-88h-215c3 -33 6 -63 6 -86
c0 -53 -10 -99 -44 -116l1 -3c3 0 80 3 191 3h187z" />
    <glyph glyph-name="yen.lf" horiz-adv-x="597" 
d="M458 478h93v-97h-144l-35 -64h179v-97h-197v-220h-111v220h-187v97h169l-35 64h-134v97h83l-119 222h122l119 -234c16 -31 40 -84 41 -85h2c1 1 27 55 42 86l115 233h116z" />
    <glyph glyph-name="uni20BA" unicode="&#x20ba;" horiz-adv-x="565" 
d="M431 218l99 -27c-21 -108 -99 -191 -260 -191h-149v190l-59 -15v79l59 15v47l-59 -15v79l59 15v165h105v-137l109 28v-79l-109 -29v-46l109 28v-79l-109 -29v-119h39c115 0 153 60 166 120z" />
    <glyph glyph-name="uni20B9" unicode="&#x20b9;" horiz-adv-x="497" 
d="M467 356h-94c-9 -87 -81 -141 -164 -154l134 -202h-120l-128 205v83h72c55 0 95 19 106 68h-203v79h196c-17 34 -56 46 -106 46h-90v79h397v-79h-120l-2 -2c6 -6 14 -22 21 -44h101v-79z" />
    <glyph glyph-name="sterling" unicode="&#xa3;" horiz-adv-x="517" 
d="M477 98v-98h-441v98c49 8 58 35 58 81c0 15 -1 32 -3 50h-56v83h47c-3 34 -7 68 -7 99c0 96 67 160 186 160c90 0 188 -30 208 -162l-97 -26c-13 71 -47 97 -107 97c-55 0 -88 -31 -88 -95c0 -20 3 -46 6 -73h186v-83h-176c3 -20 4 -37 4 -50c0 -39 -7 -67 -32 -80l1 -3
c2 0 69 2 154 2h157z" />
    <glyph glyph-name="cent.tf" 
d="M343 180c67 0 118 33 145 89l98 -27c-35 -83 -110 -141 -199 -155v-101h-89v101c-125 20 -218 121 -218 265c0 140 86 240 217 258v104h90v-104c86 -12 167 -59 202 -158l-97 -27c-25 59 -73 97 -146 97c-102 0 -164 -67 -164 -170c0 -105 65 -172 161 -172z" />
    <glyph glyph-name="currency.tf" 
d="M616 569l-70 -70c34 -44 55 -100 55 -160c0 -57 -20 -111 -52 -155l70 -71l-55 -56l-71 71c-44 -34 -100 -55 -160 -55s-114 20 -158 54l-71 -70l-56 56l71 71c-32 44 -52 97 -52 155c0 60 21 116 55 160l-70 70l55 56l71 -70c43 32 97 51 155 51s113 -19 157 -51l70 70z
M333 508c-92 0 -167 -73 -167 -169c0 -97 75 -167 167 -167c95 0 168 70 168 167c0 96 -73 169 -168 169z" />
    <glyph glyph-name="dollar.tf" 
d="M580 193c0 -117 -72 -191 -198 -204v-79h-91v80c-93 12 -189 59 -212 191l104 28c7 -84 76 -124 158 -124c74 0 128 33 128 103c0 95 -93 106 -181 129c-77 20 -189 59 -189 200c0 115 73 182 192 195v83h92v-84c101 -14 173 -71 197 -181l-104 -30
c-16 81 -73 116 -148 116c-78 0 -118 -37 -118 -95c0 -75 68 -93 156 -116c107 -30 214 -70 214 -212z" />
    <glyph glyph-name="Euro.tf" 
d="M522 196l103 -28c-36 -102 -113 -180 -260 -180c-148 0 -249 78 -284 232h-53v97h41l-1 34v30h-40v97h51c30 158 124 234 278 234c137 0 236 -60 265 -195l-104 -28c-16 62 -50 128 -161 128c-98 0 -148 -47 -168 -139h216v-97h-226v-20c0 -15 0 -30 1 -44h225v-97h-212
c24 -93 78 -131 169 -131c71 0 129 26 160 107z" />
    <glyph glyph-name="uni20BA.tf" 
d="M519 265l101 -28c-26 -138 -116 -237 -308 -237h-159v248l-71 -18v95l71 19v65l-71 -18v95l71 19v195h110v-167l136 36v-96l-136 -35v-66l136 36v-96l-136 -35v-179h45c143 0 192 75 211 167z" />
    <glyph glyph-name="uni20B9.tf" 
d="M444 603l-2 -3c12 -15 25 -34 34 -61h113v-97h-101c-5 -110 -75 -175 -189 -193l184 -249h-131l-192 268v70h67c97 0 147 34 157 104h-257v97h246c-20 47 -65 64 -127 64h-119v97h462v-97h-145z" />
    <glyph glyph-name="sterling.tf" 
d="M595 98v-98h-513v98c61 12 73 53 73 115c0 26 -2 56 -5 87h-69v88h60c-5 44 -9 87 -9 124c0 128 81 202 214 202c99 0 214 -34 238 -198l-101 -27c-12 88 -52 128 -130 128c-75 0 -119 -38 -119 -128c0 -27 4 -63 8 -101h227v-88h-216c4 -33 7 -63 7 -86
c0 -53 -10 -99 -44 -116l1 -3c3 0 80 3 191 3h187z" />
    <glyph glyph-name="yen.tf" 
d="M494 478h93v-97h-145l-34 -64h179v-97h-198v-220h-110v220h-187v97h168l-34 64h-134v97h82l-118 222h121l120 -234c15 -31 40 -84 41 -85h2c1 1 26 55 42 86l114 233h117z" />
    <glyph glyph-name="cent.tosf" 
d="M343 111c67 0 118 33 145 89l98 -26c-35 -84 -110 -141 -199 -156v-100h-89v100c-125 20 -218 121 -218 266c0 140 86 239 217 258v104h90v-104c86 -12 167 -60 202 -158l-97 -27c-25 58 -73 96 -146 96c-102 0 -164 -67 -164 -169c0 -106 65 -173 161 -173z" />
    <glyph glyph-name="currency.tosf" 
d="M616 509l-70 -70c34 -44 55 -100 55 -159c0 -58 -20 -112 -52 -156l70 -71l-55 -56l-71 71c-44 -34 -100 -55 -160 -55s-114 20 -158 54l-71 -70l-56 56l71 71c-32 44 -52 97 -52 156s21 115 55 159l-70 70l55 56l71 -70c43 32 97 51 155 51s113 -19 157 -51l70 70z
M333 448c-92 0 -167 -73 -167 -168c0 -98 75 -168 167 -168c95 0 168 70 168 168c0 95 -73 168 -168 168z" />
    <glyph glyph-name="dollar.tosf" 
d="M543 155c0 -96 -65 -152 -162 -164v-81h-86v81c-75 10 -153 47 -171 149l96 25c7 -53 48 -95 121 -95c59 0 98 27 98 80c0 75 -77 83 -154 103c-70 18 -151 47 -151 157c0 91 57 146 152 158v82h87v-82c87 -10 145 -56 164 -135l-92 -24c-10 50 -44 81 -114 81
c-67 0 -98 -31 -98 -75c0 -59 50 -73 128 -91c77 -18 182 -44 182 -169z" />
    <glyph glyph-name="Euro.tosf" 
d="M484 164l103 -27c-26 -75 -95 -148 -229 -148c-126 0 -215 59 -246 188h-49v79h39l-1 31v16h-37v79h46c26 126 110 189 243 189c114 0 207 -48 232 -160l-102 -28c-12 44 -44 94 -130 94c-71 0 -110 -34 -128 -95h145v-79h-156v-16c0 -11 0 -21 1 -31h155v-79h-142
c20 -62 64 -92 134 -92c58 0 100 24 122 79z" />
    <glyph glyph-name="uni20BA.tosf" 
d="M509 218l98 -27c-21 -108 -98 -191 -260 -191h-148v190l-59 -15v79l59 15v47l-59 -15v79l59 15v165h105v-137l108 28v-79l-108 -29v-46l108 28v-79l-108 -29v-119h38c115 0 153 60 167 120z" />
    <glyph glyph-name="uni20B9.tosf" 
d="M562 356h-94c-9 -87 -81 -141 -164 -154l134 -202h-120l-128 205v83h72c55 0 95 19 106 68h-203v79h196c-17 34 -56 46 -106 46h-90v79h397v-79h-120l-2 -2c6 -6 14 -22 21 -44h101v-79z" />
    <glyph glyph-name="sterling.tosf" 
d="M565 98v-98h-442v98c50 8 58 35 58 81c0 15 -1 32 -2 50h-57v83h48c-4 34 -7 68 -7 99c0 96 67 160 185 160c91 0 189 -30 209 -162l-98 -26c-13 71 -47 97 -107 97c-54 0 -87 -31 -87 -95c0 -20 2 -46 5 -73h187v-83h-176c2 -20 4 -37 4 -50c0 -39 -7 -67 -33 -80l2 -3
c2 0 69 2 153 2h158z" />
    <glyph glyph-name="yen.tosf" 
d="M474 382h64v-79h-107l-25 -47h132v-79h-153v-177h-104v177h-150v79h129l-25 47h-104v79h62l-96 178h116l83 -170c14 -29 37 -70 38 -72h2c1 2 24 43 38 72l83 170h113z" />
    <glyph glyph-name="yen" unicode="&#xa5;" horiz-adv-x="513" 
d="M396 382h65v-79h-107l-25 -47h132v-79h-153v-177h-105v177h-150v79h130l-25 47h-105v79h63l-96 178h116l83 -170c13 -29 36 -70 37 -72h3c1 2 24 43 37 72l84 170h113z" />
    <glyph glyph-name="asciitilde" unicode="~" 
d="M536 352l17 -89c-11 -15 -53 -46 -112 -46c-76 0 -128 42 -206 42c-46 0 -82 -24 -102 -45l-19 88c13 16 55 49 114 49c76 0 127 -42 205 -42c46 0 83 24 103 43z" />
    <glyph glyph-name="asciitilde.case" 
d="M536 422l17 -88c-11 -16 -53 -47 -112 -47c-76 0 -128 42 -206 42c-46 0 -82 -24 -102 -45l-19 88c13 16 55 49 114 49c76 0 127 -42 205 -42c46 0 83 24 103 43z" />
    <glyph glyph-name="divide.case" 
d="M335 489c-43 0 -65 27 -65 60s22 59 65 59c42 0 64 -26 64 -59s-22 -60 -64 -60zM528 312h-389v92h389v-92zM335 110c-43 0 -65 27 -65 60s22 59 65 59c42 0 64 -26 64 -59c0 -34 -22 -60 -64 -60z" />
    <glyph glyph-name="equal.case" 
d="M528 412h-389v92h389v-92zM528 212h-389v92h389v-92z" />
    <glyph glyph-name="greater.case" 
d="M453 355v3l-329 150v96l451 -210v-76l-451 -210v96z" />
    <glyph glyph-name="greaterequal.case" 
d="M458 412v3l-349 120v95l451 -164v-106l-451 -164v95zM560 0h-451v92h451v-92z" />
    <glyph glyph-name="less.case" 
d="M544 108l-451 210v76l451 210v-96l-329 -150v-3l329 -151v-96z" />
    <glyph glyph-name="lessequal.case" 
d="M559 196l-451 164v106l451 164v-95l-349 -120v-3l349 -121v-95zM559 92v-92h-451v92h451z" />
    <glyph glyph-name="minus.case" 
d="M528 312h-389v92h389v-92z" />
    <glyph glyph-name="multiply.case" 
d="M401 356l120 -120l-67 -66l-120 119l-120 -119l-66 66l120 120l-121 120l67 66l120 -119l120 119l67 -66z" />
    <glyph glyph-name="notequal.case" 
d="M404 412l-46 -108h170v-92h-210l-47 -109h-94l47 109h-85v92h126l47 108h-173v92h213l48 110h92l-48 -110h84v-92h-124z" />
    <glyph glyph-name="plus.case" 
d="M528 312h-145v-158h-97l-1 158h-146v92h146v157h97l1 -157h145v-92z" />
    <glyph glyph-name="plusminus.case" 
d="M528 455v-92h-145v-165h-98v165h-146v92h146v164h98v-164h145zM139 92h389v-92h-389v92z" />
    <glyph glyph-name="divide" unicode="&#xf7;" 
d="M335 417c-43 0 -65 27 -65 60s22 59 65 59c42 0 64 -26 64 -59c0 -34 -22 -60 -64 -60zM528 240h-389v92h389v-92zM335 37c-43 0 -65 28 -65 61s22 59 65 59c42 0 64 -26 64 -59c0 -34 -22 -61 -64 -61z" />
    <glyph glyph-name="equal" unicode="=" 
d="M528 342h-389v92h389v-92zM528 142h-389v92h389v-92z" />
    <glyph glyph-name="greater" unicode="&#x3e;" 
d="M453 284v3l-329 151v96l451 -210v-76l-451 -210v96z" />
    <glyph glyph-name="greaterequal" unicode="&#x2265;" 
d="M458 341v3l-349 120v96l451 -164v-107l-451 -164v96zM560 0h-451v92h451v-92z" />
    <glyph glyph-name="less" unicode="&#x3c;" 
d="M544 38l-451 210v76l451 210v-96l-329 -151v-3l329 -150v-96z" />
    <glyph glyph-name="lessequal" unicode="&#x2264;" 
d="M559 125l-451 164v107l451 164v-96l-349 -120v-3l349 -120v-96zM559 92v-92h-451v92h451z" />
    <glyph glyph-name="percent.lf" horiz-adv-x="823" 
d="M183 303c-92 0 -149 63 -149 202s57 203 149 203c91 0 147 -64 147 -203s-56 -202 -147 -202zM556 700l-210 -700h-79l209 700h80zM183 373c46 0 70 37 70 132c0 96 -24 133 -70 133c-47 0 -72 -37 -72 -133c0 -95 25 -132 72 -132zM641 -7c-91 0 -148 63 -148 201
c0 140 57 203 148 203s148 -63 148 -203c0 -138 -57 -201 -148 -201zM641 62c47 0 71 38 71 132c0 96 -24 133 -71 133c-46 0 -72 -37 -72 -133c0 -94 26 -132 72 -132z" />
    <glyph glyph-name="perthousand.lf" horiz-adv-x="1178" 
d="M183 303c-92 0 -149 63 -149 202s57 203 149 203c91 0 147 -64 147 -203s-56 -202 -147 -202zM556 700l-210 -700h-79l209 700h80zM183 373c46 0 70 37 70 132c0 96 -24 133 -70 133c-47 0 -72 -37 -72 -133c0 -95 25 -132 72 -132zM641 -7c-91 0 -148 63 -148 201
c0 140 57 203 148 203s148 -63 148 -203c0 -138 -57 -201 -148 -201zM996 -7c-91 0 -148 63 -148 201c0 140 57 203 148 203s148 -63 148 -203c0 -138 -57 -201 -148 -201zM641 62c47 0 71 38 71 132c0 96 -24 133 -71 133c-46 0 -72 -37 -72 -133c0 -94 26 -132 72 -132z
M996 62c47 0 71 38 71 132c0 96 -24 133 -71 133c-46 0 -72 -37 -72 -133c0 -94 26 -132 72 -132z" />
    <glyph glyph-name="minus" unicode="&#x2212;" 
d="M528 240h-389v92h389v-92z" />
    <glyph glyph-name="multiply" unicode="&#xd7;" 
d="M401 287l120 -120l-67 -67l-120 120l-120 -120l-66 67l120 120l-121 120l67 66l120 -119l120 119l67 -66z" />
    <glyph glyph-name="notequal" unicode="&#x2260;" 
d="M404 342l-46 -108h170v-92h-210l-47 -109h-94l47 109h-85v92h126l47 108h-173v92h213l48 110h92l-48 -110h84v-92h-124z" />
    <glyph glyph-name="percent" unicode="%" horiz-adv-x="723" 
d="M167 221c-92 0 -133 63 -133 175c0 111 41 175 133 175s132 -64 132 -175c0 -112 -40 -175 -132 -175zM490 560l-188 -560h-70l188 560h70zM167 294c39 0 61 23 61 102c0 78 -22 102 -61 102c-40 0 -61 -24 -61 -102c0 -79 21 -102 61 -102zM557 -6
c-92 0 -133 63 -133 174c0 112 41 175 133 175c91 0 132 -63 132 -175c0 -111 -41 -174 -132 -174zM557 66c39 0 61 24 61 102c0 79 -22 103 -61 103s-61 -24 -61 -103c0 -78 21 -102 61 -102z" />
    <glyph glyph-name="perthousand" unicode="&#x2030;" horiz-adv-x="1023" 
d="M167 221c-92 0 -133 63 -133 175c0 111 41 175 133 175s132 -64 132 -175c0 -112 -40 -175 -132 -175zM490 560l-188 -560h-70l188 560h70zM167 294c39 0 61 23 61 102c0 78 -22 102 -61 102c-40 0 -61 -24 -61 -102c0 -79 21 -102 61 -102zM856 -6
c-92 0 -133 63 -133 174c0 112 41 175 133 175s133 -63 133 -175c0 -111 -41 -174 -133 -174zM557 -6c-92 0 -133 63 -133 174c0 112 41 175 133 175c91 0 132 -63 132 -175c0 -111 -41 -174 -132 -174zM557 66c39 0 61 24 61 102c0 79 -22 103 -61 103s-61 -24 -61 -103
c0 -78 21 -102 61 -102zM856 66c39 0 61 24 61 102c0 79 -22 103 -61 103c-40 0 -61 -24 -61 -103c0 -78 21 -102 61 -102z" />
    <glyph glyph-name="plus" unicode="+" 
d="M528 240h-145v-158h-97l-1 158h-146v92h146v157h97l1 -157h145v-92z" />
    <glyph glyph-name="plusminus" unicode="&#xb1;" 
d="M528 406v-91h-145v-148h-98v148h-146v91h146v153h98v-153h145zM139 92h389v-91h-389v91z" />
    <glyph glyph-name="percent.tf" 
d="M161 303c-98 0 -137 76 -137 202c0 127 39 203 137 203c99 0 138 -76 138 -203c0 -126 -39 -202 -138 -202zM528 700l-322 -700h-65l322 700h65zM162 383c46 0 60 40 60 122c0 83 -14 123 -60 123c-45 0 -60 -40 -60 -123c0 -82 15 -122 60 -122zM508 -7
c-99 0 -139 75 -139 201c0 127 40 203 139 203c98 0 136 -76 136 -203c0 -126 -38 -201 -136 -201zM508 72c45 0 59 40 59 122c0 84 -14 123 -59 123c-46 0 -61 -39 -61 -123c0 -82 15 -122 61 -122z" />
    <glyph glyph-name="percent.tosf" 
d="M164 221c-89 0 -120 65 -120 175c0 109 31 175 120 175c90 0 120 -66 120 -175c0 -110 -30 -175 -120 -175zM459 560l-188 -560h-65l188 560h65zM164 292c39 0 52 33 52 104c0 70 -13 103 -52 103c-38 0 -51 -33 -51 -103c0 -71 13 -104 51 -104zM505 -6
c-90 0 -121 65 -121 174c0 110 31 176 121 176c89 0 119 -66 119 -176c0 -109 -30 -174 -119 -174zM505 65c38 0 51 33 51 103c0 71 -13 104 -51 104c-39 0 -53 -33 -53 -104c0 -70 14 -103 53 -103z" />
    <glyph glyph-name="lozenge" unicode="&#x25ca;" horiz-adv-x="768" 
d="M384 714l364 -364l-364 -363l-364 363zM384 114l238 236l-238 238l-238 -238z" />
    <glyph glyph-name="ampersand" unicode="&#x26;" horiz-adv-x="616" 
d="M503 240v-59c0 -126 -82 -192 -231 -192c-152 0 -223 68 -223 163c0 75 46 124 104 136v2c-46 10 -99 50 -99 132c0 101 76 149 203 149c118 0 206 -40 241 -146l-96 -26c-17 52 -53 85 -136 85c-77 0 -105 -30 -105 -72c0 -44 32 -79 111 -79h317v-93h-86zM398 240h-130
c-69 0 -113 -26 -113 -82c0 -53 38 -84 118 -84c84 0 125 32 125 108v58z" />
    <glyph glyph-name="uniF8FF" unicode="&#xf8ff;" horiz-adv-x="758" 
d="M688 82v45c-1 196 -13 210 -22 222l-25 29l-11 13l11 12l22 26c12 12 24 24 25 227v44h-44c-202 0 -214 -13 -227 -25l-20 -17l-17 -16l-18 16l-20 19c-12 10 -25 22 -229 23h-43v-44c0 -201 13 -215 23 -227l24 -27l10 -11l-10 -12l-24 -27c-10 -11 -23 -24 -23 -227
v-43h43c200 0 215 13 227 24l27 23l11 10l13 -10l27 -23c12 -11 24 -23 226 -24h44zM243 391l-79 89c-3 20 -5 76 -7 133c57 -1 113 -4 133 -7l88 -81l91 81c20 3 76 6 132 7c-2 -56 -4 -112 -7 -133l-81 -89l81 -91c2 -20 5 -75 7 -130c-57 1 -112 3 -133 7l-90 79l-89 -79
c-20 -4 -76 -6 -132 -7c2 55 4 111 7 132zM74 14l-4 -12c4 -2 9 -3 16 -3c17 0 24 8 24 17c0 8 -6 13 -14 16c-6 2 -11 5 -11 7s3 4 7 4c6 0 10 -3 12 -4l3 12c-3 2 -8 3 -15 3c-13 0 -21 -8 -21 -17c0 -8 6 -13 15 -16c6 -2 9 -4 9 -6c0 -4 -3 -5 -7 -5c-6 0 -11 3 -14 4z
M552 1l-3 12c-2 -2 -5 -3 -9 -3c-9 0 -15 6 -15 16c0 11 7 17 15 17c5 0 7 -1 9 -3l4 12c-2 1 -7 2 -14 2c-16 0 -29 -10 -29 -29c0 -14 8 -26 28 -26c7 0 11 1 14 2zM608 26c0 16 -10 28 -27 28s-27 -12 -27 -28c0 -15 9 -27 27 -27c16 0 27 10 27 27zM142 0v20l17 33h-16
l-8 -23l-7 23h-17l17 -33v-20h14zM178 0l-1 35l19 -35h15v53h-13v-32l-16 32h-18v-53h14zM230 0h13v42h14v11h-41v-11h14v-42zM262 53v-53h15v21h18v-21h14v53h-14v-20h-18v20h-15zM347 0l17 53h-15l-10 -39l-9 39h-16l17 -53h16zM369 53v-53h15v53h-15zM426 32h-19v10h21
v11h-36v-53h36v11h-21v10h19v11zM460 0l7 35l6 -35h16l13 53h-14l-7 -36l-6 36h-15l-6 -36l-7 36h-15l13 -53h15zM673 0l-2 53h-19l-9 -34l-8 34h-19l-4 -53h14l1 40l11 -39h10l11 39v-40h14zM569 26c0 11 5 17 12 17s11 -7 11 -17s-4 -16 -11 -16c-8 0 -12 6 -12 16z
M503 -1c-4 0 -6 3 -6 6c0 4 3 6 6 6c4 0 6 -3 6 -6c0 -4 -3 -6 -6 -6z" />
    <glyph glyph-name="asciicircum" unicode="^" 
d="M333 612l-188 -247l-81 53l222 286h95l223 -286l-82 -53z" />
    <glyph glyph-name="at" unicode="@" horiz-adv-x="790" 
d="M568 427v-196c0 -55 5 -89 45 -89c44 0 64 53 64 128c0 173 -106 290 -280 290c-173 0 -284 -120 -284 -298c0 -209 117 -296 262 -296c133 0 181 54 193 64l61 -47c-41 -41 -139 -89 -251 -89c-196 0 -343 119 -343 370c0 211 149 368 361 368c220 0 359 -157 359 -364
c0 -116 -48 -207 -156 -207c-57 0 -102 33 -115 69h-2c-17 -38 -61 -69 -119 -69c-88 0 -166 61 -166 187c0 123 67 191 161 191c67 0 93 -36 103 -49h2v37h105zM381 149c53 0 79 41 82 93v16c0 56 -31 94 -82 94c-54 0 -81 -42 -81 -103c0 -63 32 -100 81 -100z" />
    <glyph glyph-name="bar" unicode="|" horiz-adv-x="209" 
d="M60 775h89v-849h-89v849z" />
    <glyph glyph-name="brokenbar" unicode="&#xa6;" horiz-adv-x="209" 
d="M149 490h-89v285h89v-285zM149 -74h-89v285h89v-285z" />
    <glyph glyph-name="ampersand.case" horiz-adv-x="719" 
d="M586 317v-110c0 -144 -97 -220 -272 -220c-178 0 -265 83 -265 201c0 98 60 162 136 175v3c-61 11 -127 65 -127 165c0 115 87 183 246 183c137 0 237 -51 275 -185l-102 -27c-19 77 -75 120 -170 120c-99 0 -136 -48 -136 -105c0 -62 43 -108 141 -108h389v-92h-115z
M479 317h-174c-94 0 -143 -44 -143 -115c0 -73 49 -119 156 -119c113 0 161 47 161 141v93z" />
    <glyph glyph-name="at.case" horiz-adv-x="790" 
d="M568 512v-196c0 -54 5 -89 45 -89c44 0 64 54 64 129c0 173 -106 289 -280 289c-173 0 -284 -119 -284 -298c0 -208 117 -296 262 -296c133 0 181 55 193 64l61 -47c-41 -41 -139 -89 -251 -89c-196 0 -343 119 -343 370c0 211 149 368 361 368c220 0 359 -157 359 -363
c0 -116 -48 -207 -156 -207c-57 0 -102 32 -115 68h-2c-17 -38 -61 -68 -119 -68c-88 0 -166 61 -166 186c0 124 67 192 161 192c67 0 93 -36 103 -49h2v36h105zM381 235c53 0 79 40 82 93v16c0 56 -31 93 -82 93c-54 0 -81 -42 -81 -103c0 -63 32 -99 81 -99z" />
    <glyph glyph-name="copyright.case" horiz-adv-x="797" 
d="M398 714c200 0 364 -148 364 -364c0 -215 -164 -364 -364 -364c-201 0 -363 149 -363 364c0 216 162 364 363 364zM398 656c-175 0 -303 -123 -303 -305c0 -183 128 -307 303 -307c174 0 304 124 304 307s-130 305 -304 305zM500 285l69 -23c-29 -60 -93 -103 -176 -103
c-114 0 -193 79 -193 190c0 113 82 192 195 192c80 0 147 -40 172 -111l-69 -19c-7 17 -32 60 -100 60c-73 0 -123 -47 -123 -121c0 -73 49 -120 121 -120c51 0 85 23 104 55z" />
    <glyph glyph-name="uni2116.case" horiz-adv-x="1150" 
d="M770 538c0 101 77 173 172 173s173 -72 173 -173c0 -99 -78 -172 -173 -172s-172 73 -172 172zM553 0l-373 519h-2c0 -1 2 -84 2 -172v-347h-110v700h112l372 -512h3c0 1 -2 85 -2 164v348h110v-700h-112zM838 538c0 -61 41 -107 104 -107s104 46 104 107
c0 62 -41 108 -104 108s-104 -46 -104 -108zM1106 238h-326v70h326v-70z" />
    <glyph glyph-name="paragraph.case" horiz-adv-x="617" 
d="M437 0v597h-82v-597h-110v337c-141 0 -210 70 -210 184c0 111 69 179 210 179h302v-700h-110z" />
    <glyph glyph-name="uni2117.case" horiz-adv-x="797" 
d="M398 714c200 0 364 -148 364 -364c0 -215 -164 -364 -364 -364c-201 0 -363 149 -363 364c0 216 162 364 363 364zM398 656c-175 0 -303 -123 -303 -305c0 -183 128 -307 303 -307c174 0 304 124 304 307s-130 305 -304 305zM280 536h137c93 0 146 -49 146 -127
c0 -72 -48 -120 -156 -120h-51v-122h-76v369zM356 350h61c47 0 71 21 71 57c0 37 -24 58 -71 58h-61v-115z" />
    <glyph glyph-name="registered.case" horiz-adv-x="797" 
d="M398 714c200 0 364 -148 364 -364c0 -215 -164 -364 -364 -364c-201 0 -363 149 -363 364c0 216 162 364 363 364zM398 656c-175 0 -303 -123 -303 -305c0 -183 128 -307 303 -307c174 0 304 124 304 307s-130 305 -304 305zM477 167l-78 140c-11 -1 -26 -1 -33 -1h-29
v-139h-76v369h137c96 0 152 -45 152 -118c0 -54 -32 -86 -76 -98l87 -153h-84zM337 364h65c46 0 70 19 70 52c0 35 -25 53 -70 53h-65v-105z" />
    <glyph glyph-name="copyright" unicode="&#xa9;" horiz-adv-x="797" 
d="M398 629c200 0 364 -148 364 -364c0 -215 -164 -364 -364 -364c-201 0 -363 149 -363 364c0 216 162 364 363 364zM398 571c-175 0 -303 -123 -303 -305c0 -183 128 -307 303 -307c174 0 304 124 304 307s-130 305 -304 305zM500 200l69 -23c-29 -60 -93 -103 -176 -103
c-114 0 -193 79 -193 190c0 113 82 192 195 192c80 0 147 -40 172 -111l-69 -19c-7 17 -32 60 -100 60c-73 0 -123 -47 -123 -121c0 -73 49 -120 121 -120c51 0 85 23 104 55z" />
    <glyph glyph-name="dagger" unicode="&#x2020;" 
d="M389 524h166v-97h-166v-122c0 -155 -12 -304 -13 -305h-83c-1 1 -14 150 -14 305v122h-166v97h166v176h110v-176z" />
    <glyph glyph-name="daggerdbl" unicode="&#x2021;" 
d="M555 203h-167c-4 -113 -11 -202 -12 -203h-83c-1 1 -9 90 -12 203h-168v97h166v5v122h-166v97h166v176h110v-176h166v-97h-166v-122v-5h166v-97z" />
    <glyph glyph-name="degree" unicode="&#xb0;" horiz-adv-x="274" 
d="M137 582c-71 0 -122 47 -122 119c0 71 51 119 122 119c72 0 123 -48 123 -119c0 -72 -51 -119 -123 -119zM137 646c33 0 56 22 56 55s-23 55 -56 55s-55 -22 -55 -55s22 -55 55 -55z" />
    <glyph glyph-name="uni2116" unicode="&#x2116;" horiz-adv-x="1054" 
d="M674 398c0 101 77 173 172 173s173 -72 173 -173c0 -99 -78 -172 -173 -172s-172 73 -172 172zM569 0h-108l-285 399h-3c0 -1 2 -61 2 -127v-272h-105v560h108l285 -391h2c0 1 -1 56 -1 115v276h105v-560zM742 398c0 -61 42 -107 104 -107c63 0 104 46 104 107
c0 62 -41 108 -104 108c-62 0 -104 -46 -104 -108zM1010 98h-326v70h326v-70z" />
    <glyph glyph-name="paragraph" unicode="&#xb6;" horiz-adv-x="617" 
d="M437 -140v597h-82v-597h-110v337c-141 0 -210 70 -210 184c0 111 69 179 210 179h302v-700h-110z" />
    <glyph glyph-name="uni2117" unicode="&#x2117;" horiz-adv-x="797" 
d="M398 629c200 0 364 -148 364 -364c0 -215 -164 -364 -364 -364c-201 0 -363 149 -363 364c0 216 162 364 363 364zM398 571c-175 0 -303 -123 -303 -305c0 -183 128 -307 303 -307c174 0 304 124 304 307s-130 305 -304 305zM280 451h137c93 0 146 -49 146 -127
c0 -72 -48 -120 -156 -120h-51v-122h-76v369zM356 265h61c47 0 71 21 71 57c0 37 -24 58 -71 58h-61v-115z" />
    <glyph glyph-name="registered" unicode="&#xae;" horiz-adv-x="797" 
d="M398 629c200 0 364 -148 364 -364c0 -215 -164 -364 -364 -364c-201 0 -363 149 -363 364c0 216 162 364 363 364zM398 571c-175 0 -303 -123 -303 -305c0 -183 128 -307 303 -307c174 0 304 124 304 307s-130 305 -304 305zM477 82l-78 140c-11 -1 -26 -1 -33 -1h-29
v-139h-76v369h137c96 0 152 -45 152 -118c0 -54 -32 -86 -76 -98l87 -153h-84zM337 279h65c46 0 70 19 70 52c0 35 -25 53 -70 53h-65v-105z" />
    <glyph glyph-name="section" unicode="&#xa7;" 
d="M500 254c50 -22 82 -57 82 -118c0 -103 -90 -149 -234 -149c-119 0 -247 30 -266 140l103 28c6 -60 64 -89 154 -89c79 0 130 21 130 75c0 57 -62 62 -205 87c-80 14 -176 42 -176 132c0 56 36 92 87 111c-47 21 -77 52 -77 109c0 98 98 134 219 134
c125 0 224 -39 251 -138l-91 -25c-21 65 -80 88 -159 88c-57 0 -110 -13 -110 -57c0 -55 66 -60 174 -78c120 -20 203 -45 203 -138c0 -58 -34 -94 -85 -112zM189 374c0 -60 90 -70 189 -87l33 -6c44 10 72 33 72 69c0 68 -87 75 -178 89l-30 5c-43 -8 -86 -28 -86 -70z" />
    <glyph glyph-name="trademark" unicode="&#x2122;" horiz-adv-x="795" 
d="M726 375h-69v119l1 114h-1c-1 -1 -18 -36 -36 -70l-47 -90h-38l-47 90c-19 36 -38 71 -39 72h-1l1 -116v-119h-67v325h82l62 -118c15 -28 28 -53 29 -54h1c1 1 13 25 27 53l60 119h82v-325zM321 700v-65h-108v-260h-70v260h-108v65h286z" />
    <glyph glyph-name="acute" unicode="&#xb4;" horiz-adv-x="551" 
d="M278 754h-100l106 168l89 -29z" />
    <glyph glyph-name="breve" unicode="&#x2d8;" horiz-adv-x="551" 
d="M107 881h83c3 -37 30 -67 83 -67c54 0 81 32 83 67h82c-4 -83 -68 -138 -165 -138c-96 0 -161 54 -166 138z" />
    <glyph glyph-name="tilde.cap" horiz-adv-x="551" 
d="M424 885l19 -80c-8 -10 -38 -32 -86 -32c-60 0 -96 33 -154 33c-38 0 -65 -16 -77 -28l-20 79c9 11 37 34 87 34c59 0 93 -32 155 -32c37 0 61 14 76 26z" />
    <glyph glyph-name="caron" unicode="&#x2c7;" horiz-adv-x="551" 
d="M120 867l50 59l105 -79l106 79l49 -59l-155 -118z" />
    <glyph glyph-name="cedilla" unicode="&#xb8;" horiz-adv-x="551" 
d="M392 -83c0 -57 -43 -91 -132 -91c-36 0 -70 6 -87 14v71c14 -7 39 -12 71 -12c46 0 69 10 69 33c0 27 -35 38 -116 39v65h77v-28c67 -4 118 -28 118 -91z" />
    <glyph glyph-name="circumflex" unicode="&#x2c6;" horiz-adv-x="551" 
d="M430 809l-50 -59l-105 84l-105 -84l-50 60l155 122z" />
    <glyph glyph-name="dieresis" unicode="&#xa8;" horiz-adv-x="551" 
d="M176 771c-31 0 -55 25 -55 56c0 30 25 55 56 55c30 0 54 -25 54 -55c0 -31 -24 -56 -55 -56zM373 771c-31 0 -55 25 -55 56c0 30 24 55 55 55s56 -25 56 -55c0 -31 -25 -56 -56 -56z" />
    <glyph glyph-name="dotaccent" unicode="&#x2d9;" horiz-adv-x="551" 
d="M275 771c-30 0 -55 25 -55 56c0 30 25 55 55 55c31 0 56 -25 56 -55c0 -31 -25 -56 -56 -56z" />
    <glyph glyph-name="grave" unicode="`" horiz-adv-x="551" 
d="M266 922l107 -168h-101l-94 139z" />
    <glyph glyph-name="hungarumlaut" unicode="&#x2dd;" horiz-adv-x="551" 
d="M215 754h-100l107 168l88 -29zM410 754h-100l106 168l88 -29z" />
    <glyph glyph-name="caron.l" horiz-adv-x="551" 
d="M245 700h88c2 -62 -24 -156 -45 -196h-81c19 40 39 135 38 196z" />
    <glyph glyph-name="macron" unicode="&#xaf;" horiz-adv-x="551" 
d="M428 769h-305v92h305v-92z" />
    <glyph glyph-name="ogonek" unicode="&#x2db;" horiz-adv-x="551" 
d="M311 62l33 -62c-57 -3 -92 -17 -92 -50c0 -30 22 -43 57 -43c29 0 61 8 78 17v-81c-18 -9 -53 -17 -87 -17c-77 0 -137 44 -137 111c0 56 41 114 148 125z" />
    <glyph glyph-name="ring" unicode="&#x2da;" horiz-adv-x="551" 
d="M275 737c-67 0 -114 39 -114 103s47 104 114 104c68 0 115 -40 115 -104s-47 -103 -115 -103zM275 798c27 0 45 17 45 42c0 26 -18 42 -45 42s-45 -16 -45 -42c0 -25 18 -42 45 -42z" />
    <glyph glyph-name="tilde" unicode="&#x2dc;" horiz-adv-x="551" 
d="M406 885l19 -81c-7 -10 -36 -31 -76 -31c-54 0 -87 33 -140 33c-32 0 -55 -16 -66 -28l-20 80c8 11 36 33 77 33c54 0 85 -32 140 -32c32 0 54 14 66 26z" />
    <glyph glyph-name="commaaccentcomb" unicode="&#x326;" horiz-adv-x="0" 
d="M264 -116c-29 -4 -47 15 -47 40c0 30 23 49 60 49c36 0 62 -20 62 -62c0 -48 -32 -93 -92 -113l-35 40c21 6 46 28 52 46z" />
    </font>
</defs>
</svg>
